<?xml version="1.0" standalone="no"?>
<!DOCTYPE svg PUBLIC "-//W3C//DTD SVG 1.1//EN"
   "http://www.w3.org/Graphics/SVG/1.1/DTD/svg11.dtd">
<!--
    Designed after data from http://www.wacom-asia.com/download/manuals/BambooUsersManual.pdf
    Size and positions of controls may not be accurate
 -->
<svg
   xmlns="http://www.w3.org/2000/svg"
   version="1.1"
   style="color:#000000;stroke:#7f7f7f;fill:none;stroke-width:.25;font-size:8"
   id="bamboo-2fg-fun-m-pt"
   width="337"
   height="222">
  <title
     id="title">Wacom Bamboo Fun medium (CTH-661)</title>
  <g>
    <path
       id="ButtonA"
       class="A Button"
       d="M 35 35 a 9 9 0 0 1 9 -9 l 19 0 l 0 50 l -28 0 z" />
    <circle
       id="DotA"
       cx="49.5"
       cy="52.5"
       r=".5" />
    <path
       id="LeaderA"
       class="A Leader"
       d="M 65 53 l 20 0" />
    <text
       id="LabelA"
       class="A Label"
       x="87"
       y="53"
       style="text-anchor:start;">A</text>
  </g>
  <g>
    <rect
       id="ButtonB"
       class="B Button"
       rx=".5"
       ry=".5"
       x="35"
       y="77"
       width="28"
       height="32" />
    <circle
       id="DotB"
       cx="49.5"
       cy="93.5"
       r=".5" />
    <path
       id="LeaderB"
       class="B Leader"
       d="M 65 94 l 20 0" />
    <text
       id="LabelB"
       class="B Label"
       x="87"
       y="94"
       style="text-anchor:start;">B</text>
  </g>
  <rect
      rx="1"
      ry="1"
      x="35"
      y="110"
      width="28"
      height="2" />
  <g>
    <rect
       id="ButtonC"
       class="C Button"
       x="35"
       y="113"
       rx=".5"
       ry=".5"
       width="28"
       height="32" />
    <circle
       id="DotC"
       cx="49.5"
       cy="127.5"
       r=".5" />
    <path
       id="LeaderC"
       class="C Leader"
       d="M 65 128 l 20 0" />
    <text
       id="LabelC"
       class="C Label"
       x="87"
       y="128"
       style="text-anchor:start;">C</text>
  </g>
  <g>
    <path
       id="ButtonD"
       class="D Button"
       d="M 35 187 a 9 9 0 0 0 9 9 l 19 0 l 0 -50 l -28 0 z" />
    <circle
       id="DotD"
       cx="49.5"
       cy="169.5"
       r=".5" />
    <path
       id="LeaderD"
       class="D Leader"
       d="M 65 170 l 20 0" />
    <text
       id="LabelD"
       class="D Label"
       x="87"
       y="170"
       style="text-anchor:start;">D</text>
  </g>
</svg>
