<?xml version="1.0" standalone="no"?>
<!DOCTYPE svg PUBLIC "-//W3C//DTD SVG 1.1//EN"
   "http://www.w3.org/Graphics/SVG/1.1/DTD/svg11.dtd">
<svg
   xmlns="http://www.w3.org/2000/svg"
   version="1.1"
   style="color:#000000;stroke:#7f7f7f;fill:none;stroke-width:.25;font-size:8"
   id="cintiq-pro-27"
   width="410"
   height="264">
  <title
     id="title">Wacom Cintiq Pro 27</title>
  <g>
    <rect
       id="ButtonA"
       class="A Button"
       rx=".5"
       ry=".5"
       x="1"
       y="40"
       width="15"
       height="5" />
    <path
       id="LeaderA"
       class="A Leader"
       d="M 20 42 L 40 42" />
    <text
       id="LabelA"
       class="A Label"
       x="45"
       y="42"
       style="text-anchor:start;">A</text>
  </g>
  <g>
    <rect
       id="ButtonB"
       class="B Button"
       rx=".5"
       ry=".5"
       x="1"
       y="55"
       width="15"
       height="5" />
    <path
       id="LeaderB"
       class="B Leader"
       d="M 20 57 L 40 57" />
    <text
       id="LabelB"
       class="B Label"
       x="45"
       y="57"
       style="text-anchor:start;">B</text>
  </g>
  <g>
    <rect
       id="ButtonC"
       class="C Button"
       rx=".5"
       ry=".5"
       x="1"
       y="70"
       width="15"
       height="5" />
    <path
       id="LeaderC"
       class="C Leader"
       d="M 20 72 L 40 72" />
    <text
       id="LabelC"
       class="C Label"
       x="45"
       y="72"
       style="text-anchor:start;">C</text>
  </g>
  <g>
    <rect
       id="ButtonD"
       class="D Button"
       rx=".5"
       ry=".5"
       x="1"
       y="85"
       width="15"
       height="5" />
    <path
       id="LeaderD"
       class="D Leader"
       d="M 20 87 L 40 87" />
    <text
       id="LabelD"
       class="D Label"
       x="45"
       y="87"
       style="text-anchor:start;">D</text>
  </g>
  <g>
    <rect
       id="ButtonE"
       class="E Button"
       rx=".5"
       ry=".5"
       x="394"
       y="40"
       width="15"
       height="5" />
    <path
       id="LeaderE"
       class="E Leader"
       d="M 380 42 L 360 42" />
    <text
       id="LabelE"
       class="E Label"
       x="355"
       y="42"
       style="text-anchor:end;">E</text>
  </g>
  <g>
    <rect
       id="ButtonF"
       class="F Button"
       rx=".5"
       ry=".5"
       x="394"
       y="55"
       width="15"
       height="5" />
    <path
       id="LeaderF"
       class="F Leader"
       d="M 380 57 L 360 57" />
    <text
       id="LabelF"
       class="F Label"
       x="355"
       y="57"
       style="text-anchor:end;">F</text>
  </g>
  <g>
    <rect
       id="ButtonG"
       class="G Button"
       rx=".5"
       ry=".5"
       x="394"
       y="70"
       width="15"
       height="5" />
    <path
       id="LeaderG"
       class="G Leader"
       d="M 380 72 L 360 72" />
    <text
       id="LabelG"
       class="G Label"
       x="355"
       y="72"
       style="text-anchor:end;">G</text>
  </g>
  <g>
    <rect
       id="ButtonH"
       class="H Button"
       rx=".5"
       ry=".5"
       x="394"
       y="85"
       width="15"
       height="5" />
    <path
       id="LeaderH"
       class="H Leader"
       d="M 380 87 L 360 87" />
    <text
       id="LabelH"
       class="H Label"
       x="355"
       y="87"
       style="text-anchor:end;">H</text>
  </g>
</svg>
