<?xml version="1.0" standalone="no"?>
<!DOCTYPE svg PUBLIC "-//W3C//DTD SVG 1.1//EN"
   "http://www.w3.org/Graphics/SVG/1.1/DTD/svg11.dtd">
<!--
   Designed after data from http://www.wacom-asia.com/download/manuals/DTI-520UB_en.pdf
   Size and positions of controls may not be accurate
 -->
<svg
   xmlns="http://www.w3.org/2000/svg"
   version="1.1"
   style="color:#000000;stroke:#7f7f7f;fill:none;stroke-width:.25;font-size:8"
   id="dti-520"
   width="344"
   height="300">
  <title
     id="title">Wacom DTI520UB/L</title>
  <g>
    <circle
       id="ButtonA"
       class="A Button"
       cx="152"
       cy="280"
       r="6" />
    <path
       id="LeaderA"
       class="A Leader"
       d="M 100 210 l 10 0 m -5 0 l 47 47 l 0 14" />
    <text
       id="LabelA"
       class="A Label"
       x="105"
       y="200"
       style="text-anchor:middle;">A</text>
  </g>
  <g>
    <circle
       id="ButtonB"
       class="B Button"
       cx="132"
       cy="280"
       r="6" />
    <circle
       id="ButtonB"
       class="B Button"
       cx="212"
       cy="280"
       r="6" />
    <path
       id="LeaderB"
       class="B Leader"
       d="M 132 288 l 0 8 M 212 288 l 0 8 l -100 0 l -62 -62 l 0 -24 m -5 0 l 10 0" />
    <text
       id="LabelB"
       class="B Label"
       x="50"
       y="200"
       style="text-anchor:middle;">B</text>
  </g>

  <g>
    <circle
       id="ButtonC"
       class="C Button"
       cx="192"
       cy="280"
       r="6" />
    <path
       id="LeaderC"
       class="C Leader"
       d="M 198 274 l 40 -40 l 56 0 l 0 -24 m -5 0 l 10 0" />
    <text
       id="LabelC"
       class="C Label"
       x="294"
       y="200"
       style="text-anchor:middle;">C</text>
  </g>
  <g>
    <circle
       id="ButtonD"
       class="D Button"
       cx="172"
       cy="273"
       r="6" />
    <path
       id="LeaderD"
       class="D Leader"
       d="M 167 210 l 10 0 m -5 0 l 0 54" />
    <text
       id="LabelD"
       class="D Label"
       x="172"
       y="200"
       style="text-anchor:middle;">D</text>
  </g>
  <g>
    <circle
       id="ButtonE"
       class="E Button"
       cx="172"
       cy="287"
       r="6" />
    <path
       id="LeaderE"
       class="E Leader"
       d="M 178 281 l 61 -61 l 0 -10 m -5 0 l 10 0" />
    <text
       id="LabelE"
       class="E Label"
       x="239"
       y="200"
       style="text-anchor:middle;">E</text>
  </g>
  <g>
    <circle
       id="ButtonF"
       class="F Button"
       cx="138"
       cy="10"
       r="4" />
    <path
       id="LeaderF"
       class="F Leader"
       d="M 132 10 l -82 0 l 0 80 m -5 0 l 10 0" />
    <text
       id="LabelF"
       class="F Label"
       x="50"
       y="100"
       style="text-anchor:middle;">F</text>
  </g>
  <g>
    <circle
       id="ButtonG"
       class="G Button"
       cx="155"
       cy="10"
       r="4" />
    <path
       id="LeaderG"
       class="G Leader"
       d="M 151 14 l -46 46 l 0 30 m -5 0 l 10 0" />
    <text
       id="LabelG"
       class="G Label"
       x="105"
       y="100"
       style="text-anchor:middle;">G</text>
  </g>
  <g>
    <circle
       id="ButtonH"
       class="H Button"
       cx="172"
       cy="10"
       r="4" />
    <path
       id="LeaderH"
       class="H Leader"
       d="M 172 15 l 0 75 m -5 0 l 10 0" />
    <text
       id="LabelH"
       class="H Label"
       x="172"
       y="100"
       style="text-anchor:middle;">H</text>
  </g>
  <g>
    <circle
       id="ButtonI"
       class="I Button"
       cx="189"
       cy="10"
       r="4" />
    <path
       id="LeaderI"
       class="I Leader"
       d="M 193 14 l 46 46 l 0 30 m -5 0 l 10 0" />
    <text
       id="LabelI"
       class="I Label"
       x="239"
       y="100"
       style="text-anchor:middle;">I</text>
  </g>
  <g>
    <circle
       id="ButtonJ"
       class="J Button"
       cx="206"
       cy="10"
       r="4" />
    <path
       id="LeaderJ"
       class="J Leader"
       d="M 212 10 l 82 0 l 0 80 m -5 0 l 10 0" />
    <text
       id="LabelJ"
       class="J Label"
       x="294"
       y="100"
       style="text-anchor:middle;">J</text>
  </g>
</svg>
