<?xml version="1.0" standalone="no"?>
<!DOCTYPE svg PUBLIC "-//W3C//DTD SVG 1.1//EN" "http://www.w3.org/Graphics/SVG/1.1/DTD/svg11.dtd">
<svg xmlns="http://www.w3.org/2000/svg" version="1.1" style="color:#000000;stroke:#7f7f7f;fill:none;stroke-width:.25;font-size:8" id="gaomon-a5h" width="750" height="478">
  <title id="title">A5H</title>
  <rect x="138" y="37" width="576" height="405"/>
  <g>
    <rect id="ButtonA" class="A Button" x="37" y="234" width="24" height="24"/>
    <text id="LabelA" class="A Label" x="7.0" y="248" style="text-anchor:start;">A</text>
    <path style="fill:none" d="M 25.0,246.0 H 17.0" id="LeaderA" class="Leader A"/>
  </g>
  <g>
    <rect id="ButtonB" class="B Button" x="66" y="234" width="24" height="24"/>
    <text id="LabelB" class="B Label" x="116.0" y="248" style="text-anchor:start;">B</text>
    <path style="fill:none" d="M 101.0,246.0 H 108.0" id="LeaderB" class="Leader B"/>
  </g>
  <g>
    <rect id="ButtonC" class="C Button" x="37" y="200" width="24" height="24"/>
    <text id="LabelC" class="C Label" x="7.0" y="214" style="text-anchor:start;">C</text>
    <path style="fill:none" d="M 25.0,212.0 H 17.0" id="LeaderC" class="Leader C"/>
  </g>
  <g>
    <rect id="ButtonD" class="D Button" x="66" y="200" width="24" height="24"/>
    <text id="LabelD" class="D Label" x="116.0" y="214" style="text-anchor:start;">D</text>
    <path style="fill:none" d="M 101.0,212.0 H 108.0" id="LeaderD" class="Leader D"/>
  </g>
  <g>
    <rect id="ButtonE" class="E Button" x="37" y="165" width="24" height="24"/>
    <text id="LabelE" class="E Label" x="7.0" y="179" style="text-anchor:start;">E</text>
    <path style="fill:none" d="M 25.0,177.0 H 17.0" id="LeaderE" class="Leader E"/>
  </g>
  <g>
    <rect id="ButtonF" class="F Button" x="66" y="165" width="24" height="24"/>
    <text id="LabelF" class="F Label" x="116.0" y="179" style="text-anchor:start;">F</text>
    <path style="fill:none" d="M 101.0,177.0 H 108.0" id="LeaderF" class="Leader F"/>
  </g>
  <g>
    <rect id="ButtonG" class="G Button" x="37" y="131" width="24" height="24"/>
    <text id="LabelG" class="G Label" x="7.0" y="145" style="text-anchor:start;">G</text>
    <path style="fill:none" d="M 25.0,143.0 H 17.0" id="LeaderG" class="Leader G"/>
  </g>
  <g>
    <rect id="ButtonH" class="H Button" x="66" y="131" width="24" height="24"/>
    <text id="LabelH" class="H Label" x="116.0" y="145" style="text-anchor:start;">H</text>
    <path style="fill:none" d="M 101.0,143.0 H 108.0" id="LeaderH" class="Leader H"/>
  </g>
  <g>
    <rect id="ButtonI" class="I Button" x="37" y="97" width="24" height="24"/>
    <text id="LabelI" class="I Label" x="7.0" y="111" style="text-anchor:start;">I</text>
    <path style="fill:none" d="M 25.0,109.0 H 17.0" id="LeaderI" class="Leader I"/>
  </g>
  <g>
    <rect id="ButtonJ" class="J Button" x="66" y="97" width="24" height="24"/>
    <text id="LabelJ" class="J Label" x="116.0" y="111" style="text-anchor:start;">J</text>
    <path style="fill:none" d="M 101.0,109.0 H 108.0" id="LeaderJ" class="Leader J"/>
  </g>
  <g>
    <rect id="ButtonK" class="K Button" x="37" y="62" width="24" height="24"/>
    <text id="LabelK" class="K Label" x="7.0" y="76" style="text-anchor:start;">K</text>
    <path style="fill:none" d="M 25.0,74.0 H 17.0" id="LeaderK" class="Leader K"/>
  </g>
  <g>
    <rect id="ButtonL" class="L Button" x="66" y="62" width="24" height="24"/>
    <text id="LabelL" class="L Label" x="116.0" y="76" style="text-anchor:start;">L</text>
    <path style="fill:none" d="M 101.0,74.0 H 108.0" id="LeaderL" class="Leader L"/>
  </g>
  <g>
    <rect id="ButtonM" class="M Button" x="44" y="274" width="40" height="40"/>
    <text id="LabelM" class="M Label" x="102.0" y="296" style="text-anchor:start;">M</text>
    <path style="fill:none" d="M 87.0,294.0 H 94.0" id="LeaderM" class="Leader M"/>
  </g>
</svg>
