<?xml version="1.0" standalone="no"?>
<!DOCTYPE svg PUBLIC "-//W3C//DTD SVG 1.1//EN" "http://www.w3.org/Graphics/SVG/1.1/DTD/svg11.dtd">
<svg xmlns="http://www.w3.org/2000/svg" version="1.1" style="color:#000000;stroke:#7f7f7f;fill:none;stroke-width:.25;font-size:8" id="gaomon-a5h_mt" width="750" height="477">
  <title id="title">A5H_MT</title>
  <rect x="139" y="36" width="575" height="407"/>
  <g>
    <rect id="ButtonA" class="A Button" x="34" y="246" width="20" height="20"/>
    <text id="LabelA" class="A Label" x="12.0" y="258" style="text-anchor:start;">A</text>
    <path style="fill:none" d="M 30.0,256.0 H 22.0" id="LeaderA" class="Leader A"/>
  </g>
  <g>
    <rect id="ButtonB" class="B Button" x="75" y="245" width="20" height="20"/>
    <text id="LabelB" class="B Label" x="113.0" y="257" style="text-anchor:start;">B</text>
    <path style="fill:none" d="M 98.0,255.0 H 105.0" id="LeaderB" class="Leader B"/>
  </g>
  <g>
    <rect id="ButtonC" class="C Button" x="34" y="221" width="20" height="20"/>
    <text id="LabelC" class="C Label" x="12.0" y="233" style="text-anchor:start;">C</text>
    <path style="fill:none" d="M 30.0,231.0 H 22.0" id="LeaderC" class="Leader C"/>
  </g>
  <g>
    <rect id="ButtonD" class="D Button" x="75" y="220" width="20" height="20"/>
    <text id="LabelD" class="D Label" x="113.0" y="232" style="text-anchor:start;">D</text>
    <path style="fill:none" d="M 98.0,230.0 H 105.0" id="LeaderD" class="Leader D"/>
  </g>
  <g>
    <rect id="ButtonE" class="E Button" x="34" y="196" width="20" height="20"/>
    <text id="LabelE" class="E Label" x="12.0" y="208" style="text-anchor:start;">E</text>
    <path style="fill:none" d="M 30.0,206.0 H 22.0" id="LeaderE" class="Leader E"/>
  </g>
  <g>
    <rect id="ButtonF" class="F Button" x="75" y="196" width="20" height="20"/>
    <text id="LabelF" class="F Label" x="113.0" y="208" style="text-anchor:start;">F</text>
    <path style="fill:none" d="M 98.0,206.0 H 105.0" id="LeaderF" class="Leader F"/>
  </g>
  <g>
    <rect id="ButtonG" class="G Button" x="34" y="172" width="20" height="20"/>
    <text id="LabelG" class="G Label" x="12.0" y="184" style="text-anchor:start;">G</text>
    <path style="fill:none" d="M 30.0,182.0 H 22.0" id="LeaderG" class="Leader G"/>
  </g>
  <g>
    <rect id="ButtonH" class="H Button" x="75" y="172" width="20" height="20"/>
    <text id="LabelH" class="H Label" x="113.0" y="184" style="text-anchor:start;">H</text>
    <path style="fill:none" d="M 98.0,182.0 H 105.0" id="LeaderH" class="Leader H"/>
  </g>
  <g>
    <rect id="ButtonI" class="I Button" x="37" y="96" width="24" height="27"/>
    <text id="LabelI" class="I Label" x="17.0" y="111.5" style="text-anchor:start;">I</text>
    <path style="fill:none" d="M 35.0,109.5 H 27.0" id="LeaderI" class="Leader I"/>
  </g>
  <g>
    <rect id="ButtonJ" class="J Button" x="66" y="96" width="24" height="27"/>
    <text id="LabelJ" class="J Label" x="106.0" y="111.5" style="text-anchor:start;">J</text>
    <path style="fill:none" d="M 91.0,109.5 H 98.0" id="LeaderJ" class="Leader J"/>
  </g>
  <g>
    <rect id="ButtonK" class="K Button" x="34" y="147" width="20" height="20"/>
    <text id="LabelK" class="K Label" x="12.0" y="159" style="text-anchor:start;">K</text>
    <path style="fill:none" d="M 30.0,157.0 H 22.0" id="LeaderK" class="Leader K"/>
  </g>
  <g>
    <rect id="ButtonL" class="L Button" x="75" y="147" width="20" height="20"/>
    <text id="LabelL" class="L Label" x="113.0" y="159" style="text-anchor:start;">L</text>
    <path style="fill:none" d="M 98.0,157.0 H 105.0" id="LeaderL" class="Leader L"/>
  </g>
  <g>
    <rect id="ButtonM" class="M Button" x="43" y="274" width="42" height="41"/>
    <text id="LabelM" class="M Label" x="92.0" y="296.5" style="text-anchor:start;">M</text>
    <path style="fill:none" d="M 77.0,294.5 H 84.0" id="LeaderM" class="Leader M"/>
  </g>
</svg>
