<?xml version='1.0' encoding='ASCII'?>
<!DOCTYPE svg PUBLIC "-//W3C//DTD SVG 1.1//EN" "http://www.w3.org/Graphics/SVG/1.1/DTD/svg11.dtd">
<svg xmlns="http://www.w3.org/2000/svg" version="1.1" style="color:#000000;stroke:#7f7f7f;fill:none;stroke-width:.25;font-size:8" id="gaomon-g13" width="750" height="434">
  <title id="title">G13</title>
  <rect x="129" y="58" width="572" height="320"/>
  <g>
    <rect id="ButtonA" class="A Button" x="37" y="53" width="35" height="20"/>
    <text id="LabelA" class="A Label" x="102.5" y="65" style="text-anchor:start;">A</text>
    <path style="fill:none" d="M 87.5,63.0 H 94.5" id="LeaderA" class="Leader A"/>
  </g>
  <g>
    <rect id="ButtonB" class="B Button" x="37" y="81" width="35" height="20"/>
    <text id="LabelB" class="B Label" x="102.5" y="93" style="text-anchor:start;">B</text>
    <path style="fill:none" d="M 87.5,91.0 H 94.5" id="LeaderB" class="Leader B"/>
  </g>
  <g>
    <rect id="ButtonC" class="C Button" x="37" y="108" width="35" height="20"/>
    <text id="LabelC" class="C Label" x="102.5" y="120" style="text-anchor:start;">C</text>
    <path style="fill:none" d="M 87.5,118.0 H 94.5" id="LeaderC" class="Leader C"/>
  </g>
  <g>
    <rect id="ButtonD" class="D Button" x="37" y="135" width="35" height="20"/>
    <text id="LabelD" class="D Label" x="102.5" y="147" style="text-anchor:start;">D</text>
    <path style="fill:none" d="M 87.5,145.0 H 94.5" id="LeaderD" class="Leader D"/>
  </g>
  <g>
    <rect id="ButtonE" class="E Button" x="37" y="162" width="35" height="20"/>
    <text id="LabelE" class="E Label" x="102.5" y="174" style="text-anchor:start;">E</text>
    <path style="fill:none" d="M 87.5,172.0 H 94.5" id="LeaderE" class="Leader E"/>
  </g>
  <g>
    <rect id="ButtonF" class="F Button" x="37" y="252" width="35" height="20"/>
    <text id="LabelF" class="F Label" x="102.5" y="264" style="text-anchor:start;">F</text>
    <path style="fill:none" d="M 87.5,262.0 H 94.5" id="LeaderF" class="Leader F"/>
  </g>
  <g>
    <rect id="ButtonG" class="G Button" x="37" y="279" width="35" height="20"/>
    <text id="LabelG" class="G Label" x="102.5" y="291" style="text-anchor:start;">G</text>
    <path style="fill:none" d="M 87.5,289.0 H 94.5" id="LeaderG" class="Leader G"/>
  </g>
  <g>
    <rect id="ButtonH" class="H Button" x="37" y="307" width="35" height="20"/>
    <text id="LabelH" class="H Label" x="102.5" y="319" style="text-anchor:start;">H</text>
    <path style="fill:none" d="M 87.5,317.0 H 94.5" id="LeaderH" class="Leader H"/>
  </g>
  <g>
    <rect id="ButtonI" class="I Button" x="37" y="334" width="35" height="20"/>
    <text id="LabelI" class="I Label" x="102.5" y="346" style="text-anchor:start;">I</text>
    <path style="fill:none" d="M 87.5,344.0 H 94.5" id="LeaderI" class="Leader I"/>
  </g>
  <g>
    <rect id="ButtonJ" class="J Button" x="37" y="362" width="35" height="20"/>
    <text id="LabelJ" class="J Label" x="102.5" y="374" style="text-anchor:start;">J</text>
    <path style="fill:none" d="M 87.5,372.0 H 94.5" id="LeaderJ" class="Leader J"/>
  </g>
  <g>
    <rect id="ButtonK" class="K Button" x="40" y="204" width="25" height="25"/>
    <text id="LabelK" class="K Label" x="100.5" y="218.5" style="text-anchor:start;">K</text>
    <path style="fill:none" d="M 85.5,216.5 H 92.5" id="LeaderK" class="Leader K"/>
  </g>
</svg>
