<?xml version="1.0" standalone="no"?>
<!DOCTYPE svg PUBLIC "-//W3C//DTD SVG 1.1//EN" "http://www.w3.org/Graphics/SVG/1.1/DTD/svg11.dtd">
<svg xmlns="http://www.w3.org/2000/svg" version="1.1" style="color:#000000;stroke:#7f7f7f;fill:none;stroke-width:.25;font-size:8" id="gaomon-sp1603" width="750" height="423">
  <title id="title">SP1603</title>
  <rect x="136" y="47" width="573" height="327"/>
  <g>
    <rect id="ButtonA" class="A Button" x="13" y="140" width="17" height="39"/>
    <text id="LabelA" class="A Label" x="19.5" y="201.5" style="text-anchor:start;">A</text>
    <path style="fill:none" d="M 21.5,186.5 V 193.5" id="LeaderA" class="Leader A"/>
  </g>
  <g>
    <rect id="ButtonB" class="B Button" x="13" y="246" width="17" height="39"/>
    <text id="LabelB" class="B Label" x="19.5" y="227.5" style="text-anchor:start;">B</text>
    <path style="fill:none" d="M 21.5,242.5 V 235.5" id="LeaderB" class="Leader B"/>
  </g>
  <g>
    <rect id="ButtonC" class="C Button" x="40" y="52" width="16" height="38"/>
    <text id="LabelC" class="C Label" x="16.0" y="73" style="text-anchor:start;">C</text>
    <path style="fill:none" d="M 34.0,71.0 H 26.0" id="LeaderC" class="Leader C"/>
  </g>
  <g>
    <rect id="ButtonD" class="D Button" x="60" y="46" width="17" height="41"/>
    <text id="LabelD" class="D Label" x="96.5" y="68.5" style="text-anchor:start;">D</text>
    <path style="fill:none" d="M 81.5,66.5 H 88.5" id="LeaderD" class="Leader D"/>
  </g>
  <g>
    <rect id="ButtonE" class="E Button" x="37" y="98" width="18" height="52"/>
    <text id="LabelE" class="E Label" x="14.0" y="126" style="text-anchor:start;">E</text>
    <path style="fill:none" d="M 32.0,124.0 H 24.0" id="LeaderE" class="Leader E"/>
  </g>
  <g>
    <rect id="ButtonF" class="F Button" x="60" y="94" width="17" height="51"/>
    <text id="LabelF" class="F Label" x="96.5" y="121.5" style="text-anchor:start;">F</text>
    <path style="fill:none" d="M 81.5,119.5 H 88.5" id="LeaderF" class="Leader F"/>
  </g>
  <g>
    <rect id="ButtonG" class="G Button" x="32" y="160" width="19" height="37"/>
    <text id="LabelG" class="G Label" x="39.5" y="180.5" style="text-anchor:start;">G</text>
    <path style="fill:none" d="M 54.5,178.5 H 61.5" id="LeaderG" class="Leader G"/>
  </g>
  <g>
    <rect id="ButtonH" class="H Button" x="60" y="147" width="17" height="35"/>
    <text id="LabelH" class="H Label" x="96.5" y="166.5" style="text-anchor:start;">H</text>
    <path style="fill:none" d="M 81.5,164.5 H 88.5" id="LeaderH" class="Leader H"/>
  </g>
  <g>
    <rect id="ButtonI" class="I Button" x="31" y="228" width="19" height="36"/>
    <text id="LabelI" class="I Label" x="8.5" y="248" style="text-anchor:start;">I</text>
    <path style="fill:none" d="M 26.5,246.0 H 18.5" id="LeaderI" class="Leader I"/>
  </g>
  <g>
    <rect id="ButtonJ" class="J Button" x="60" y="241" width="18" height="41"/>
    <text id="LabelJ" class="J Label" x="67.0" y="263.5" style="text-anchor:start;">J</text>
    <path style="fill:none" d="M 85.0,261.5 H 77.0" id="LeaderJ" class="Leader J"/>
  </g>
  <g>
    <rect id="ButtonK" class="K Button" x="37" y="276" width="19" height="48"/>
    <text id="LabelK" class="K Label" x="14.5" y="302" style="text-anchor:start;">K</text>
    <path style="fill:none" d="M 32.5,300.0 H 24.5" id="LeaderK" class="Leader K"/>
  </g>
  <g>
    <rect id="ButtonL" class="L Button" x="61" y="283" width="14" height="47"/>
    <text id="LabelL" class="L Label" x="96.0" y="308.5" style="text-anchor:start;">L</text>
    <path style="fill:none" d="M 81.0,306.5 H 88.0" id="LeaderL" class="Leader L"/>
  </g>
  <g>
    <rect id="ButtonM" class="M Button" x="40" y="335" width="17" height="41"/>
    <text id="LabelM" class="M Label" x="16.5" y="357.5" style="text-anchor:start;">M</text>
    <path style="fill:none" d="M 34.5,355.5 H 26.5" id="LeaderM" class="Leader M"/>
  </g>
  <g>
    <rect id="ButtonN" class="N Button" x="60" y="337" width="14" height="44"/>
    <text id="LabelN" class="N Label" x="95.0" y="361" style="text-anchor:start;">N</text>
    <path style="fill:none" d="M 80.0,359.0 H 87.0" id="LeaderN" class="Leader N"/>
  </g>
  <g>
    <rect id="ButtonO" class="O Button" x="53" y="201" width="21" height="21"/>
    <text id="LabelO" class="O Label" x="91.5" y="213.5" style="text-anchor:start;">O</text>
    <path style="fill:none" d="M 76.5,211.5 H 83.5" id="LeaderO" class="Leader O"/>
  </g>
</svg>
