<?xml version='1.0' encoding='ASCII'?>
<!DOCTYPE svg PUBLIC "-//W3C//DTD SVG 1.1//EN" "http://www.w3.org/Graphics/SVG/1.1/DTD/svg11.dtd">
<svg xmlns="http://www.w3.org/2000/svg" version="1.1" style="color:#000000;stroke:#7f7f7f;fill:none;stroke-width:.25;font-size:8" id="gaomon-m8" width="750" height="469">
  <title id="title">M8</title>
  <rect x="135" y="66" width="569" height="360"/>
  <g>
    <rect id="ButtonA" class="A Button" x="50" y="65" width="45" height="20"/>
    <text id="LabelA" class="A Label" x="120.5" y="77" style="text-anchor:start;">A</text>
    <path style="fill:none" d="M 105.5,75.0 H 112.5" id="LeaderA" class="Leader A"/>
  </g>
  <g>
    <rect id="ButtonB" class="B Button" x="50" y="98" width="45" height="20"/>
    <text id="LabelB" class="B Label" x="120.5" y="110" style="text-anchor:start;">B</text>
    <path style="fill:none" d="M 105.5,108.0 H 112.5" id="LeaderB" class="Leader B"/>
  </g>
  <g>
    <rect id="ButtonC" class="C Button" x="50" y="131" width="45" height="20"/>
    <text id="LabelC" class="C Label" x="120.5" y="143" style="text-anchor:start;">C</text>
    <path style="fill:none" d="M 105.5,141.0 H 112.5" id="LeaderC" class="Leader C"/>
  </g>
  <g>
    <rect id="ButtonD" class="D Button" x="50" y="164" width="45" height="20"/>
    <text id="LabelD" class="D Label" x="120.5" y="176" style="text-anchor:start;">D</text>
    <path style="fill:none" d="M 105.5,174.0 H 112.5" id="LeaderD" class="Leader D"/>
  </g>
  <g>
    <rect id="ButtonE" class="E Button" x="51" y="310" width="45" height="20"/>
    <text id="LabelE" class="E Label" x="121.5" y="322" style="text-anchor:start;">E</text>
    <path style="fill:none" d="M 106.5,320.0 H 113.5" id="LeaderE" class="Leader E"/>
  </g>
  <g>
    <rect id="ButtonF" class="F Button" x="51" y="343" width="45" height="20"/>
    <text id="LabelF" class="F Label" x="121.5" y="355" style="text-anchor:start;">F</text>
    <path style="fill:none" d="M 106.5,353.0 H 113.5" id="LeaderF" class="Leader F"/>
  </g>
  <g>
    <rect id="ButtonG" class="G Button" x="51" y="376" width="45" height="20"/>
    <text id="LabelG" class="G Label" x="121.5" y="388" style="text-anchor:start;">G</text>
    <path style="fill:none" d="M 106.5,386.0 H 113.5" id="LeaderG" class="Leader G"/>
  </g>
  <g>
    <rect id="ButtonH" class="H Button" x="51" y="409" width="45" height="20"/>
    <text id="LabelH" class="H Label" x="121.5" y="421" style="text-anchor:start;">H</text>
    <path style="fill:none" d="M 106.5,419.0 H 113.5" id="LeaderH" class="Leader H"/>
  </g>
  <g>
    <rect id="ButtonI" class="I Button" x="58" y="232" width="30" height="30"/>
    <text id="LabelI" class="I Label" x="121.0" y="249" style="text-anchor:start;">I</text>
    <path style="fill:none" d="M 106.0,247.0 H 113.0" id="LeaderI" class="Leader I"/>
  </g>
</svg>
