<?xml version='1.0' encoding='ASCII'?>
<!DOCTYPE svg PUBLIC "-//W3C//DTD SVG 1.1//EN" "http://www.w3.org/Graphics/SVG/1.1/DTD/svg11.dtd">
<svg xmlns="http://www.w3.org/2000/svg" version="1.1" style="color:#000000;stroke:#7f7f7f;fill:none;stroke-width:.25;font-size:8" id="gaomon-pd1610" width="750" height="471">
  <title id="title">PD1610</title>
  <rect x="74" y="46" width="602" height="377"/>
  <g>
    <rect id="ButtonA" class="A Button" x="21" y="52" width="30" height="20"/>
    <text id="LabelA" class="A Label" x="84.0" y="64" style="text-anchor:start;">A</text>
    <path style="fill:none" d="M 69.0,62.0 H 76.0" id="LeaderA" class="Leader A"/>
  </g>
  <g>
    <rect id="ButtonB" class="B Button" x="21" y="100" width="30" height="20"/>
    <text id="LabelB" class="B Label" x="84.0" y="112" style="text-anchor:start;">B</text>
    <path style="fill:none" d="M 69.0,110.0 H 76.0" id="LeaderB" class="Leader B"/>
  </g>
  <g>
    <rect id="ButtonC" class="C Button" x="21" y="149" width="30" height="20"/>
    <text id="LabelC" class="C Label" x="84.0" y="161" style="text-anchor:start;">C</text>
    <path style="fill:none" d="M 69.0,159.0 H 76.0" id="LeaderC" class="Leader C"/>
  </g>
  <g>
    <rect id="ButtonD" class="D Button" x="21" y="197" width="30" height="20"/>
    <text id="LabelD" class="D Label" x="84.0" y="209" style="text-anchor:start;">D</text>
    <path style="fill:none" d="M 69.0,207.0 H 76.0" id="LeaderD" class="Leader D"/>
  </g>
  <g>
    <rect id="ButtonE" class="E Button" x="21" y="250" width="30" height="20"/>
    <text id="LabelE" class="E Label" x="84.0" y="262" style="text-anchor:start;">E</text>
    <path style="fill:none" d="M 69.0,260.0 H 76.0" id="LeaderE" class="Leader E"/>
  </g>
  <g>
    <rect id="ButtonF" class="F Button" x="21" y="299" width="30" height="20"/>
    <text id="LabelF" class="F Label" x="84.0" y="311" style="text-anchor:start;">F</text>
    <path style="fill:none" d="M 69.0,309.0 H 76.0" id="LeaderF" class="Leader F"/>
  </g>
  <g>
    <rect id="ButtonG" class="G Button" x="21" y="348" width="30" height="20"/>
    <text id="LabelG" class="G Label" x="84.0" y="360" style="text-anchor:start;">G</text>
    <path style="fill:none" d="M 69.0,358.0 H 76.0" id="LeaderG" class="Leader G"/>
  </g>
  <g>
    <rect id="ButtonH" class="H Button" x="21" y="397" width="30" height="20"/>
    <text id="LabelH" class="H Label" x="84.0" y="409" style="text-anchor:start;">H</text>
    <path style="fill:none" d="M 69.0,407.0 H 76.0" id="LeaderH" class="Leader H"/>
  </g>
</svg>
