<?xml version='1.0' encoding='ASCII'?>
<!DOCTYPE svg PUBLIC "-//W3C//DTD SVG 1.1//EN" "http://www.w3.org/Graphics/SVG/1.1/DTD/svg11.dtd">
<svg xmlns="http://www.w3.org/2000/svg" version="1.1" style="color:#000000;stroke:#7f7f7f;fill:none;stroke-width:.25;font-size:8" id="gaomon-d16-pro" width="750" height="463">
  <title id="title">D16 PRO</title>
  <rect x="105" y="66" width="585" height="327"/>
  <g>
    <rect id="ButtonA" class="A Button" x="29" y="79" width="25" height="30"/>
    <text id="LabelA" class="A Label" x="89.5" y="96" style="text-anchor:start;">A</text>
    <path style="fill:none" d="M 74.5,94.0 H 81.5" id="LeaderA" class="Leader A"/>
  </g>
  <g>
    <rect id="ButtonB" class="B Button" x="29" y="116" width="25" height="24"/>
    <text id="LabelB" class="B Label" x="89.5" y="130" style="text-anchor:start;">B</text>
    <path style="fill:none" d="M 74.5,128.0 H 81.5" id="LeaderB" class="Leader B"/>
  </g>
  <g>
    <rect id="ButtonC" class="C Button" x="29" y="148" width="25" height="25"/>
    <text id="LabelC" class="C Label" x="89.5" y="162.5" style="text-anchor:start;">C</text>
    <path style="fill:none" d="M 74.5,160.5 H 81.5" id="LeaderC" class="Leader C"/>
  </g>
  <g>
    <rect id="ButtonD" class="D Button" x="29" y="184" width="25" height="24"/>
    <text id="LabelD" class="D Label" x="89.5" y="198" style="text-anchor:start;">D</text>
    <path style="fill:none" d="M 74.5,196.0 H 81.5" id="LeaderD" class="Leader D"/>
  </g>
  <g>
    <rect id="ButtonE" class="E Button" x="29" y="256" width="25" height="24"/>
    <text id="LabelE" class="E Label" x="89.5" y="270" style="text-anchor:start;">E</text>
    <path style="fill:none" d="M 74.5,268.0 H 81.5" id="LeaderE" class="Leader E"/>
  </g>
  <g>
    <rect id="ButtonF" class="F Button" x="29" y="292" width="25" height="24"/>
    <text id="LabelF" class="F Label" x="89.5" y="306" style="text-anchor:start;">F</text>
    <path style="fill:none" d="M 74.5,304.0 H 81.5" id="LeaderF" class="Leader F"/>
  </g>
  <g>
    <rect id="ButtonG" class="G Button" x="29" y="325" width="25" height="24"/>
    <text id="LabelG" class="G Label" x="89.5" y="339" style="text-anchor:start;">G</text>
    <path style="fill:none" d="M 74.5,337.0 H 81.5" id="LeaderG" class="Leader G"/>
  </g>
  <g>
    <rect id="ButtonH" class="H Button" x="29" y="355" width="25" height="30"/>
    <text id="LabelH" class="H Label" x="89.5" y="372" style="text-anchor:start;">H</text>
    <path style="fill:none" d="M 74.5,370.0 H 81.5" id="LeaderH" class="Leader H"/>
  </g>
  <g>
    <rect id="ButtonI" class="I Button" x="31" y="223" width="18" height="18"/>
    <text id="LabelI" class="I Label" x="88.0" y="234" style="text-anchor:start;">I</text>
    <path style="fill:none" d="M 73.0,232.0 H 80.0" id="LeaderI" class="Leader I"/>
  </g>
</svg>
