<?xml version='1.0' encoding='ASCII'?>
<!DOCTYPE svg PUBLIC "-//W3C//DTD SVG 1.1//EN" "http://www.w3.org/Graphics/SVG/1.1/DTD/svg11.dtd">
<svg xmlns="http://www.w3.org/2000/svg" version="1.1" style="color:#000000;stroke:#7f7f7f;fill:none;stroke-width:.25;font-size:8" id="gaomon-wh851" width="727" height="430">
  <title id="title">WH851</title>
  <rect x="160" y="56" width="511" height="318"/>
  <g>
    <rect id="ButtonA" class="A Button" x="36" y="41" width="43" height="29"/>
    <text id="LabelA" class="A Label" x="105.5" y="57.5" style="text-anchor:start;">A</text>
    <path style="fill:none" d="M 90.5,55.5 H 97.5" id="LeaderA" class="Leader A"/>
  </g>
  <g>
    <rect id="ButtonB" class="B Button" x="36" y="75" width="43" height="29"/>
    <text id="LabelB" class="B Label" x="105.5" y="91.5" style="text-anchor:start;">B</text>
    <path style="fill:none" d="M 90.5,89.5 H 97.5" id="LeaderB" class="Leader B"/>
  </g>
  <g>
    <rect id="ButtonC" class="C Button" x="36" y="109" width="43" height="29"/>
    <text id="LabelC" class="C Label" x="105.5" y="125.5" style="text-anchor:start;">C</text>
    <path style="fill:none" d="M 90.5,123.5 H 97.5" id="LeaderC" class="Leader C"/>
  </g>
  <g>
    <rect id="ButtonD" class="D Button" x="36" y="143" width="43" height="29"/>
    <text id="LabelD" class="D Label" x="105.5" y="159.5" style="text-anchor:start;">D</text>
    <path style="fill:none" d="M 90.5,157.5 H 97.5" id="LeaderD" class="Leader D"/>
  </g>
  <g>
    <rect id="ButtonE" class="E Button" x="36" y="258" width="43" height="29"/>
    <text id="LabelE" class="E Label" x="105.5" y="274.5" style="text-anchor:start;">E</text>
    <path style="fill:none" d="M 90.5,272.5 H 97.5" id="LeaderE" class="Leader E"/>
  </g>
  <g>
    <rect id="ButtonF" class="F Button" x="36" y="292" width="43" height="29"/>
    <text id="LabelF" class="F Label" x="105.5" y="308.5" style="text-anchor:start;">F</text>
    <path style="fill:none" d="M 90.5,306.5 H 97.5" id="LeaderF" class="Leader F"/>
  </g>
  <g>
    <rect id="ButtonG" class="G Button" x="36" y="326" width="43" height="29"/>
    <text id="LabelG" class="G Label" x="105.5" y="342.5" style="text-anchor:start;">G</text>
    <path style="fill:none" d="M 90.5,340.5 H 97.5" id="LeaderG" class="Leader G"/>
  </g>
  <g>
    <rect id="ButtonH" class="H Button" x="36" y="360" width="43" height="29"/>
    <text id="LabelH" class="H Label" x="105.5" y="376.5" style="text-anchor:start;">H</text>
    <path style="fill:none" d="M 90.5,374.5 H 97.5" id="LeaderH" class="Leader H"/>
  </g>
  <g>
    <rect id="ButtonI" class="I Button" x="20" y="178" width="74" height="74"/>
    <text id="LabelI" class="I Label" x="105.0" y="217" style="text-anchor:start;">I</text>
    <path style="fill:none" d="M 90.0,215.0 H 97.0" id="LeaderI" class="Leader I"/>
  </g>
</svg>
