<?xml version="1.0" standalone="no"?>
<!DOCTYPE svg PUBLIC "-//W3C//DTD SVG 1.1//EN" "http://www.w3.org/Graphics/SVG/1.1/DTD/svg11.dtd">
<svg xmlns="http://www.w3.org/2000/svg" version="1.1" style="color:#000000;stroke:#7f7f7f;fill:none;stroke-width:.25;font-size:8" id="gaomon-m1230" width="750" height="437">
  <title id="title">M1230</title>
  <rect x="118" y="30" width="547" height="369"/>
  <g>
    <rect id="ButtonA" class="A Button" x="45" y="48" width="35" height="27"/>
    <text id="LabelA" class="A Label" x="100.5" y="63.5" style="text-anchor:start;">A</text>
    <path style="fill:none" d="M 85.5,61.5 H 92.5" id="LeaderA" class="Leader A"/>
  </g>
  <g>
    <rect id="ButtonB" class="B Button" x="45" y="77" width="35" height="27"/>
    <text id="LabelB" class="B Label" x="100.5" y="92.5" style="text-anchor:start;">B</text>
    <path style="fill:none" d="M 85.5,90.5 H 92.5" id="LeaderB" class="Leader B"/>
  </g>
  <g>
    <rect id="ButtonC" class="C Button" x="45" y="106" width="35" height="27"/>
    <text id="LabelC" class="C Label" x="100.5" y="121.5" style="text-anchor:start;">C</text>
    <path style="fill:none" d="M 85.5,119.5 H 92.5" id="LeaderC" class="Leader C"/>
  </g>
  <g>
    <rect id="ButtonD" class="D Button" x="45" y="136" width="35" height="27"/>
    <text id="LabelD" class="D Label" x="100.5" y="151.5" style="text-anchor:start;">D</text>
    <path style="fill:none" d="M 85.5,149.5 H 92.5" id="LeaderD" class="Leader D"/>
  </g>
  <g>
    <rect id="ButtonE" class="E Button" x="45" y="180" width="35" height="20"/>
    <text id="LabelE" class="E Label" x="100.5" y="192" style="text-anchor:start;">E</text>
    <path style="fill:none" d="M 85.5,190.0 H 92.5" id="LeaderE" class="Leader E"/>
  </g>
  <g>
    <rect id="ButtonF" class="F Button" x="22" y="203" width="20" height="35"/>
    <text id="LabelF" class="F Label" x="30" y="262.5" style="text-anchor:start;">F</text>
    <path style="fill:none" d="M 32.0,247.5 V 254.5" id="LeaderF" class="Leader F"/>
  </g>
  <g>
    <rect id="ButtonG" class="G Button" x="47" y="205" width="30" height="30"/>
    <text id="LabelG" class="G Label" x="100.0" y="222" style="text-anchor:start;">G</text>
    <path style="fill:none" d="M 85.0,220.0 H 92.0" id="LeaderG" class="Leader G"/>
  </g>
  <g>
    <rect id="ButtonH" class="H Button" x="83" y="203" width="20" height="35"/>
    <text id="LabelH" class="H Label" x="131.0" y="222.5" style="text-anchor:start;">H</text>
    <path style="fill:none" d="M 116.0,220.5 H 123.0" id="LeaderH" class="Leader H"/>
  </g>
  <g>
    <rect id="ButtonI" class="I Button" x="45" y="240" width="35" height="20"/>
    <text id="LabelI" class="I Label" x="100.5" y="252" style="text-anchor:start;">I</text>
    <path style="fill:none" d="M 85.5,250.0 H 92.5" id="LeaderI" class="Leader I"/>
  </g>
  <g>
    <rect id="ButtonJ" class="J Button" x="45" y="280" width="35" height="27"/>
    <text id="LabelJ" class="J Label" x="100.5" y="295.5" style="text-anchor:start;">J</text>
    <path style="fill:none" d="M 85.5,293.5 H 92.5" id="LeaderJ" class="Leader J"/>
  </g>
  <g>
    <rect id="ButtonK" class="K Button" x="45" y="308" width="35" height="27"/>
    <text id="LabelK" class="K Label" x="100.5" y="323.5" style="text-anchor:start;">K</text>
    <path style="fill:none" d="M 85.5,321.5 H 92.5" id="LeaderK" class="Leader K"/>
  </g>
  <g>
    <rect id="ButtonL" class="L Button" x="45" y="338" width="35" height="27"/>
    <text id="LabelL" class="L Label" x="100.5" y="353.5" style="text-anchor:start;">L</text>
    <path style="fill:none" d="M 85.5,351.5 H 92.5" id="LeaderL" class="Leader L"/>
  </g>
  <g>
    <rect id="ButtonM" class="M Button" x="45" y="367" width="35" height="27"/>
    <text id="LabelM" class="M Label" x="100.5" y="382.5" style="text-anchor:start;">M</text>
    <path style="fill:none" d="M 85.5,380.5 H 92.5" id="LeaderM" class="Leader M"/>
  </g>
</svg>
