<?xml version="1.0" standalone="no"?>
<!DOCTYPE svg PUBLIC "-//W3C//DTD SVG 1.1//EN" "http://www.w3.org/Graphics/SVG/1.1/DTD/svg11.dtd">
<svg xmlns="http://www.w3.org/2000/svg" version="1.1" style="color:#000000;stroke:#7f7f7f;fill:none;stroke-width:.25;font-size:8" id="gaomon-m106k-pro" width="750" height="479">
  <title id="title">M106K PRO</title>
  <rect x="146" y="74" width="511" height="326"/>
  <g>
    <rect id="ButtonA" class="A Button" x="21" y="78" width="35" height="35"/>
    <text id="LabelA" class="A Label" x="6.5" y="97.5" style="text-anchor:start;">A</text>
    <path style="fill:none" d="M 24.5,95.5 H 16.5" id="LeaderA" class="Leader A"/>
  </g>
  <g>
    <rect id="ButtonB" class="B Button" x="74" y="78" width="35" height="35"/>
    <text id="LabelB" class="B Label" x="119.5" y="97.5" style="text-anchor:start;">B</text>
    <path style="fill:none" d="M 104.5,95.5 H 111.5" id="LeaderB" class="Leader B"/>
  </g>
  <g>
    <rect id="ButtonC" class="C Button" x="21" y="126" width="35" height="35"/>
    <text id="LabelC" class="C Label" x="6.5" y="145.5" style="text-anchor:start;">C</text>
    <path style="fill:none" d="M 24.5,143.5 H 16.5" id="LeaderC" class="Leader C"/>
  </g>
  <g>
    <rect id="ButtonD" class="D Button" x="74" y="126" width="35" height="35"/>
    <text id="LabelD" class="D Label" x="119.5" y="145.5" style="text-anchor:start;">D</text>
    <path style="fill:none" d="M 104.5,143.5 H 111.5" id="LeaderD" class="Leader D"/>
  </g>
  <g>
    <rect id="ButtonE" class="E Button" x="21" y="175" width="35" height="35"/>
    <text id="LabelE" class="E Label" x="6.5" y="194.5" style="text-anchor:start;">E</text>
    <path style="fill:none" d="M 24.5,192.5 H 16.5" id="LeaderE" class="Leader E"/>
  </g>
  <g>
    <rect id="ButtonF" class="F Button" x="74" y="175" width="35" height="35"/>
    <text id="LabelF" class="F Label" x="119.5" y="194.5" style="text-anchor:start;">F</text>
    <path style="fill:none" d="M 104.5,192.5 H 111.5" id="LeaderF" class="Leader F"/>
  </g>
  <g>
    <rect id="ButtonG" class="G Button" x="21" y="269" width="35" height="35"/>
    <text id="LabelG" class="G Label" x="6.5" y="288.5" style="text-anchor:start;">G</text>
    <path style="fill:none" d="M 24.5,286.5 H 16.5" id="LeaderG" class="Leader G"/>
  </g>
  <g>
    <rect id="ButtonH" class="H Button" x="74" y="269" width="35" height="35"/>
    <text id="LabelH" class="H Label" x="119.5" y="288.5" style="text-anchor:start;">H</text>
    <path style="fill:none" d="M 104.5,286.5 H 111.5" id="LeaderH" class="Leader H"/>
  </g>
  <g>
    <rect id="ButtonI" class="I Button" x="21" y="318" width="35" height="35"/>
    <text id="LabelI" class="I Label" x="6.5" y="337.5" style="text-anchor:start;">I</text>
    <path style="fill:none" d="M 24.5,335.5 H 16.5" id="LeaderI" class="Leader I"/>
  </g>
  <g>
    <rect id="ButtonJ" class="J Button" x="74" y="318" width="35" height="35"/>
    <text id="LabelJ" class="J Label" x="119.5" y="337.5" style="text-anchor:start;">J</text>
    <path style="fill:none" d="M 104.5,335.5 H 111.5" id="LeaderJ" class="Leader J"/>
  </g>
  <g>
    <rect id="ButtonK" class="K Button" x="21" y="366" width="35" height="35"/>
    <text id="LabelK" class="K Label" x="6.5" y="385.5" style="text-anchor:start;">K</text>
    <path style="fill:none" d="M 24.5,383.5 H 16.5" id="LeaderK" class="Leader K"/>
  </g>
  <g>
    <rect id="ButtonL" class="L Button" x="74" y="366" width="35" height="35"/>
    <text id="LabelL" class="L Label" x="119.5" y="385.5" style="text-anchor:start;">L</text>
    <path style="fill:none" d="M 104.5,383.5 H 111.5" id="LeaderL" class="Leader L"/>
  </g>
</svg>
