<?xml version='1.0' encoding='ASCII'?>
<!DOCTYPE svg PUBLIC "-//W3C//DTD SVG 1.1//EN" "http://www.w3.org/Graphics/SVG/1.1/DTD/svg11.dtd">
<svg xmlns="http://www.w3.org/2000/svg" version="1.1" style="color:#000000;stroke:#7f7f7f;fill:none;stroke-width:.25;font-size:8" id="gaomon-pd1561gd" width="750" height="418">
  <title id="title">PD1561(GD)</title>
  <rect x="129" y="47" width="572" height="324"/>
  <g>
    <rect id="ButtonA" class="A Button" x="30" y="77" width="40" height="20"/>
    <text id="LabelA" class="A Label" x="98.0" y="89" style="text-anchor:start;">A</text>
    <path style="fill:none" d="M 83.0,87.0 H 90.0" id="LeaderA" class="Leader A"/>
  </g>
  <g>
    <rect id="ButtonB" class="B Button" x="30" y="102" width="40" height="20"/>
    <text id="LabelB" class="B Label" x="98.0" y="114" style="text-anchor:start;">B</text>
    <path style="fill:none" d="M 83.0,112.0 H 90.0" id="LeaderB" class="Leader B"/>
  </g>
  <g>
    <rect id="ButtonC" class="C Button" x="30" y="128" width="40" height="20"/>
    <text id="LabelC" class="C Label" x="98.0" y="140" style="text-anchor:start;">C</text>
    <path style="fill:none" d="M 83.0,138.0 H 90.0" id="LeaderC" class="Leader C"/>
  </g>
  <g>
    <rect id="ButtonD" class="D Button" x="30" y="155" width="40" height="20"/>
    <text id="LabelD" class="D Label" x="98.0" y="167" style="text-anchor:start;">D</text>
    <path style="fill:none" d="M 83.0,165.0 H 90.0" id="LeaderD" class="Leader D"/>
  </g>
  <g>
    <rect id="ButtonE" class="E Button" x="33" y="190" width="34" height="14"/>
    <text id="LabelE" class="E Label" x="98.0" y="199" style="text-anchor:start;">E</text>
    <path style="fill:none" d="M 83.0,197.0 H 90.0" id="LeaderE" class="Leader E"/>
  </g>
  <g>
    <rect id="ButtonF" class="F Button" x="33" y="213" width="34" height="14"/>
    <text id="LabelF" class="F Label" x="98.0" y="222" style="text-anchor:start;">F</text>
    <path style="fill:none" d="M 83.0,220.0 H 90.0" id="LeaderF" class="Leader F"/>
  </g>
  <g>
    <rect id="ButtonG" class="G Button" x="30" y="243" width="40" height="20"/>
    <text id="LabelG" class="G Label" x="98.0" y="255" style="text-anchor:start;">G</text>
    <path style="fill:none" d="M 83.0,253.0 H 90.0" id="LeaderG" class="Leader G"/>
  </g>
  <g>
    <rect id="ButtonH" class="H Button" x="30" y="270" width="40" height="20"/>
    <text id="LabelH" class="H Label" x="98.0" y="282" style="text-anchor:start;">H</text>
    <path style="fill:none" d="M 83.0,280.0 H 90.0" id="LeaderH" class="Leader H"/>
  </g>
  <g>
    <rect id="ButtonI" class="I Button" x="30" y="297" width="40" height="20"/>
    <text id="LabelI" class="I Label" x="98.0" y="309" style="text-anchor:start;">I</text>
    <path style="fill:none" d="M 83.0,307.0 H 90.0" id="LeaderI" class="Leader I"/>
  </g>
  <g>
    <rect id="ButtonJ" class="J Button" x="30" y="323" width="40" height="20"/>
    <text id="LabelJ" class="J Label" x="98.0" y="335" style="text-anchor:start;">J</text>
    <path style="fill:none" d="M 83.0,333.0 H 90.0" id="LeaderJ" class="Leader J"/>
  </g>
</svg>
