<?xml version='1.0' encoding='ASCII'?>
<!DOCTYPE svg PUBLIC "-//W3C//DTD SVG 1.1//EN" "http://www.w3.org/Graphics/SVG/1.1/DTD/svg11.dtd">
<svg xmlns="http://www.w3.org/2000/svg" version="1.1" style="color:#000000;stroke:#7f7f7f;fill:none;stroke-width:.25;font-size:8" id="gaomon-t01" width="750" height="440">
  <title id="title">T01</title>
  <rect x="163" y="53" width="535" height="335"/>
  <g>
    <rect id="ButtonA" class="A Button" x="22" y="93" width="42" height="33"/>
    <text id="LabelA" class="A Label" x="91.0" y="111.5" style="text-anchor:start;">A</text>
    <path style="fill:none" d="M 76.0,109.5 H 83.0" id="LeaderA" class="Leader A"/>
  </g>
  <g>
    <rect id="ButtonB" class="B Button" x="22" y="134" width="42" height="33"/>
    <text id="LabelB" class="B Label" x="91.0" y="152.5" style="text-anchor:start;">B</text>
    <path style="fill:none" d="M 76.0,150.5 H 83.0" id="LeaderB" class="Leader B"/>
  </g>
  <g>
    <rect id="ButtonC" class="C Button" x="22" y="175" width="42" height="33"/>
    <text id="LabelC" class="C Label" x="91.0" y="193.5" style="text-anchor:start;">C</text>
    <path style="fill:none" d="M 76.0,191.5 H 83.0" id="LeaderC" class="Leader C"/>
  </g>
  <g>
    <rect id="ButtonD" class="D Button" x="22" y="216" width="42" height="33"/>
    <text id="LabelD" class="D Label" x="91.0" y="234.5" style="text-anchor:start;">D</text>
    <path style="fill:none" d="M 76.0,232.5 H 83.0" id="LeaderD" class="Leader D"/>
  </g>
  <g>
    <rect id="ButtonE" class="E Button" x="22" y="257" width="42" height="33"/>
    <text id="LabelE" class="E Label" x="91.0" y="275.5" style="text-anchor:start;">E</text>
    <path style="fill:none" d="M 76.0,273.5 H 83.0" id="LeaderE" class="Leader E"/>
  </g>
  <g>
    <rect id="ButtonF" class="F Button" x="22" y="299" width="42" height="33"/>
    <text id="LabelF" class="F Label" x="91.0" y="317.5" style="text-anchor:start;">F</text>
    <path style="fill:none" d="M 76.0,315.5 H 83.0" id="LeaderF" class="Leader F"/>
  </g>
  <g>
    <rect id="ButtonG" class="G Button" x="22" y="340" width="42" height="33"/>
    <text id="LabelG" class="G Label" x="91.0" y="358.5" style="text-anchor:start;">G</text>
    <path style="fill:none" d="M 76.0,356.5 H 83.0" id="LeaderG" class="Leader G"/>
  </g>
  <g>
    <rect id="ButtonH" class="H Button" x="22" y="382" width="42" height="33"/>
    <text id="LabelH" class="H Label" x="91.0" y="400.5" style="text-anchor:start;">H</text>
    <path style="fill:none" d="M 76.0,398.5 H 83.0" id="LeaderH" class="Leader H"/>
  </g>
  <g>
    <rect id="ButtonI" class="I Button" x="29" y="29" width="28" height="28"/>
    <text id="LabelI" class="I Label" x="91.0" y="45" style="text-anchor:start;">I</text>
    <path style="fill:none" d="M 76.0,43.0 H 83.0" id="LeaderI" class="Leader I"/>
  </g>
</svg>
