<?xml version="1.0" standalone="no"?>
<!DOCTYPE svg PUBLIC "-//W3C//DTD SVG 1.1//EN" "http://www.w3.org/Graphics/SVG/1.1/DTD/svg11.dtd">
<svg xmlns="http://www.w3.org/2000/svg" version="1.1" style="color:#000000;stroke:#7f7f7f;fill:none;stroke-width:.25;font-size:8" id="gaomon-m62022" width="750" height="440">
  <title id="title">M6(2022)</title>
  <rect x="156" y="39" width="552" height="355"/>
  <g>
    <rect id="ButtonA" class="A Button" x="50" y="76" width="27" height="27"/>
    <text id="LabelA" class="A Label" x="101.5" y="91.5" style="text-anchor:start;">A</text>
    <path style="fill:none" d="M 86.5,89.5 H 93.5" id="LeaderA" class="Leader A"/>
  </g>
  <g>
    <rect id="ButtonB" class="B Button" x="28" y="144" width="35" height="22"/>
    <text id="LabelB" class="B Label" x="3.5" y="157" style="text-anchor:start;">B</text>
    <path style="fill:none" d="M 21.5,155.0 H 13.5" id="LeaderB" class="Leader B"/>
  </g>
  <g>
    <rect id="ButtonC" class="C Button" x="65" y="144" width="35" height="22"/>
    <text id="LabelC" class="C Label" x="120.5" y="157" style="text-anchor:start;">C</text>
    <path style="fill:none" d="M 105.5,155.0 H 112.5" id="LeaderC" class="Leader C"/>
  </g>
  <g>
    <rect id="ButtonD" class="D Button" x="28" y="172" width="35" height="22"/>
    <text id="LabelD" class="D Label" x="3.5" y="185" style="text-anchor:start;">D</text>
    <path style="fill:none" d="M 21.5,183.0 H 13.5" id="LeaderD" class="Leader D"/>
  </g>
  <g>
    <rect id="ButtonE" class="E Button" x="65" y="172" width="35" height="22"/>
    <text id="LabelE" class="E Label" x="120.5" y="185" style="text-anchor:start;">E</text>
    <path style="fill:none" d="M 105.5,183.0 H 112.5" id="LeaderE" class="Leader E"/>
  </g>
  <g>
    <rect id="ButtonF" class="F Button" x="28" y="199" width="35" height="22"/>
    <text id="LabelF" class="F Label" x="3.5" y="212" style="text-anchor:start;">F</text>
    <path style="fill:none" d="M 21.5,210.0 H 13.5" id="LeaderF" class="Leader F"/>
  </g>
  <g>
    <rect id="ButtonG" class="G Button" x="65" y="200" width="35" height="22"/>
    <text id="LabelG" class="G Label" x="120.5" y="213" style="text-anchor:start;">G</text>
    <path style="fill:none" d="M 105.5,211.0 H 112.5" id="LeaderG" class="Leader G"/>
  </g>
  <g>
    <rect id="ButtonH" class="H Button" x="28" y="226" width="35" height="22"/>
    <text id="LabelH" class="H Label" x="3.5" y="239" style="text-anchor:start;">H</text>
    <path style="fill:none" d="M 21.5,237.0 H 13.5" id="LeaderH" class="Leader H"/>
  </g>
  <g>
    <rect id="ButtonI" class="I Button" x="65" y="227" width="35" height="22"/>
    <text id="LabelI" class="I Label" x="120.5" y="240" style="text-anchor:start;">I</text>
    <path style="fill:none" d="M 105.5,238.0 H 112.5" id="LeaderI" class="Leader I"/>
  </g>
  <g>
    <rect id="ButtonJ" class="J Button" x="28" y="251" width="35" height="22"/>
    <text id="LabelJ" class="J Label" x="3.5" y="264" style="text-anchor:start;">J</text>
    <path style="fill:none" d="M 21.5,262.0 H 13.5" id="LeaderJ" class="Leader J"/>
  </g>
  <g>
    <rect id="ButtonK" class="K Button" x="65" y="252" width="35" height="22"/>
    <text id="LabelK" class="K Label" x="120.5" y="265" style="text-anchor:start;">K</text>
    <path style="fill:none" d="M 105.5,263.0 H 112.5" id="LeaderK" class="Leader K"/>
  </g>
  <g>
    <rect id="ButtonL" class="L Button" x="28" y="276" width="35" height="22"/>
    <text id="LabelL" class="L Label" x="3.5" y="289" style="text-anchor:start;">L</text>
    <path style="fill:none" d="M 21.5,287.0 H 13.5" id="LeaderL" class="Leader L"/>
  </g>
  <g>
    <rect id="ButtonM" class="M Button" x="65" y="276" width="35" height="22"/>
    <text id="LabelM" class="M Label" x="120.5" y="289" style="text-anchor:start;">M</text>
    <path style="fill:none" d="M 105.5,287.0 H 112.5" id="LeaderM" class="Leader M"/>
  </g>
</svg>
