<?xml version='1.0' encoding='ASCII'?>
<!DOCTYPE svg PUBLIC "-//W3C//DTD SVG 1.1//EN" "http://www.w3.org/Graphics/SVG/1.1/DTD/svg11.dtd">
<svg xmlns="http://www.w3.org/2000/svg" version="1.1" style="color:#000000;stroke:#7f7f7f;fill:none;stroke-width:.25;font-size:8" id="gaomon-m1220" width="750" height="469">
  <title id="title">M1220</title>
  <rect x="135" y="66" width="569" height="359"/>
  <g>
    <rect id="ButtonA" class="A Button" x="48" y="64" width="48" height="20"/>
    <text id="LabelA" class="A Label" x="120" y="76" style="text-anchor:start;">A</text>
    <path style="fill:none" d="M 105,74 H 112" id="LeaderA" class="Leader A"/>
  </g>
  <g>
    <rect id="ButtonB" class="B Button" x="48" y="98" width="48" height="20"/>
    <text id="LabelB" class="B Label" x="120" y="110" style="text-anchor:start;">B</text>
    <path style="fill:none" d="M 105,108 H 112" id="LeaderB" class="Leader B"/>
  </g>
  <g>
    <rect id="ButtonC" class="C Button" x="48" y="131" width="48" height="20"/>
    <text id="LabelC" class="C Label" x="120" y="143" style="text-anchor:start;">C</text>
    <path style="fill:none" d="M 105,141 H 112" id="LeaderC" class="Leader C"/>
  </g>
  <g>
    <rect id="ButtonD" class="D Button" x="48" y="164" width="48" height="20"/>
    <text id="LabelD" class="D Label" x="120" y="176" style="text-anchor:start;">D</text>
    <path style="fill:none" d="M 105,174 H 112" id="LeaderD" class="Leader D"/>
  </g>
  <g>
    <rect id="ButtonE" class="E Button" x="49" y="310" width="48" height="20"/>
    <text id="LabelE" class="E Label" x="121" y="322" style="text-anchor:start;">E</text>
    <path style="fill:none" d="M 106,320 H 113" id="LeaderE" class="Leader E"/>
  </g>
  <g>
    <rect id="ButtonF" class="F Button" x="49" y="343" width="48" height="20"/>
    <text id="LabelF" class="F Label" x="121" y="355" style="text-anchor:start;">F</text>
    <path style="fill:none" d="M 106,353 H 113" id="LeaderF" class="Leader F"/>
  </g>
  <g>
    <rect id="ButtonG" class="G Button" x="49" y="376" width="48" height="20"/>
    <text id="LabelG" class="G Label" x="121" y="388" style="text-anchor:start;">G</text>
    <path style="fill:none" d="M 106,386 H 113" id="LeaderG" class="Leader G"/>
  </g>
  <g>
    <rect id="ButtonH" class="H Button" x="49" y="409" width="48" height="20"/>
    <text id="LabelH" class="H Label" x="121" y="421" style="text-anchor:start;">H</text>
    <path style="fill:none" d="M 106,419 H 113" id="LeaderH" class="Leader H"/>
  </g>
  <g>
    <rect id="ButtonI" class="I Button" x="56" y="229" width="34" height="34"/>
    <text id="LabelI" class="I Label" x="121" y="248" style="text-anchor:start;">I</text>
    <path style="fill:none" d="M 106,246 H 113" id="LeaderI" class="Leader I"/>
  </g>
</svg>
