<?xml version='1.0' encoding='ASCII'?>
<!DOCTYPE svg PUBLIC "-//W3C//DTD SVG 1.1//EN" "http://www.w3.org/Graphics/SVG/1.1/DTD/svg11.dtd">
<svg xmlns="http://www.w3.org/2000/svg" version="1.1" style="color:#000000;stroke:#7f7f7f;fill:none;stroke-width:.25;font-size:8" id="gaomon-g12" width="750" height="429">
  <title id="title">G12</title>
  <rect x="134" y="56" width="557" height="314"/>
  <g>
    <rect id="ButtonA" class="A Button" x="36" y="58" width="35" height="20"/>
    <text id="LabelA" class="A Label" x="101.5" y="70" style="text-anchor:start;">A</text>
    <path style="fill:none" d="M 86.5,68.0 H 93.5" id="LeaderA" class="Leader A"/>
  </g>
  <g>
    <rect id="ButtonB" class="B Button" x="36" y="90" width="35" height="20"/>
    <text id="LabelB" class="B Label" x="101.5" y="102" style="text-anchor:start;">B</text>
    <path style="fill:none" d="M 86.5,100.0 H 93.5" id="LeaderB" class="Leader B"/>
  </g>
  <g>
    <rect id="ButtonC" class="C Button" x="36" y="122" width="35" height="20"/>
    <text id="LabelC" class="C Label" x="101.5" y="134" style="text-anchor:start;">C</text>
    <path style="fill:none" d="M 86.5,132.0 H 93.5" id="LeaderC" class="Leader C"/>
  </g>
  <g>
    <rect id="ButtonD" class="D Button" x="36" y="154" width="35" height="20"/>
    <text id="LabelD" class="D Label" x="101.5" y="166" style="text-anchor:start;">D</text>
    <path style="fill:none" d="M 86.5,164.0 H 93.5" id="LeaderD" class="Leader D"/>
  </g>
  <g>
    <rect id="ButtonE" class="E Button" x="36" y="253" width="35" height="20"/>
    <text id="LabelE" class="E Label" x="101.5" y="265" style="text-anchor:start;">E</text>
    <path style="fill:none" d="M 86.5,263.0 H 93.5" id="LeaderE" class="Leader E"/>
  </g>
  <g>
    <rect id="ButtonF" class="F Button" x="36" y="285" width="35" height="20"/>
    <text id="LabelF" class="F Label" x="101.5" y="297" style="text-anchor:start;">F</text>
    <path style="fill:none" d="M 86.5,295.0 H 93.5" id="LeaderF" class="Leader F"/>
  </g>
  <g>
    <rect id="ButtonG" class="G Button" x="36" y="318" width="35" height="20"/>
    <text id="LabelG" class="G Label" x="101.5" y="330" style="text-anchor:start;">G</text>
    <path style="fill:none" d="M 86.5,328.0 H 93.5" id="LeaderG" class="Leader G"/>
  </g>
  <g>
    <rect id="ButtonH" class="H Button" x="36" y="350" width="35" height="20"/>
    <text id="LabelH" class="H Label" x="101.5" y="362" style="text-anchor:start;">H</text>
    <path style="fill:none" d="M 86.5,360.0 H 93.5" id="LeaderH" class="Leader H"/>
  </g>
  <g>
    <rect id="ButtonI" class="I Button" x="37" y="198" width="30" height="30"/>
    <text id="LabelI" class="I Label" x="100.0" y="215" style="text-anchor:start;">I</text>
    <path style="fill:none" d="M 85.0,213.0 H 92.0" id="LeaderI" class="Leader I"/>
  </g>
</svg>
