<?xml version='1.0' encoding='ASCII'?>
<!DOCTYPE svg PUBLIC "-//W3C//DTD SVG 1.1//EN" "http://www.w3.org/Graphics/SVG/1.1/DTD/svg11.dtd">
<svg xmlns="http://www.w3.org/2000/svg" version="1.1" style="color:#000000;stroke:#7f7f7f;fill:none;stroke-width:.25;font-size:8" id="gaomon-m10k-pro" width="750" height="478">
  <title id="title">M10K PRO</title>
  <rect x="143" y="78" width="512" height="322"/>
  <g>
    <rect id="ButtonA" class="A Button" x="39" y="59" width="50" height="20"/>
    <text id="LabelA" class="A Label" x="112.0" y="71" style="text-anchor:start;">A</text>
    <path style="fill:none" d="M 97.0,69.0 H 104.0" id="LeaderA" class="Leader A"/>
  </g>
  <g>
    <rect id="ButtonB" class="B Button" x="39" y="87" width="50" height="20"/>
    <text id="LabelB" class="B Label" x="112.0" y="99" style="text-anchor:start;">B</text>
    <path style="fill:none" d="M 97.0,97.0 H 104.0" id="LeaderB" class="Leader B"/>
  </g>
  <g>
    <rect id="ButtonC" class="C Button" x="39" y="112" width="50" height="20"/>
    <text id="LabelC" class="C Label" x="112.0" y="124" style="text-anchor:start;">C</text>
    <path style="fill:none" d="M 97.0,122.0 H 104.0" id="LeaderC" class="Leader C"/>
  </g>
  <g>
    <rect id="ButtonD" class="D Button" x="39" y="136" width="50" height="20"/>
    <text id="LabelD" class="D Label" x="112.0" y="148" style="text-anchor:start;">D</text>
    <path style="fill:none" d="M 97.0,146.0 H 104.0" id="LeaderD" class="Leader D"/>
  </g>
  <g>
    <rect id="ButtonE" class="E Button" x="39" y="161" width="50" height="20"/>
    <text id="LabelE" class="E Label" x="112.0" y="173" style="text-anchor:start;">E</text>
    <path style="fill:none" d="M 97.0,171.0 H 104.0" id="LeaderE" class="Leader E"/>
  </g>
  <g>
    <rect id="ButtonF" class="F Button" x="39" y="295" width="50" height="20"/>
    <text id="LabelF" class="F Label" x="112.0" y="307" style="text-anchor:start;">F</text>
    <path style="fill:none" d="M 97.0,305.0 H 104.0" id="LeaderF" class="Leader F"/>
  </g>
  <g>
    <rect id="ButtonG" class="G Button" x="39" y="322" width="50" height="20"/>
    <text id="LabelG" class="G Label" x="112.0" y="334" style="text-anchor:start;">G</text>
    <path style="fill:none" d="M 97.0,332.0 H 104.0" id="LeaderG" class="Leader G"/>
  </g>
  <g>
    <rect id="ButtonH" class="H Button" x="39" y="347" width="50" height="20"/>
    <text id="LabelH" class="H Label" x="112.0" y="359" style="text-anchor:start;">H</text>
    <path style="fill:none" d="M 97.0,357.0 H 104.0" id="LeaderH" class="Leader H"/>
  </g>
  <g>
    <rect id="ButtonI" class="I Button" x="39" y="372" width="50" height="20"/>
    <text id="LabelI" class="I Label" x="112.0" y="384" style="text-anchor:start;">I</text>
    <path style="fill:none" d="M 97.0,382.0 H 104.0" id="LeaderI" class="Leader I"/>
  </g>
  <g>
    <rect id="ButtonJ" class="J Button" x="39" y="397" width="50" height="20"/>
    <text id="LabelJ" class="J Label" x="112.0" y="409" style="text-anchor:start;">J</text>
    <path style="fill:none" d="M 97.0,407.0 H 104.0" id="LeaderJ" class="Leader J"/>
  </g>
  <g>
    <rect id="ButtonK" class="K Button" x="47" y="221" width="35" height="35"/>
    <text id="LabelK" class="K Label" x="112.5" y="240.5" style="text-anchor:start;">K</text>
    <path style="fill:none" d="M 97.5,238.5 H 104.5" id="LeaderK" class="Leader K"/>
  </g>
</svg>
