<?xml version='1.0' encoding='ASCII'?>
<!DOCTYPE svg PUBLIC "-//W3C//DTD SVG 1.1//EN" "http://www.w3.org/Graphics/SVG/1.1/DTD/svg11.dtd">
<svg xmlns="http://www.w3.org/2000/svg" version="1.1" style="color:#000000;stroke:#7f7f7f;fill:none;stroke-width:.25;font-size:8" id="gaomon-g22" width="750" height="470">
  <title id="title">G22</title>
  <rect x="32" y="31" width="684" height="386"/>
  <g>
    <rect id="ButtonA" class="A Button" x="7" y="29" width="15" height="15"/>
    <text id="LabelA" class="A Label" x="62.5" y="38.5" style="text-anchor:start;">A</text>
    <path style="fill:none" d="M 47.5,36.5 H 54.5" id="LeaderA" class="Leader A"/>
  </g>
  <g>
    <rect id="ButtonB" class="B Button" x="7" y="51" width="15" height="15"/>
    <text id="LabelB" class="B Label" x="62.5" y="60.5" style="text-anchor:start;">B</text>
    <path style="fill:none" d="M 47.5,58.5 H 54.5" id="LeaderB" class="Leader B"/>
  </g>
  <g>
    <rect id="ButtonC" class="C Button" x="7" y="72" width="15" height="15"/>
    <text id="LabelC" class="C Label" x="62.5" y="81.5" style="text-anchor:start;">C</text>
    <path style="fill:none" d="M 47.5,79.5 H 54.5" id="LeaderC" class="Leader C"/>
  </g>
  <g>
    <rect id="ButtonD" class="D Button" x="7" y="93" width="15" height="15"/>
    <text id="LabelD" class="D Label" x="62.5" y="102.5" style="text-anchor:start;">D</text>
    <path style="fill:none" d="M 47.5,100.5 H 54.5" id="LeaderD" class="Leader D"/>
  </g>
  <g>
    <rect id="ButtonE" class="E Button" x="7" y="115" width="15" height="15"/>
    <text id="LabelE" class="E Label" x="62.5" y="124.5" style="text-anchor:start;">E</text>
    <path style="fill:none" d="M 47.5,122.5 H 54.5" id="LeaderE" class="Leader E"/>
  </g>
  <g>
    <rect id="ButtonF" class="F Button" x="7" y="136" width="15" height="15"/>
    <text id="LabelF" class="F Label" x="62.5" y="145.5" style="text-anchor:start;">F</text>
    <path style="fill:none" d="M 47.5,143.5 H 54.5" id="LeaderF" class="Leader F"/>
  </g>
  <g>
    <rect id="ButtonG" class="G Button" x="7" y="159" width="15" height="15"/>
    <text id="LabelG" class="G Label" x="62.5" y="168.5" style="text-anchor:start;">G</text>
    <path style="fill:none" d="M 47.5,166.5 H 54.5" id="LeaderG" class="Leader G"/>
  </g>
  <g>
    <rect id="ButtonH" class="H Button" x="7" y="180" width="15" height="15"/>
    <text id="LabelH" class="H Label" x="62.5" y="189.5" style="text-anchor:start;">H</text>
    <path style="fill:none" d="M 47.5,187.5 H 54.5" id="LeaderH" class="Leader H"/>
  </g>
</svg>
