<?xml version="1.0" standalone="no"?>
<!DOCTYPE svg PUBLIC "-//W3C//DTD SVG 1.1//EN" "http://www.w3.org/Graphics/SVG/1.1/DTD/svg11.dtd">
<svg xmlns="http://www.w3.org/2000/svg" version="1.1" style="color:#000000;stroke:#7f7f7f;fill:none;stroke-width:.25;font-size:8" id="gaomon-m7" width="750" height="437">
  <title id="title">M7</title>
  <rect x="118" y="29" width="547" height="371"/>
  <g>
    <rect id="ButtonA" class="A Button" x="45" y="49" width="35" height="25"/>
    <text id="LabelA" class="A Label" x="100.5" y="63.5" style="text-anchor:start;">A</text>
    <path style="fill:none" d="M 85.5,61.5 H 92.5" id="LeaderA" class="Leader A"/>
  </g>
  <g>
    <rect id="ButtonB" class="B Button" x="45" y="78" width="35" height="25"/>
    <text id="LabelB" class="B Label" x="100.5" y="92.5" style="text-anchor:start;">B</text>
    <path style="fill:none" d="M 85.5,90.5 H 92.5" id="LeaderB" class="Leader B"/>
  </g>
  <g>
    <rect id="ButtonC" class="C Button" x="45" y="108" width="35" height="25"/>
    <text id="LabelC" class="C Label" x="100.5" y="122.5" style="text-anchor:start;">C</text>
    <path style="fill:none" d="M 85.5,120.5 H 92.5" id="LeaderC" class="Leader C"/>
  </g>
  <g>
    <rect id="ButtonD" class="D Button" x="45" y="136" width="35" height="25"/>
    <text id="LabelD" class="D Label" x="100.5" y="150.5" style="text-anchor:start;">D</text>
    <path style="fill:none" d="M 85.5,148.5 H 92.5" id="LeaderD" class="Leader D"/>
  </g>
  <g>
    <rect id="ButtonE" class="E Button" x="44" y="179" width="35" height="20"/>
    <text id="LabelE" class="E Label" x="99.5" y="191" style="text-anchor:start;">E</text>
    <path style="fill:none" d="M 84.5,189.0 H 91.5" id="LeaderE" class="Leader E"/>
  </g>
  <g>
    <rect id="ButtonF" class="F Button" x="21" y="204" width="20" height="35"/>
    <text id="LabelF" class="F Label" x="29" y="263.5" style="text-anchor:start;">F</text>
    <path style="fill:none" d="M 31.0,248.5 V 255.5" id="LeaderF" class="Leader F"/>
  </g>
  <g>
    <rect id="ButtonG" class="G Button" x="47" y="205" width="30" height="30"/>
    <text id="LabelG" class="G Label" x="80.0" y="222" style="text-anchor:start;">G</text>
    <path style="fill:none" d="M 65.0,220.0 H 72.0" id="LeaderG" class="Leader G"/>
  </g>
  <g>
    <rect id="ButtonH" class="H Button" x="84" y="204" width="20" height="35"/>
    <text id="LabelH" class="H Label" x="132.0" y="223.5" style="text-anchor:start;">H</text>
    <path style="fill:none" d="M 117.0,221.5 H 124.0" id="LeaderH" class="Leader H"/>
  </g>
  <g>
    <rect id="ButtonI" class="I Button" x="45" y="241" width="35" height="20"/>
    <text id="LabelI" class="I Label" x="100.5" y="253" style="text-anchor:start;">I</text>
    <path style="fill:none" d="M 85.5,251.0 H 92.5" id="LeaderI" class="Leader I"/>
  </g>
  <g>
    <rect id="ButtonJ" class="J Button" x="45" y="281" width="35" height="25"/>
    <text id="LabelJ" class="J Label" x="100.5" y="295.5" style="text-anchor:start;">J</text>
    <path style="fill:none" d="M 85.5,293.5 H 92.5" id="LeaderJ" class="Leader J"/>
  </g>
  <g>
    <rect id="ButtonK" class="K Button" x="45" y="310" width="35" height="25"/>
    <text id="LabelK" class="K Label" x="100.5" y="324.5" style="text-anchor:start;">K</text>
    <path style="fill:none" d="M 85.5,322.5 H 92.5" id="LeaderK" class="Leader K"/>
  </g>
  <g>
    <rect id="ButtonL" class="L Button" x="45" y="339" width="35" height="25"/>
    <text id="LabelL" class="L Label" x="100.5" y="353.5" style="text-anchor:start;">L</text>
    <path style="fill:none" d="M 85.5,351.5 H 92.5" id="LeaderL" class="Leader L"/>
  </g>
  <g>
    <rect id="ButtonM" class="M Button" x="45" y="368" width="35" height="25"/>
    <text id="LabelM" class="M Label" x="100.5" y="382.5" style="text-anchor:start;">M</text>
    <path style="fill:none" d="M 85.5,380.5 H 92.5" id="LeaderM" class="Leader M"/>
  </g>
</svg>
