<?xml version="1.0" standalone="no"?>
<!DOCTYPE svg PUBLIC "-//W3C//DTD SVG 1.1//EN" "http://www.w3.org/Graphics/SVG/1.1/DTD/svg11.dtd">
<svg xmlns="http://www.w3.org/2000/svg" version="1.1" style="color:#000000;stroke:#7f7f7f;fill:none;stroke-width:.25;font-size:8" id="gaomon-m106k" width="750" height="498">
  <title id="title">M106K</title>
  <rect x="145" y="80" width="533" height="334"/>
  <g>
    <rect id="ButtonA" class="A Button" x="23" y="86" width="39" height="26"/>
    <text id="LabelA" class="A Label" x="10.5" y="101" style="text-anchor:start;">A</text>
    <path style="fill:none" d="M 28.5,99.0 H 20.5" id="LeaderA" class="Leader A"/>
  </g>
  <g>
    <rect id="ButtonB" class="B Button" x="69" y="86" width="39" height="26"/>
    <text id="LabelB" class="B Label" x="116.5" y="101" style="text-anchor:start;">B</text>
    <path style="fill:none" d="M 101.5,99.0 H 108.5" id="LeaderB" class="Leader B"/>
  </g>
  <g>
    <rect id="ButtonC" class="C Button" x="23" y="136" width="39" height="26"/>
    <text id="LabelC" class="C Label" x="10.5" y="151" style="text-anchor:start;">C</text>
    <path style="fill:none" d="M 28.5,149.0 H 20.5" id="LeaderC" class="Leader C"/>
  </g>
  <g>
    <rect id="ButtonD" class="D Button" x="69" y="136" width="39" height="26"/>
    <text id="LabelD" class="D Label" x="116.5" y="151" style="text-anchor:start;">D</text>
    <path style="fill:none" d="M 101.5,149.0 H 108.5" id="LeaderD" class="Leader D"/>
  </g>
  <g>
    <rect id="ButtonE" class="E Button" x="23" y="189" width="39" height="26"/>
    <text id="LabelE" class="E Label" x="10.5" y="204" style="text-anchor:start;">E</text>
    <path style="fill:none" d="M 28.5,202.0 H 20.5" id="LeaderE" class="Leader E"/>
  </g>
  <g>
    <rect id="ButtonF" class="F Button" x="69" y="189" width="39" height="26"/>
    <text id="LabelF" class="F Label" x="116.5" y="204" style="text-anchor:start;">F</text>
    <path style="fill:none" d="M 101.5,202.0 H 108.5" id="LeaderF" class="Leader F"/>
  </g>
  <g>
    <rect id="ButtonG" class="G Button" x="23" y="286" width="39" height="26"/>
    <text id="LabelG" class="G Label" x="10.5" y="301" style="text-anchor:start;">G</text>
    <path style="fill:none" d="M 28.5,299.0 H 20.5" id="LeaderG" class="Leader G"/>
  </g>
  <g>
    <rect id="ButtonH" class="H Button" x="69" y="286" width="39" height="26"/>
    <text id="LabelH" class="H Label" x="116.5" y="301" style="text-anchor:start;">H</text>
    <path style="fill:none" d="M 101.5,299.0 H 108.5" id="LeaderH" class="Leader H"/>
  </g>
  <g>
    <rect id="ButtonI" class="I Button" x="23" y="337" width="39" height="26"/>
    <text id="LabelI" class="I Label" x="10.5" y="352" style="text-anchor:start;">I</text>
    <path style="fill:none" d="M 28.5,350.0 H 20.5" id="LeaderI" class="Leader I"/>
  </g>
  <g>
    <rect id="ButtonJ" class="J Button" x="69" y="337" width="39" height="26"/>
    <text id="LabelJ" class="J Label" x="116.5" y="352" style="text-anchor:start;">J</text>
    <path style="fill:none" d="M 101.5,350.0 H 108.5" id="LeaderJ" class="Leader J"/>
  </g>
  <g>
    <rect id="ButtonK" class="K Button" x="23" y="386" width="39" height="26"/>
    <text id="LabelK" class="K Label" x="10.5" y="401" style="text-anchor:start;">K</text>
    <path style="fill:none" d="M 28.5,399.0 H 20.5" id="LeaderK" class="Leader K"/>
  </g>
  <g>
    <rect id="ButtonL" class="L Button" x="69" y="386" width="39" height="26"/>
    <text id="LabelL" class="L Label" x="116.5" y="401" style="text-anchor:start;">L</text>
    <path style="fill:none" d="M 101.5,399.0 H 108.5" id="LeaderL" class="Leader L"/>
  </g>
</svg>
