<?xml version="1.0" encoding="UTF-8" standalone="no"?>
<!DOCTYPE svg PUBLIC "-//W3C//DTD SVG 1.1//EN" "http://www.w3.org/Graphics/SVG/1.1/DTD/svg11.dtd">
<!--
 -->
<svg xmlns="http://www.w3.org/2000/svg" version="1.1" style="color:#000000;stroke:#7f7f7f;fill:none;stroke-width:.25;font-size:8" id="gaomon-s620" width="275" height="222">
  <title id="title">Gaomon S620</title>
  <g>
    <path id="ButtonA" class="A Button" d="M 36 2 l 42 0 l 0 19 l -42 0 z"/>
    <path id="LeaderA" class="A Leader" d="M 44,21.5 l 0,25 l 2,0"/>
    <text id="LabelA" class="A Label" x="48" y="50.5" style="text-anchor:start;">A</text>
  </g>

  <g>
    <path id="ButtonB" class="B Button" d="M 80,2 l 42,0 l 0,19 l -42,0 z"/>
    <path id="LeaderB" class="B Leader" d="M 84,22.5 l 0,10 l 2,0"/>
    <text id="LabelB" class="B Label" x="88" y="38" style="text-anchor:start;">B</text>
  </g>

  <g>
    <path id="ButtonC" class="C Button" d="M 124 2 l 42 0 l 0 19 l -42 0 z"/>
    <path id="LeaderC" class="C Leader" d="M 127 21 l 0 25 l 2 0"/>
    <text id="LabelC" class="C Label" x="134" y="50.5" style="text-anchor:end;">C</text>
  </g>

  <g>
    <path id="ButtonD" class="D Button" d="M 168 2 l 42 0 l 0 19 l -42 0 z"/>
    <path id="LeaderD" class="D Leader" d="M 171 21 l 0 10 l 2 0"/>
    <text id="LabelD" class="D Label" x="178.5" y="38" style="text-anchor:end;">D</text>
  </g>

</svg>
