<?xml version="1.0" standalone="no"?>
<!DOCTYPE svg PUBLIC "-//W3C//DTD SVG 1.1//EN" "http://www.w3.org/Graphics/SVG/1.1/DTD/svg11.dtd">
<svg xmlns="http://www.w3.org/2000/svg" version="1.1" style="color:#000000;stroke:#7f7f7f;fill:none;stroke-width:.25;font-size:8" id="gaomon-1061pro" width="750" height="480">
  <title id="title">1061Pro</title>
  <rect x="132" y="62" width="572" height="358"/>
  <g>
    <rect id="ButtonA" class="A Button" x="20" y="80" width="39" height="27"/>
    <text id="LabelA" class="A Label" x="-2.5" y="95.5" style="text-anchor:start;">A</text>
    <path style="fill:none" d="M 15.5,93.5 H 7.5" id="LeaderA" class="Leader A"/>
  </g>
  <g>
    <rect id="ButtonB" class="B Button" x="62" y="80" width="39" height="27"/>
    <text id="LabelB" class="B Label" x="119.5" y="95.5" style="text-anchor:start;">B</text>
    <path style="fill:none" d="M 104.5,93.5 H 111.5" id="LeaderB" class="Leader B"/>
  </g>
  <g>
    <rect id="ButtonC" class="C Button" x="20" y="130" width="39" height="27"/>
    <text id="LabelC" class="C Label" x="-2.5" y="145.5" style="text-anchor:start;">C</text>
    <path style="fill:none" d="M 15.5,143.5 H 7.5" id="LeaderC" class="Leader C"/>
  </g>
  <g>
    <rect id="ButtonD" class="D Button" x="62" y="130" width="39" height="27"/>
    <text id="LabelD" class="D Label" x="119.5" y="145.5" style="text-anchor:start;">D</text>
    <path style="fill:none" d="M 104.5,143.5 H 111.5" id="LeaderD" class="Leader D"/>
  </g>
  <g>
    <rect id="ButtonE" class="E Button" x="20" y="180" width="39" height="27"/>
    <text id="LabelE" class="E Label" x="-2.5" y="195.5" style="text-anchor:start;">E</text>
    <path style="fill:none" d="M 15.5,193.5 H 7.5" id="LeaderE" class="Leader E"/>
  </g>
  <g>
    <rect id="ButtonF" class="F Button" x="62" y="180" width="39" height="27"/>
    <text id="LabelF" class="F Label" x="119.5" y="195.5" style="text-anchor:start;">F</text>
    <path style="fill:none" d="M 104.5,193.5 H 111.5" id="LeaderF" class="Leader F"/>
  </g>
  <g>
    <rect id="ButtonG" class="G Button" x="20" y="272" width="39" height="27"/>
    <text id="LabelG" class="G Label" x="-2.5" y="287.5" style="text-anchor:start;">G</text>
    <path style="fill:none" d="M 15.5,285.5 H 7.5" id="LeaderG" class="Leader G"/>
  </g>
  <g>
    <rect id="ButtonH" class="H Button" x="62" y="272" width="39" height="27"/>
    <text id="LabelH" class="H Label" x="119.5" y="287.5" style="text-anchor:start;">H</text>
    <path style="fill:none" d="M 104.5,285.5 H 111.5" id="LeaderH" class="Leader H"/>
  </g>
  <g>
    <rect id="ButtonI" class="I Button" x="20" y="321" width="39" height="27"/>
    <text id="LabelI" class="I Label" x="-2.5" y="336.5" style="text-anchor:start;">I</text>
    <path style="fill:none" d="M 15.5,334.5 H 7.5" id="LeaderI" class="Leader I"/>
  </g>
  <g>
    <rect id="ButtonJ" class="J Button" x="62" y="321" width="39" height="27"/>
    <text id="LabelJ" class="J Label" x="119.5" y="336.5" style="text-anchor:start;">J</text>
    <path style="fill:none" d="M 104.5,334.5 H 111.5" id="LeaderJ" class="Leader J"/>
  </g>
  <g>
    <rect id="ButtonK" class="K Button" x="20" y="371" width="39" height="27"/>
    <text id="LabelK" class="K Label" x="-2.5" y="386.5" style="text-anchor:start;">K</text>
    <path style="fill:none" d="M 15.5,384.5 H 7.5" id="LeaderK" class="Leader K"/>
  </g>
  <g>
    <rect id="ButtonL" class="L Button" x="62" y="371" width="39" height="27"/>
    <text id="LabelL" class="L Label" x="119.5" y="386.5" style="text-anchor:start;">L</text>
    <path style="fill:none" d="M 104.5,384.5 H 111.5" id="LeaderL" class="Leader L"/>
  </g>
</svg>
