<?xml version='1.0' encoding='ASCII'?>
<!DOCTYPE svg PUBLIC "-//W3C//DTD SVG 1.1//EN" "http://www.w3.org/Graphics/SVG/1.1/DTD/svg11.dtd">
<svg xmlns="http://www.w3.org/2000/svg" version="1.1" style="color:#000000;stroke:#7f7f7f;fill:none;stroke-width:.25;font-size:8" id="gaomon-pd156progd" width="750" height="464">
  <title id="title">PD156Pro(GD)</title>
  <rect x="103" y="63" width="585" height="332"/>
  <g>
    <rect id="ButtonA" class="A Button" x="23" y="98" width="30" height="20"/>
    <text id="LabelA" class="A Label" x="86" y="110" style="text-anchor:start;">A</text>
    <path style="fill:none" d="M 71,108 H 78" id="LeaderA" class="Leader A"/>
  </g>
  <g>
    <rect id="ButtonB" class="B Button" x="23" y="121" width="30" height="20"/>
    <text id="LabelB" class="B Label" x="86" y="133" style="text-anchor:start;">B</text>
    <path style="fill:none" d="M 71,131 H 78" id="LeaderB" class="Leader B"/>
  </g>
  <g>
    <rect id="ButtonC" class="C Button" x="23" y="143" width="30" height="20"/>
    <text id="LabelC" class="C Label" x="86" y="155" style="text-anchor:start;">C</text>
    <path style="fill:none" d="M 71,153 H 78" id="LeaderC" class="Leader C"/>
  </g>
  <g>
    <rect id="ButtonD" class="D Button" x="23" y="165" width="30" height="20"/>
    <text id="LabelD" class="D Label" x="86" y="177" style="text-anchor:start;">D</text>
    <path style="fill:none" d="M 71,175 H 78" id="LeaderD" class="Leader D"/>
  </g>
  <g>
    <rect id="ButtonE" class="E Button" x="23" y="188" width="30" height="20"/>
    <text id="LabelE" class="E Label" x="86" y="200" style="text-anchor:start;">E</text>
    <path style="fill:none" d="M 71,198 H 78" id="LeaderE" class="Leader E"/>
  </g>
  <g>
    <rect id="ButtonF" class="F Button" x="23" y="255" width="30" height="20"/>
    <text id="LabelF" class="F Label" x="86" y="267" style="text-anchor:start;">F</text>
    <path style="fill:none" d="M 71,265 H 78" id="LeaderF" class="Leader F"/>
  </g>
  <g>
    <rect id="ButtonG" class="G Button" x="23" y="277" width="30" height="20"/>
    <text id="LabelG" class="G Label" x="86" y="289" style="text-anchor:start;">G</text>
    <path style="fill:none" d="M 71,287 H 78" id="LeaderG" class="Leader G"/>
  </g>
  <g>
    <rect id="ButtonH" class="H Button" x="23" y="299" width="30" height="20"/>
    <text id="LabelH" class="H Label" x="86" y="311" style="text-anchor:start;">H</text>
    <path style="fill:none" d="M 71,309 H 78" id="LeaderH" class="Leader H"/>
  </g>
  <g>
    <rect id="ButtonI" class="I Button" x="23" y="321" width="30" height="20"/>
    <text id="LabelI" class="I Label" x="86" y="333" style="text-anchor:start;">I</text>
    <path style="fill:none" d="M 71,331 H 78" id="LeaderI" class="Leader I"/>
  </g>
  <g>
    <rect id="ButtonJ" class="J Button" x="23" y="343" width="30" height="20"/>
    <text id="LabelJ" class="J Label" x="86" y="355" style="text-anchor:start;">J</text>
    <path style="fill:none" d="M 71,353 H 78" id="LeaderJ" class="Leader J"/>
  </g>
  <g>
    <rect id="ButtonK" class="K Button" x="28" y="221" width="20" height="20"/>
    <text id="LabelK" class="K Label" x="86" y="233" style="text-anchor:start;">K</text>
    <path style="fill:none" d="M 71,231 H 78" id="LeaderK" class="Leader K"/>
  </g>
</svg>
