<?xml version='1.0' encoding='ASCII'?>
<!DOCTYPE svg PUBLIC "-//W3C//DTD SVG 1.1//EN" "http://www.w3.org/Graphics/SVG/1.1/DTD/svg11.dtd">
<svg xmlns="http://www.w3.org/2000/svg" version="1.1" style="color:#000000;stroke:#7f7f7f;fill:none;stroke-width:.25;font-size:8" id="gaomon-pd1161gd" width="750" height="414">
  <title id="title">PD1161(GD)</title>
  <rect x="159" y="56" width="533" height="303"/>
  <g>
    <rect id="ButtonA" class="A Button" x="34" y="60" width="52" height="25"/>
    <text id="LabelA" class="A Label" x="108.0" y="74.5" style="text-anchor:start;">A</text>
    <path style="fill:none" d="M 93.0,72.5 H 100.0" id="LeaderA" class="Leader A"/>
  </g>
  <g>
    <rect id="ButtonB" class="B Button" x="34" y="92" width="52" height="25"/>
    <text id="LabelB" class="B Label" x="108.0" y="106.5" style="text-anchor:start;">B</text>
    <path style="fill:none" d="M 93.0,104.5 H 100.0" id="LeaderB" class="Leader B"/>
  </g>
  <g>
    <rect id="ButtonC" class="C Button" x="34" y="126" width="52" height="25"/>
    <text id="LabelC" class="C Label" x="108.0" y="140.5" style="text-anchor:start;">C</text>
    <path style="fill:none" d="M 93.0,138.5 H 100.0" id="LeaderC" class="Leader C"/>
  </g>
  <g>
    <rect id="ButtonD" class="D Button" x="34" y="159" width="52" height="25"/>
    <text id="LabelD" class="D Label" x="108.0" y="173.5" style="text-anchor:start;">D</text>
    <path style="fill:none" d="M 93.0,171.5 H 100.0" id="LeaderD" class="Leader D"/>
  </g>
  <g>
    <rect id="ButtonE" class="E Button" x="34" y="231" width="52" height="25"/>
    <text id="LabelE" class="E Label" x="108.0" y="245.5" style="text-anchor:start;">E</text>
    <path style="fill:none" d="M 93.0,243.5 H 100.0" id="LeaderE" class="Leader E"/>
  </g>
  <g>
    <rect id="ButtonF" class="F Button" x="34" y="265" width="52" height="25"/>
    <text id="LabelF" class="F Label" x="108.0" y="279.5" style="text-anchor:start;">F</text>
    <path style="fill:none" d="M 93.0,277.5 H 100.0" id="LeaderF" class="Leader F"/>
  </g>
  <g>
    <rect id="ButtonG" class="G Button" x="34" y="298" width="52" height="25"/>
    <text id="LabelG" class="G Label" x="108.0" y="312.5" style="text-anchor:start;">G</text>
    <path style="fill:none" d="M 93.0,310.5 H 100.0" id="LeaderG" class="Leader G"/>
  </g>
  <g>
    <rect id="ButtonH" class="H Button" x="34" y="331" width="52" height="25"/>
    <text id="LabelH" class="H Label" x="108.0" y="345.5" style="text-anchor:start;">H</text>
    <path style="fill:none" d="M 93.0,343.5 H 100.0" id="LeaderH" class="Leader H"/>
  </g>
</svg>
