<?xml version='1.0' encoding='ASCII'?>
<!DOCTYPE svg PUBLIC "-//W3C//DTD SVG 1.1//EN" "http://www.w3.org/Graphics/SVG/1.1/DTD/svg11.dtd">
<svg xmlns="http://www.w3.org/2000/svg" version="1.1" style="color:#000000;stroke:#7f7f7f;fill:none;stroke-width:.25;font-size:8" id="gaomon-pd1561" width="750" height="418">
  <title id="title">PD1561</title>
  <rect x="130" y="48" width="570" height="321"/>
  <g>
    <rect id="ButtonA" class="A Button" x="30" y="77" width="40" height="20"/>
    <text id="LabelA" class="A Label" x="98.0" y="89" style="text-anchor:start;">A</text>
    <path style="fill:none" d="M 83.0,87.0 H 90.0" id="LeaderA" class="Leader A"/>
  </g>
  <g>
    <rect id="ButtonB" class="B Button" x="30" y="103" width="40" height="20"/>
    <text id="LabelB" class="B Label" x="98.0" y="115" style="text-anchor:start;">B</text>
    <path style="fill:none" d="M 83.0,113.0 H 90.0" id="LeaderB" class="Leader B"/>
  </g>
  <g>
    <rect id="ButtonC" class="C Button" x="30" y="129" width="40" height="20"/>
    <text id="LabelC" class="C Label" x="98.0" y="141" style="text-anchor:start;">C</text>
    <path style="fill:none" d="M 83.0,139.0 H 90.0" id="LeaderC" class="Leader C"/>
  </g>
  <g>
    <rect id="ButtonD" class="D Button" x="30" y="156" width="40" height="20"/>
    <text id="LabelD" class="D Label" x="98.0" y="168" style="text-anchor:start;">D</text>
    <path style="fill:none" d="M 83.0,166.0 H 90.0" id="LeaderD" class="Leader D"/>
  </g>
  <g>
    <rect id="ButtonE" class="E Button" x="33" y="191" width="34" height="14"/>
    <text id="LabelE" class="E Label" x="98.0" y="200" style="text-anchor:start;">E</text>
    <path style="fill:none" d="M 83.0,198.0 H 90.0" id="LeaderE" class="Leader E"/>
  </g>
  <g>
    <rect id="ButtonF" class="F Button" x="33" y="215" width="34" height="14"/>
    <text id="LabelF" class="F Label" x="98.0" y="224" style="text-anchor:start;">F</text>
    <path style="fill:none" d="M 83.0,222.0 H 90.0" id="LeaderF" class="Leader F"/>
  </g>
  <g>
    <rect id="ButtonG" class="G Button" x="30" y="243" width="40" height="20"/>
    <text id="LabelG" class="G Label" x="98.0" y="255" style="text-anchor:start;">G</text>
    <path style="fill:none" d="M 83.0,253.0 H 90.0" id="LeaderG" class="Leader G"/>
  </g>
  <g>
    <rect id="ButtonH" class="H Button" x="30" y="270" width="40" height="20"/>
    <text id="LabelH" class="H Label" x="98.0" y="282" style="text-anchor:start;">H</text>
    <path style="fill:none" d="M 83.0,280.0 H 90.0" id="LeaderH" class="Leader H"/>
  </g>
  <g>
    <rect id="ButtonI" class="I Button" x="30" y="296" width="40" height="20"/>
    <text id="LabelI" class="I Label" x="98.0" y="308" style="text-anchor:start;">I</text>
    <path style="fill:none" d="M 83.0,306.0 H 90.0" id="LeaderI" class="Leader I"/>
  </g>
  <g>
    <rect id="ButtonJ" class="J Button" x="30" y="322" width="40" height="20"/>
    <text id="LabelJ" class="J Label" x="98.0" y="334" style="text-anchor:start;">J</text>
    <path style="fill:none" d="M 83.0,332.0 H 90.0" id="LeaderJ" class="Leader J"/>
  </g>
</svg>
