<?xml version="1.0" standalone="no"?>
<!DOCTYPE svg PUBLIC "-//W3C//DTD SVG 1.1//EN" "http://www.w3.org/Graphics/SVG/1.1/DTD/svg11.dtd">
<svg xmlns="http://www.w3.org/2000/svg" version="1.1" style="color:#000000;stroke:#7f7f7f;fill:none;stroke-width:.25;font-size:8" id="gaomon-m6" width="750" height="440">
  <title id="title">M6</title>
  <rect x="156" y="43" width="552" height="349"/>
  <g>
    <rect id="ButtonA" class="A Button" x="49" y="77" width="26" height="27"/>
    <text id="LabelA" class="A Label" x="100.0" y="92.5" style="text-anchor:start;">A</text>
    <path style="fill:none" d="M 85.0,90.5 H 92.0" id="LeaderA" class="Leader A"/>
  </g>
  <g>
    <rect id="ButtonB" class="B Button" x="26" y="149" width="35" height="22"/>
    <text id="LabelB" class="B Label" x="1.5" y="162" style="text-anchor:start;">B</text>
    <path style="fill:none" d="M 19.5,160.0 H 11.5" id="LeaderB" class="Leader B"/>
  </g>
  <g>
    <rect id="ButtonC" class="C Button" x="64" y="149" width="35" height="22"/>
    <text id="LabelC" class="C Label" x="119.5" y="162" style="text-anchor:start;">C</text>
    <path style="fill:none" d="M 104.5,160.0 H 111.5" id="LeaderC" class="Leader C"/>
  </g>
  <g>
    <rect id="ButtonD" class="D Button" x="26" y="174" width="35" height="22"/>
    <text id="LabelD" class="D Label" x="1.5" y="187" style="text-anchor:start;">D</text>
    <path style="fill:none" d="M 19.5,185.0 H 11.5" id="LeaderD" class="Leader D"/>
  </g>
  <g>
    <rect id="ButtonE" class="E Button" x="64" y="174" width="35" height="22"/>
    <text id="LabelE" class="E Label" x="119.5" y="187" style="text-anchor:start;">E</text>
    <path style="fill:none" d="M 104.5,185.0 H 111.5" id="LeaderE" class="Leader E"/>
  </g>
  <g>
    <rect id="ButtonF" class="F Button" x="26" y="200" width="35" height="22"/>
    <text id="LabelF" class="F Label" x="1.5" y="213" style="text-anchor:start;">F</text>
    <path style="fill:none" d="M 19.5,211.0 H 11.5" id="LeaderF" class="Leader F"/>
  </g>
  <g>
    <rect id="ButtonG" class="G Button" x="64" y="200" width="35" height="22"/>
    <text id="LabelG" class="G Label" x="119.5" y="213" style="text-anchor:start;">G</text>
    <path style="fill:none" d="M 104.5,211.0 H 111.5" id="LeaderG" class="Leader G"/>
  </g>
  <g>
    <rect id="ButtonH" class="H Button" x="26" y="225" width="35" height="22"/>
    <text id="LabelH" class="H Label" x="1.5" y="238" style="text-anchor:start;">H</text>
    <path style="fill:none" d="M 19.5,236.0 H 11.5" id="LeaderH" class="Leader H"/>
  </g>
  <g>
    <rect id="ButtonI" class="I Button" x="64" y="225" width="35" height="22"/>
    <text id="LabelI" class="I Label" x="119.5" y="238" style="text-anchor:start;">I</text>
    <path style="fill:none" d="M 104.5,236.0 H 111.5" id="LeaderI" class="Leader I"/>
  </g>
  <g>
    <rect id="ButtonJ" class="J Button" x="26" y="250" width="35" height="22"/>
    <text id="LabelJ" class="J Label" x="1.5" y="263" style="text-anchor:start;">J</text>
    <path style="fill:none" d="M 19.5,261.0 H 11.5" id="LeaderJ" class="Leader J"/>
  </g>
  <g>
    <rect id="ButtonK" class="K Button" x="64" y="250" width="35" height="22"/>
    <text id="LabelK" class="K Label" x="119.5" y="263" style="text-anchor:start;">K</text>
    <path style="fill:none" d="M 104.5,261.0 H 111.5" id="LeaderK" class="Leader K"/>
  </g>
  <g>
    <rect id="ButtonL" class="L Button" x="26" y="274" width="35" height="22"/>
    <text id="LabelL" class="L Label" x="1.5" y="287" style="text-anchor:start;">L</text>
    <path style="fill:none" d="M 19.5,285.0 H 11.5" id="LeaderL" class="Leader L"/>
  </g>
  <g>
    <rect id="ButtonM" class="M Button" x="64" y="274" width="35" height="22"/>
    <text id="LabelM" class="M Label" x="119.5" y="287" style="text-anchor:start;">M</text>
    <path style="fill:none" d="M 104.5,285.0 H 111.5" id="LeaderM" class="Leader M"/>
  </g>
</svg>
