<?xml version="1.0" standalone="no"?>
<!DOCTYPE svg PUBLIC "-//W3C//DTD SVG 1.1//EN" "http://www.w3.org/Graphics/SVG/1.1/DTD/svg11.dtd">
<svg xmlns="http://www.w3.org/2000/svg" version="1.1" style="color:#000000;stroke:#7f7f7f;fill:none;stroke-width:.25;font-size:8" id="gaomon-m10" width="750" height="394">
  <title id="title">M10</title>
  <rect x="188" y="39" width="522" height="316" />
  <g>
    <rect id="ButtonA" class="A Button" x="73" y="48" width="28" height="20" />
    <text id="LabelA" class="A Label" x="125.0" y="60" style="text-anchor:start;">A</text>
    <path style="fill:none" d="M 110.0,58.0 H 117.0" id="LeaderA" class="Leader A" />
  </g>
  <g>
    <rect id="ButtonB" class="B Button" x="45" y="63" width="20" height="30" />
    <text id="LabelB" class="B Label" x="23.0" y="80" style="text-anchor:start;">B</text>
    <path style="fill:none" d="M 41.0,78.0 H 33.0" id="LeaderB" class="Leader B" />
  </g>
  <g>
    <rect id="ButtonC" class="C Button" x="73" y="89" width="28" height="20" />
    <text id="LabelC" class="C Label" x="125.0" y="101" style="text-anchor:start;">C</text>
    <path style="fill:none" d="M 110.0,99.0 H 117.0" id="LeaderC" class="Leader C" />
  </g>
  <g>
    <rect id="ButtonD" class="D Button" x="74" y="166" width="28" height="20" />
    <text id="LabelD" class="D Label" x="126.0" y="178" style="text-anchor:start;">D</text>
    <path style="fill:none" d="M 111.0,176.0 H 118.0" id="LeaderD" class="Leader D" />
  </g>
  <g>
    <rect id="ButtonE" class="E Button" x="43" y="180" width="20" height="30" />
    <text id="LabelE" class="E Label" x="21.0" y="197" style="text-anchor:start;">E</text>
    <path style="fill:none" d="M 39.0,195.0 H 31.0" id="LeaderE" class="Leader E" />
  </g>
  <g>
    <rect id="ButtonF" class="F Button" x="74" y="207" width="28" height="20" />
    <text id="LabelF" class="F Label" x="126.0" y="219" style="text-anchor:start;">F</text>
    <path style="fill:none" d="M 111.0,217.0 H 118.0" id="LeaderF" class="Leader F" />
  </g>
  <g>
    <rect id="ButtonG" class="G Button" x="73" y="283" width="28" height="20" />
    <text id="LabelG" class="G Label" x="125.0" y="295" style="text-anchor:start;">G</text>
    <path style="fill:none" d="M 110.0,293.0 H 117.0" id="LeaderG" class="Leader G" />
  </g>
  <g>
    <rect id="ButtonH" class="H Button" x="44" y="299" width="20" height="30" />
    <text id="LabelH" class="H Label" x="22.0" y="316" style="text-anchor:start;">H</text>
    <path style="fill:none" d="M 40.0,314.0 H 32.0" id="LeaderH" class="Leader H" />
  </g>
  <g>
    <rect id="ButtonI" class="I Button" x="73" y="325" width="28" height="20" />
    <text id="LabelI" class="I Label" x="125.0" y="337" style="text-anchor:start;">I</text>
    <path style="fill:none" d="M 110.0,335.0 H 117.0" id="LeaderI" class="Leader I" />
  </g>
  <g>
    <rect id="ButtonJ" class="J Button" x="70" y="71" width="15" height="15" />
    <text id="LabelJ" class="J Label" x="115.5" y="80.5" style="text-anchor:start;">J</text>
    <path style="fill:none" d="M 100.5,78.5 H 107.5" id="LeaderJ" class="Leader J" />
  </g>
  <g>
    <rect id="ButtonK" class="K Button" x="70" y="190" width="15" height="15" />
    <text id="LabelK" class="K Label" x="115.5" y="199.5" style="text-anchor:start;">K</text>
    <path style="fill:none" d="M 100.5,197.5 H 107.5" id="LeaderK" class="Leader K" />
  </g>
  <g>
    <rect id="ButtonL" class="L Button" x="69" y="307" width="16" height="15" />
    <text id="LabelL" class="L Label" x="115.0" y="316.5" style="text-anchor:start;">L</text>
    <path style="fill:none" d="M 100.0,314.5 H 107.0" id="LeaderL" class="Leader L" />
  </g>
  <g>
    <rect id="Strip" class="Strip TouchStrip" x="24.0" y="156.5" width="14" height="80" rx="7.0" />
    <path id="LeaderStripUp" class="StripUp Strip Leader" d="M 31.0,154.5 V 152.5 H 117.0" />
    <text id="LabelStripUp" class="StripUp Strip Label" x="119" y="154" style="text-anchor:start;">UP</text>
    <path id="LeaderStripDown" class="StripDown Strip Leader" d="M 31.0,238.5 V 240.5 H 117.0" />
    <text id="LabelStripDown" class="StripDown Strip Label" x="119" y="240" style="text-anchor:start;">DOWN</text>
  </g>
  <g>
    <rect id="Strip2" class="Strip2 TouchStrip" x="24.0" y="256.5" width="14" height="80" rx="7.0" />
    <path id="LeaderStrip2Up" class="Strip2Up Strip2 Leader" d="M 31.0,254.5 V 252.5 H 117.0" />
    <text id="LabelStrip2Up" class="Strip2Up Strip2 Label" x="119" y="254" style="text-anchor:start;">UP</text>
    <path id="LeaderStrip2Down" class="Strip2Down Strip2 Leader" d="M 31.0,338.5 V 340.5 H 117.0" />
    <text id="LabelStrip2Down" class="Strip2Down Strip2 Label" x="119" y="340" style="text-anchor:start;">DOWN</text>
  </g>
  <g>
    <rect id="Strip3" class="Strip3 TouchStrip" x="715.0" y="156.5" width="14" height="80" rx="7.0" />
    <path id="LeaderStrip3Up" class="Strip3Up Strip3 Leader" d="M 722.0,154.5 V 152.5 H 695.0" />
    <text id="LabelStrip3Up" class="Strip3Up Strip3 Label" x="693" y="154" style="text-anchor:end;">UP</text>
    <path id="LeaderStrip3Down" class="Strip3Down Strip3 Leader" d="M 722.0,238.5 V 240.5 H 695.0" />
    <text id="LabelStrip3Down" class="Strip3Down Strip3 Label" x="693" y="240" style="text-anchor:end;">DOWN</text>
  </g>
</svg>
