<?xml version='1.0' encoding='ASCII'?>
<!DOCTYPE svg PUBLIC "-//W3C//DTD SVG 1.1//EN" "http://www.w3.org/Graphics/SVG/1.1/DTD/svg11.dtd">
<svg xmlns="http://www.w3.org/2000/svg" version="1.1" style="color:#000000;stroke:#7f7f7f;fill:none;stroke-width:.25;font-size:8" id="gaomon-m0610-pro" width="750" height="442">
  <title id="title">M0610 PRO</title>
  <rect x="134" y="49" width="554" height="343"/>
  <g>
    <rect id="ButtonA" class="A Button" x="42" y="55" width="32" height="32"/>
    <text id="LabelA" class="A Label" x="106" y="73" style="text-anchor:start;">A</text>
    <path style="fill:none" d="M 91,71 H 98" id="LeaderA" class="Leader A"/>
  </g>
  <g>
    <rect id="ButtonB" class="B Button" x="42" y="94" width="32" height="26"/>
    <text id="LabelB" class="B Label" x="106" y="109" style="text-anchor:start;">B</text>
    <path style="fill:none" d="M 91,107 H 98" id="LeaderB" class="Leader B"/>
  </g>
  <g>
    <rect id="ButtonC" class="C Button" x="42" y="129" width="32" height="26"/>
    <text id="LabelC" class="C Label" x="106" y="144" style="text-anchor:start;">C</text>
    <path style="fill:none" d="M 91,142 H 98" id="LeaderC" class="Leader C"/>
  </g>
  <g>
    <rect id="ButtonD" class="D Button" x="42" y="167" width="32" height="26"/>
    <text id="LabelD" class="D Label" x="106" y="182" style="text-anchor:start;">D</text>
    <path style="fill:none" d="M 91,180 H 98" id="LeaderD" class="Leader D"/>
  </g>
  <g>
    <rect id="ButtonE" class="E Button" x="42" y="250" width="32" height="26"/>
    <text id="LabelE" class="E Label" x="106" y="265" style="text-anchor:start;">E</text>
    <path style="fill:none" d="M 91,263 H 98" id="LeaderE" class="Leader E"/>
  </g>
  <g>
    <rect id="ButtonF" class="F Button" x="42" y="288" width="32" height="26"/>
    <text id="LabelF" class="F Label" x="106" y="303" style="text-anchor:start;">F</text>
    <path style="fill:none" d="M 91,301 H 98" id="LeaderF" class="Leader F"/>
  </g>
  <g>
    <rect id="ButtonG" class="G Button" x="42" y="322" width="32" height="26"/>
    <text id="LabelG" class="G Label" x="106" y="337" style="text-anchor:start;">G</text>
    <path style="fill:none" d="M 91,335 H 98" id="LeaderG" class="Leader G"/>
  </g>
  <g>
    <rect id="ButtonH" class="H Button" x="42" y="355" width="32" height="32"/>
    <text id="LabelH" class="H Label" x="106" y="373" style="text-anchor:start;">H</text>
    <path style="fill:none" d="M 91,371 H 98" id="LeaderH" class="Leader H"/>
  </g>
  <g>
    <rect id="ButtonI" class="I Button" x="46" y="210" width="22" height="22"/>
    <text id="LabelI" class="I Label" x="105" y="223" style="text-anchor:start;">I</text>
    <path style="fill:none" d="M 90,221 H 97" id="LeaderI" class="Leader I"/>
  </g>
</svg>
