<?xml version='1.0' encoding='ASCII'?>
<!DOCTYPE svg PUBLIC "-//W3C//DTD SVG 1.1//EN" "http://www.w3.org/Graphics/SVG/1.1/DTD/svg11.dtd">
<svg xmlns="http://www.w3.org/2000/svg" version="1.1" style="color:#000000;stroke:#7f7f7f;fill:none;stroke-width:.25;font-size:8" id="gaomon-gm156hdtp" width="750" height="415">
  <title id="title">GM156HD(TP)</title>
  <rect x="129" y="44" width="571" height="326"/>
  <g>
    <rect id="ButtonA" class="A Button" x="30" y="72" width="40" height="20"/>
    <text id="LabelA" class="A Label" x="98.0" y="84" style="text-anchor:start;">A</text>
    <path style="fill:none" d="M 83.0,82.0 H 90.0" id="LeaderA" class="Leader A"/>
  </g>
  <g>
    <rect id="ButtonB" class="B Button" x="30" y="99" width="40" height="20"/>
    <text id="LabelB" class="B Label" x="98.0" y="111" style="text-anchor:start;">B</text>
    <path style="fill:none" d="M 83.0,109.0 H 90.0" id="LeaderB" class="Leader B"/>
  </g>
  <g>
    <rect id="ButtonC" class="C Button" x="29" y="126" width="40" height="20"/>
    <text id="LabelC" class="C Label" x="97.0" y="138" style="text-anchor:start;">C</text>
    <path style="fill:none" d="M 82.0,136.0 H 89.0" id="LeaderC" class="Leader C"/>
  </g>
  <g>
    <rect id="ButtonD" class="D Button" x="29" y="153" width="40" height="20"/>
    <text id="LabelD" class="D Label" x="97.0" y="165" style="text-anchor:start;">D</text>
    <path style="fill:none" d="M 82.0,163.0 H 89.0" id="LeaderD" class="Leader D"/>
  </g>
  <g>
    <rect id="ButtonE" class="E Button" x="34" y="184" width="30" height="20"/>
    <text id="LabelE" class="E Label" x="97.0" y="196" style="text-anchor:start;">E</text>
    <path style="fill:none" d="M 82.0,194.0 H 89.0" id="LeaderE" class="Leader E"/>
  </g>
  <g>
    <rect id="ButtonF" class="F Button" x="34" y="209" width="30" height="20"/>
    <text id="LabelF" class="F Label" x="97.0" y="221" style="text-anchor:start;">F</text>
    <path style="fill:none" d="M 82.0,219.0 H 89.0" id="LeaderF" class="Leader F"/>
  </g>
  <g>
    <rect id="ButtonG" class="G Button" x="29" y="240" width="40" height="20"/>
    <text id="LabelG" class="G Label" x="97.0" y="252" style="text-anchor:start;">G</text>
    <path style="fill:none" d="M 82.0,250.0 H 89.0" id="LeaderG" class="Leader G"/>
  </g>
  <g>
    <rect id="ButtonH" class="H Button" x="29" y="267" width="40" height="20"/>
    <text id="LabelH" class="H Label" x="97.0" y="279" style="text-anchor:start;">H</text>
    <path style="fill:none" d="M 82.0,277.0 H 89.0" id="LeaderH" class="Leader H"/>
  </g>
  <g>
    <rect id="ButtonI" class="I Button" x="29" y="293" width="40" height="20"/>
    <text id="LabelI" class="I Label" x="97.0" y="305" style="text-anchor:start;">I</text>
    <path style="fill:none" d="M 82.0,303.0 H 89.0" id="LeaderI" class="Leader I"/>
  </g>
  <g>
    <rect id="ButtonJ" class="J Button" x="29" y="319" width="40" height="20"/>
    <text id="LabelJ" class="J Label" x="97.0" y="331" style="text-anchor:start;">J</text>
    <path style="fill:none" d="M 82.0,329.0 H 89.0" id="LeaderJ" class="Leader J"/>
  </g>
</svg>
