<?xml version='1.0' encoding='ASCII'?>
<!DOCTYPE svg PUBLIC "-//W3C//DTD SVG 1.1//EN" "http://www.w3.org/Graphics/SVG/1.1/DTD/svg11.dtd">
<svg xmlns="http://www.w3.org/2000/svg" version="1.1" style="color:#000000;stroke:#7f7f7f;fill:none;stroke-width:.25;font-size:8" id="huion-inspiroy-q620m" width="733" height="430">
  <title id="title">INSPIROY Q620M</title>
  <rect x="161" y="52" width="520" height="325"/>
  <g>
    <rect id="ButtonA" class="A Button" x="21" y="85" width="42" height="42"/>
    <text id="LabelA" class="A Label" x="80.0" y="108" style="text-anchor:start;">A</text>
    <path style="fill:none" d="M 65.0,106.0 H 72.0" id="LeaderA" class="Leader A"/>
  </g>
  <g>
    <rect id="ButtonB" class="B Button" x="21" y="128" width="42" height="38"/>
    <text id="LabelB" class="B Label" x="80.0" y="149" style="text-anchor:start;">B</text>
    <path style="fill:none" d="M 65.0,147.0 H 72.0" id="LeaderB" class="Leader B"/>
  </g>
  <g>
    <rect id="ButtonC" class="C Button" x="21" y="168" width="42" height="38"/>
    <text id="LabelC" class="C Label" x="80.0" y="189" style="text-anchor:start;">C</text>
    <path style="fill:none" d="M 65.0,187.0 H 72.0" id="LeaderC" class="Leader C"/>
  </g>
  <g>
    <rect id="ButtonD" class="D Button" x="21" y="208" width="42" height="38"/>
    <text id="LabelD" class="D Label" x="80.0" y="229" style="text-anchor:start;">D</text>
    <path style="fill:none" d="M 65.0,227.0 H 72.0" id="LeaderD" class="Leader D"/>
  </g>
  <g>
    <rect id="ButtonE" class="E Button" x="21" y="248" width="42" height="38"/>
    <text id="LabelE" class="E Label" x="80.0" y="269" style="text-anchor:start;">E</text>
    <path style="fill:none" d="M 65.0,267.0 H 72.0" id="LeaderE" class="Leader E"/>
  </g>
  <g>
    <rect id="ButtonF" class="F Button" x="21" y="288" width="42" height="38"/>
    <text id="LabelF" class="F Label" x="80.0" y="309" style="text-anchor:start;">F</text>
    <path style="fill:none" d="M 65.0,307.0 H 72.0" id="LeaderF" class="Leader F"/>
  </g>
  <g>
    <rect id="ButtonG" class="G Button" x="21" y="328" width="42" height="38"/>
    <text id="LabelG" class="G Label" x="80.0" y="349" style="text-anchor:start;">G</text>
    <path style="fill:none" d="M 65.0,347.0 H 72.0" id="LeaderG" class="Leader G"/>
  </g>
  <g>
    <rect id="ButtonH" class="H Button" x="21" y="368" width="42" height="40"/>
    <text id="LabelH" class="H Label" x="80.0" y="390" style="text-anchor:start;">H</text>
    <path style="fill:none" d="M 65.0,388.0 H 72.0" id="LeaderH" class="Leader H"/>
  </g>
  <g>
    <rect id="ButtonI" class="I Button" x="29" y="30" width="26" height="26"/>
    <text id="LabelI" class="I Label" x="80.0" y="45" style="text-anchor:start;">I</text>
    <path style="fill:none" d="M 65.0,43.0 H 72.0" id="LeaderI" class="Leader I"/>
  </g>
</svg>
