<?xml version='1.0' encoding='ASCII'?>
<!DOCTYPE svg PUBLIC "-//W3C//DTD SVG 1.1//EN" "http://www.w3.org/Graphics/SVG/1.1/DTD/svg11.dtd">
<svg xmlns="http://www.w3.org/2000/svg" version="1.1" style="color:#000000;stroke:#7f7f7f;fill:none;stroke-width:.25;font-size:8" id="huion-gc610-710" width="750" height="355">
  <title id="title">Huion GC610/710</title>
  <rect x="217" y="13" width="509" height="322"/>
  <g>
    <rect id="ButtonA" class="A Button" x="29" y="96" width="46" height="17"/>
    <text id="LabelA" class="A Label" x="50" y="136.5" style="text-anchor:start;">A</text>
    <path style="fill:none" d="M 52.0,121.5 V 128.5" id="LeaderA" class="Leader A"/>
  </g>
  <g>
    <rect id="ButtonB" class="B Button" x="93" y="96" width="30" height="16"/>
    <text id="LabelB" class="B Label" x="106" y="136.0" style="text-anchor:start;">B</text>
    <path style="fill:none" d="M 108.0,121.0 V 128.0" id="LeaderB" class="Leader B"/>
  </g>
  <g>
    <rect id="ButtonC" class="C Button" x="141" y="96" width="46" height="17"/>
    <text id="LabelC" class="C Label" x="162" y="136.5" style="text-anchor:start;">C</text>
    <path style="fill:none" d="M 164.0,121.5 V 128.5" id="LeaderC" class="Leader C"/>
  </g>
  <g>
    <rect id="ButtonD" class="D Button" x="29" y="242" width="46" height="17"/>
    <text id="LabelD" class="D Label" x="50" y="282.5" style="text-anchor:start;">D</text>
    <path style="fill:none" d="M 52.0,267.5 V 274.5" id="LeaderD" class="Leader D"/>
  </g>
  <g>
    <rect id="ButtonE" class="E Button" x="93" y="242" width="30" height="16"/>
    <text id="LabelE" class="E Label" x="106" y="282.0" style="text-anchor:start;">E</text>
    <path style="fill:none" d="M 108.0,267.0 V 274.0" id="LeaderE" class="Leader E"/>
  </g>
  <g>
    <rect id="ButtonF" class="F Button" x="141" y="242" width="46" height="17"/>
    <text id="LabelF" class="F Label" x="162" y="282.5" style="text-anchor:start;">F</text>
    <path style="fill:none" d="M 164.0,267.5 V 274.5" id="LeaderF" class="Leader F"/>
  </g>
</svg>
