<?xml version='1.0' encoding='ASCII'?>
<!DOCTYPE svg PUBLIC "-//W3C//DTD SVG 1.1//EN" "http://www.w3.org/Graphics/SVG/1.1/DTD/svg11.dtd">
<svg xmlns="http://www.w3.org/2000/svg" version="1.1" style="color:#000000;stroke:#7f7f7f;fill:none;stroke-width:.25;font-size:8" id="huion-h950p-igg" width="721" height="427">
  <title id="title">H950P-IGG</title>
  <rect x="161" y="59" width="491" height="311"/>
  <g>
    <rect id="ButtonA" class="A Button" x="45" y="65" width="44" height="26"/>
    <text id="LabelA" class="A Label" x="115.0" y="80" style="text-anchor:start;">A</text>
    <path style="fill:none" d="M 100.0,78.0 H 107.0" id="LeaderA" class="Leader A"/>
  </g>
  <g>
    <rect id="ButtonB" class="B Button" x="45" y="102" width="44" height="23"/>
    <text id="LabelB" class="B Label" x="115.0" y="115.5" style="text-anchor:start;">B</text>
    <path style="fill:none" d="M 100.0,113.5 H 107.0" id="LeaderB" class="Leader B"/>
  </g>
  <g>
    <rect id="ButtonC" class="C Button" x="45" y="137" width="45" height="25"/>
    <text id="LabelC" class="C Label" x="115.5" y="151.5" style="text-anchor:start;">C</text>
    <path style="fill:none" d="M 100.5,149.5 H 107.5" id="LeaderC" class="Leader C"/>
  </g>
  <g>
    <rect id="ButtonD" class="D Button" x="45" y="172" width="44" height="25"/>
    <text id="LabelD" class="D Label" x="115.0" y="186.5" style="text-anchor:start;">D</text>
    <path style="fill:none" d="M 100.0,184.5 H 107.0" id="LeaderD" class="Leader D"/>
  </g>
  <g>
    <rect id="ButtonE" class="E Button" x="45" y="229" width="44" height="26"/>
    <text id="LabelE" class="E Label" x="115.0" y="244" style="text-anchor:start;">E</text>
    <path style="fill:none" d="M 100.0,242.0 H 107.0" id="LeaderE" class="Leader E"/>
  </g>
  <g>
    <rect id="ButtonF" class="F Button" x="45" y="265" width="44" height="25"/>
    <text id="LabelF" class="F Label" x="115.0" y="279.5" style="text-anchor:start;">F</text>
    <path style="fill:none" d="M 100.0,277.5 H 107.0" id="LeaderF" class="Leader F"/>
  </g>
  <g>
    <rect id="ButtonG" class="G Button" x="45" y="301" width="44" height="24"/>
    <text id="LabelG" class="G Label" x="115.0" y="315" style="text-anchor:start;">G</text>
    <path style="fill:none" d="M 100.0,313.0 H 107.0" id="LeaderG" class="Leader G"/>
  </g>
  <g>
    <rect id="ButtonH" class="H Button" x="45" y="337" width="44" height="24"/>
    <text id="LabelH" class="H Label" x="115.0" y="351" style="text-anchor:start;">H</text>
    <path style="fill:none" d="M 100.0,349.0 H 107.0" id="LeaderH" class="Leader H"/>
  </g>
</svg>
