<?xml version='1.0' encoding='ASCII'?>
<!DOCTYPE svg PUBLIC "-//W3C//DTD SVG 1.1//EN" "http://www.w3.org/Graphics/SVG/1.1/DTD/svg11.dtd">
<svg xmlns="http://www.w3.org/2000/svg" version="1.1" style="color:#000000;stroke:#7f7f7f;fill:none;stroke-width:.25;font-size:8" id="huion-kamvas-pro-20-gt1901" width="763" height="430">
  <title id="title">KAMVAS Pro 20 GT1901</title>
  <rect x="86" y="52" width="592" height="325"/>
  <g>
    <rect id="ButtonA" class="A Button" x="14" y="72" width="33" height="21"/>
    <text id="LabelA" class="A Label" x="68.5" y="84.5" style="text-anchor:start;">A</text>
    <path style="fill:none" d="M 53.5,82.5 H 60.5" id="LeaderA" class="Leader A"/>
  </g>
  <g>
    <rect id="ButtonB" class="B Button" x="14" y="95" width="33" height="19"/>
    <text id="LabelB" class="B Label" x="68.5" y="106.5" style="text-anchor:start;">B</text>
    <path style="fill:none" d="M 53.5,104.5 H 60.5" id="LeaderB" class="Leader B"/>
  </g>
  <g>
    <rect id="ButtonC" class="C Button" x="14" y="116" width="33" height="19"/>
    <text id="LabelC" class="C Label" x="68.5" y="127.5" style="text-anchor:start;">C</text>
    <path style="fill:none" d="M 53.5,125.5 H 60.5" id="LeaderC" class="Leader C"/>
  </g>
  <g>
    <rect id="ButtonD" class="D Button" x="14" y="137" width="33" height="19"/>
    <text id="LabelD" class="D Label" x="68.5" y="148.5" style="text-anchor:start;">D</text>
    <path style="fill:none" d="M 53.5,146.5 H 60.5" id="LeaderD" class="Leader D"/>
  </g>
  <g>
    <rect id="ButtonE" class="E Button" x="14" y="277" width="33" height="18"/>
    <text id="LabelE" class="E Label" x="68.5" y="288" style="text-anchor:start;">E</text>
    <path style="fill:none" d="M 53.5,286.0 H 60.5" id="LeaderE" class="Leader E"/>
  </g>
  <g>
    <rect id="ButtonF" class="F Button" x="14" y="298" width="33" height="19"/>
    <text id="LabelF" class="F Label" x="68.5" y="309.5" style="text-anchor:start;">F</text>
    <path style="fill:none" d="M 53.5,307.5 H 60.5" id="LeaderF" class="Leader F"/>
  </g>
  <g>
    <rect id="ButtonG" class="G Button" x="14" y="320" width="33" height="19"/>
    <text id="LabelG" class="G Label" x="68.5" y="331.5" style="text-anchor:start;">G</text>
    <path style="fill:none" d="M 53.5,329.5 H 60.5" id="LeaderG" class="Leader G"/>
  </g>
  <g>
    <rect id="ButtonH" class="H Button" x="14" y="341" width="33" height="19"/>
    <text id="LabelH" class="H Label" x="68.5" y="352.5" style="text-anchor:start;">H</text>
    <path style="fill:none" d="M 53.5,350.5 H 60.5" id="LeaderH" class="Leader H"/>
  </g>
  <g>
    <rect id="ButtonI" class="I Button" x="719" y="71" width="33" height="21"/>
    <text id="LabelI" class="I Label" x="773.5" y="83.5" style="text-anchor:start;">I</text>
    <path style="fill:none" d="M 758.5,81.5 H 765.5" id="LeaderI" class="Leader I"/>
  </g>
  <g>
    <rect id="ButtonJ" class="J Button" x="719" y="94" width="33" height="19"/>
    <text id="LabelJ" class="J Label" x="773.5" y="105.5" style="text-anchor:start;">J</text>
    <path style="fill:none" d="M 758.5,103.5 H 765.5" id="LeaderJ" class="Leader J"/>
  </g>
  <g>
    <rect id="ButtonK" class="K Button" x="719" y="115" width="33" height="19"/>
    <text id="LabelK" class="K Label" x="773.5" y="126.5" style="text-anchor:start;">K</text>
    <path style="fill:none" d="M 758.5,124.5 H 765.5" id="LeaderK" class="Leader K"/>
  </g>
  <g>
    <rect id="ButtonL" class="L Button" x="719" y="136" width="33" height="21"/>
    <text id="LabelL" class="L Label" x="773.5" y="148.5" style="text-anchor:start;">L</text>
    <path style="fill:none" d="M 758.5,146.5 H 765.5" id="LeaderL" class="Leader L"/>
  </g>
  <g>
    <rect id="ButtonM" class="M Button" x="718" y="275" width="33" height="21"/>
    <text id="LabelM" class="M Label" x="772.5" y="287.5" style="text-anchor:start;">M</text>
    <path style="fill:none" d="M 757.5,285.5 H 764.5" id="LeaderM" class="Leader M"/>
  </g>
  <g>
    <rect id="ButtonN" class="N Button" x="718" y="299" width="33" height="19"/>
    <text id="LabelN" class="N Label" x="772.5" y="310.5" style="text-anchor:start;">N</text>
    <path style="fill:none" d="M 757.5,308.5 H 764.5" id="LeaderN" class="Leader N"/>
  </g>
  <g>
    <rect id="ButtonO" class="O Button" x="718" y="321" width="33" height="19"/>
    <text id="LabelO" class="O Label" x="772.5" y="332.5" style="text-anchor:start;">O</text>
    <path style="fill:none" d="M 757.5,330.5 H 764.5" id="LeaderO" class="Leader O"/>
  </g>
  <g>
    <rect id="ButtonP" class="P Button" x="718" y="343" width="33" height="21"/>
    <text id="LabelP" class="P Label" x="772.5" y="355.5" style="text-anchor:start;">P</text>
    <path style="fill:none" d="M 757.5,353.5 H 764.5" id="LeaderP" class="Leader P"/>
  </g>
</svg>
