<?xml version='1.0' encoding='ASCII'?>
<!DOCTYPE svg PUBLIC "-//W3C//DTD SVG 1.1//EN" "http://www.w3.org/Graphics/SVG/1.1/DTD/svg11.dtd">
<svg xmlns="http://www.w3.org/2000/svg" version="1.1" style="color:#000000;stroke:#7f7f7f;fill:none;stroke-width:.25;font-size:8" id="huion-kamvas-12-gs1161" width="721" height="430">
  <title id="title">KAMVAS 12 GS1161</title>
  <rect x="99" y="54" width="561" height="321"/>
  <g>
    <rect id="ButtonA" class="A Button" x="13" y="76" width="31" height="31"/>
    <text id="LabelA" class="A Label" x="66.5" y="93.5" style="text-anchor:start;">A</text>
    <path style="fill:none" d="M 51.5,91.5 H 58.5" id="LeaderA" class="Leader A"/>
  </g>
  <g>
    <rect id="ButtonB" class="B Button" x="13" y="108" width="31" height="31"/>
    <text id="LabelB" class="B Label" x="66.5" y="125.5" style="text-anchor:start;">B</text>
    <path style="fill:none" d="M 51.5,123.5 H 58.5" id="LeaderB" class="Leader B"/>
  </g>
  <g>
    <rect id="ButtonC" class="C Button" x="13" y="140" width="31" height="31"/>
    <text id="LabelC" class="C Label" x="66.5" y="157.5" style="text-anchor:start;">C</text>
    <path style="fill:none" d="M 51.5,155.5 H 58.5" id="LeaderC" class="Leader C"/>
  </g>
  <g>
    <rect id="ButtonD" class="D Button" x="10" y="176" width="37" height="40"/>
    <text id="LabelD" class="D Label" x="66.5" y="198" style="text-anchor:start;">D</text>
    <path style="fill:none" d="M 51.5,196.0 H 58.5" id="LeaderD" class="Leader D"/>
  </g>
  <g>
    <rect id="ButtonE" class="E Button" x="10" y="218" width="37" height="40"/>
    <text id="LabelE" class="E Label" x="66.5" y="240" style="text-anchor:start;">E</text>
    <path style="fill:none" d="M 51.5,238.0 H 58.5" id="LeaderE" class="Leader E"/>
  </g>
  <g>
    <rect id="ButtonF" class="F Button" x="12" y="262" width="31" height="31"/>
    <text id="LabelF" class="F Label" x="65.5" y="279.5" style="text-anchor:start;">F</text>
    <path style="fill:none" d="M 50.5,277.5 H 57.5" id="LeaderF" class="Leader F"/>
  </g>
  <g>
    <rect id="ButtonG" class="G Button" x="12" y="294" width="31" height="31"/>
    <text id="LabelG" class="G Label" x="65.5" y="311.5" style="text-anchor:start;">G</text>
    <path style="fill:none" d="M 50.5,309.5 H 57.5" id="LeaderG" class="Leader G"/>
  </g>
  <g>
    <rect id="ButtonH" class="H Button" x="12" y="326" width="31" height="31"/>
    <text id="LabelH" class="H Label" x="65.5" y="343.5" style="text-anchor:start;">H</text>
    <path style="fill:none" d="M 50.5,341.5 H 57.5" id="LeaderH" class="Leader H"/>
  </g>
</svg>
