<?xml version='1.0' encoding='ASCII'?>
<!DOCTYPE svg PUBLIC "-//W3C//DTD SVG 1.1//EN" "http://www.w3.org/Graphics/SVG/1.1/DTD/svg11.dtd">
<svg xmlns="http://www.w3.org/2000/svg" version="1.1" style="color:#000000;stroke:#7f7f7f;fill:none;stroke-width:.25;font-size:8" id="huion-hs95" width="682" height="430">
  <title id="title">Huion HS95</title>
  <rect x="133" y="67" width="472" height="295"/>
  <g>
    <rect id="ButtonA" class="A Button" x="38" y="92" width="48" height="24"/>
    <text id="LabelA" class="A Label" x="110.0" y="106" style="text-anchor:start;">A</text>
    <path style="fill:none" d="M 95.0,104.0 H 102.0" id="LeaderA" class="Leader A"/>
  </g>
  <g>
    <rect id="ButtonB" class="B Button" x="38" y="127" width="48" height="24"/>
    <text id="LabelB" class="B Label" x="110.0" y="141" style="text-anchor:start;">B</text>
    <path style="fill:none" d="M 95.0,139.0 H 102.0" id="LeaderB" class="Leader B"/>
  </g>
  <g>
    <rect id="ButtonC" class="C Button" x="38" y="162" width="48" height="24"/>
    <text id="LabelC" class="C Label" x="110.0" y="176" style="text-anchor:start;">C</text>
    <path style="fill:none" d="M 95.0,174.0 H 102.0" id="LeaderC" class="Leader C"/>
  </g>
  <g>
    <rect id="ButtonD" class="D Button" x="38" y="242" width="48" height="24"/>
    <text id="LabelD" class="D Label" x="110.0" y="256" style="text-anchor:start;">D</text>
    <path style="fill:none" d="M 95.0,254.0 H 102.0" id="LeaderD" class="Leader D"/>
  </g>
  <g>
    <rect id="ButtonE" class="E Button" x="38" y="278" width="48" height="24"/>
    <text id="LabelE" class="E Label" x="110.0" y="292" style="text-anchor:start;">E</text>
    <path style="fill:none" d="M 95.0,290.0 H 102.0" id="LeaderE" class="Leader E"/>
  </g>
  <g>
    <rect id="ButtonF" class="F Button" x="38" y="313" width="48" height="24"/>
    <text id="LabelF" class="F Label" x="110.0" y="327" style="text-anchor:start;">F</text>
    <path style="fill:none" d="M 95.0,325.0 H 102.0" id="LeaderF" class="Leader F"/>
  </g>
</svg>
