<?xml version='1.0' encoding='ASCII'?>
<!DOCTYPE svg PUBLIC "-//W3C//DTD SVG 1.1//EN" "http://www.w3.org/Graphics/SVG/1.1/DTD/svg11.dtd">
<svg xmlns="http://www.w3.org/2000/svg" version="1.1" style="color:#000000;stroke:#7f7f7f;fill:none;stroke-width:.25;font-size:8" id="huion-rtp-700" width="726" height="430">
  <title id="title">Huion RTP-700</title>
  <rect x="86" y="38" width="566" height="352"/>
  <g>
    <rect id="ButtonA" class="A Button" x="37" y="32" width="20" height="20"/>
    <text id="LabelA" class="A Label" x="85.0" y="44" style="text-anchor:start;">A</text>
    <path style="fill:none" d="M 70.0,42.0 H 77.0" id="LeaderA" class="Leader A"/>
  </g>
  <g>
    <rect id="ButtonB" class="B Button" x="37" y="70" width="20" height="20"/>
    <text id="LabelB" class="B Label" x="85.0" y="82" style="text-anchor:start;">B</text>
    <path style="fill:none" d="M 70.0,80.0 H 77.0" id="LeaderB" class="Leader B"/>
  </g>
  <g>
    <rect id="ButtonC" class="C Button" x="37" y="110" width="20" height="20"/>
    <text id="LabelC" class="C Label" x="85.0" y="122" style="text-anchor:start;">C</text>
    <path style="fill:none" d="M 70.0,120.0 H 77.0" id="LeaderC" class="Leader C"/>
  </g>
  <g>
    <rect id="ButtonD" class="D Button" x="37" y="300" width="20" height="20"/>
    <text id="LabelD" class="D Label" x="85.0" y="312" style="text-anchor:start;">D</text>
    <path style="fill:none" d="M 70.0,310.0 H 77.0" id="LeaderD" class="Leader D"/>
  </g>
  <g>
    <rect id="ButtonE" class="E Button" x="37" y="340" width="20" height="20"/>
    <text id="LabelE" class="E Label" x="85.0" y="352" style="text-anchor:start;">E</text>
    <path style="fill:none" d="M 70.0,350.0 H 77.0" id="LeaderE" class="Leader E"/>
  </g>
  <g>
    <rect id="ButtonF" class="F Button" x="37" y="379" width="20" height="20"/>
    <text id="LabelF" class="F Label" x="85.0" y="391" style="text-anchor:start;">F</text>
    <path style="fill:none" d="M 70.0,389.0 H 77.0" id="LeaderF" class="Leader F"/>
  </g>
</svg>
