<?xml version="1.0" standalone="no"?>
<!DOCTYPE svg PUBLIC "-//W3C//DTD SVG 1.1//EN" "http://www.w3.org/Graphics/SVG/1.1/DTD/svg11.dtd">
<svg xmlns="http://www.w3.org/2000/svg" version="1.1" style="color:#000000;stroke:#7f7f7f;fill:none;stroke-width:.25;font-size:8" id="huion-inspiroy-ink-h320m" width="732" height="430">
  <title id="title">INSPIROY Ink H320M</title>
  <rect x="141" y="43" width="548" height="343"/>
  <g>
    <rect id="ButtonA" class="A Button" x="54" y="49" width="34" height="34"/>
    <text id="LabelA" class="A Label" x="109.0" y="68" style="text-anchor:start;">A</text>
    <path style="fill:none" d="M 94.0,66.0 H 101.0" id="LeaderA" class="Leader A"/>
  </g>
  <g>
    <rect id="ButtonB" class="B Button" x="54" y="92" width="34" height="34"/>
    <text id="LabelB" class="B Label" x="109.0" y="111" style="text-anchor:start;">B</text>
    <path style="fill:none" d="M 94.0,109.0 H 101.0" id="LeaderB" class="Leader B"/>
  </g>
  <g>
    <rect id="ButtonC" class="C Button" x="54" y="133" width="34" height="34"/>
    <text id="LabelC" class="C Label" x="109.0" y="152" style="text-anchor:start;">C</text>
    <path style="fill:none" d="M 94.0,150.0 H 101.0" id="LeaderC" class="Leader C"/>
  </g>
  <g>
    <rect id="ButtonD" class="D Button" x="51" y="180" width="40" height="19"/>
    <text id="LabelD" class="D Label" x="109.0" y="191.5" style="text-anchor:start;">D</text>
    <path style="fill:none" d="M 94.0,189.5 H 101.0" id="LeaderD" class="Leader D"/>
  </g>
  <g>
    <rect id="ButtonE" class="E Button" x="52" y="230" width="40" height="19"/>
    <text id="LabelE" class="E Label" x="30.0" y="241.5" style="text-anchor:start;">E</text>
    <path style="fill:none" d="M 48.0,239.5 H 40.0" id="LeaderE" class="Leader E"/>
  </g>
  <g>
    <rect id="ButtonF" class="F Button" x="58" y="202" width="26" height="26"/>
    <text id="LabelF" class="F Label" x="109.0" y="217" style="text-anchor:start;">F</text>
    <path style="fill:none" d="M 94.0,215.0 H 101.0" id="LeaderF" class="Leader F"/>
  </g>
  <g>
    <rect id="ButtonG" class="G Button" x="36" y="201" width="21" height="28"/>
    <text id="LabelG" class="G Label" x="44.5" y="177.0" style="text-anchor:start;">G</text>
    <path style="fill:none" d="M 46.5,192.0 V 185.0" id="LeaderG" class="Leader G"/>
  </g>
  <g>
    <rect id="ButtonH" class="H Button" x="86" y="201" width="21" height="28"/>
    <text id="LabelH" class="H Label" x="94.5" y="257.0" style="text-anchor:start;">H</text>
    <path style="fill:none" d="M 96.5,242.0 V 249.0" id="LeaderH" class="Leader H"/>
  </g>
  <g>
    <rect id="ButtonI" class="I Button" x="54" y="264" width="34" height="34"/>
    <text id="LabelI" class="I Label" x="29.0" y="283" style="text-anchor:start;">I</text>
    <path style="fill:none" d="M 47.0,281.0 H 39.0" id="LeaderI" class="Leader I"/>
  </g>
  <g>
    <rect id="ButtonJ" class="J Button" x="54" y="306" width="34" height="34"/>
    <text id="LabelJ" class="J Label" x="29.0" y="325" style="text-anchor:start;">J</text>
    <path style="fill:none" d="M 47.0,323.0 H 39.0" id="LeaderJ" class="Leader J"/>
  </g>
  <g>
    <rect id="ButtonK" class="K Button" x="54" y="346" width="34" height="34"/>
    <text id="LabelK" class="K Label" x="29.0" y="365" style="text-anchor:start;">K</text>
    <path style="fill:none" d="M 47.0,363.0 H 39.0" id="LeaderK" class="Leader K"/>
  </g>
</svg>
