<?xml version='1.0' encoding='ASCII'?>
<!DOCTYPE svg PUBLIC "-//W3C//DTD SVG 1.1//EN" "http://www.w3.org/Graphics/SVG/1.1/DTD/svg11.dtd">
<svg xmlns="http://www.w3.org/2000/svg" version="1.1" style="color:#000000;stroke:#7f7f7f;fill:none;stroke-width:.25;font-size:8" id="huion-rts-300" width="479" height="430">
  <title id="title">Huion RTS-300</title>
  <rect x="47" y="131" width="387" height="242"/>
  <g>
    <rect id="ButtonA" class="A Button" x="65" y="49" width="42" height="18"/>
    <text id="LabelA" class="A Label" x="84" y="90.0" style="text-anchor:start;">A</text>
    <path style="fill:none" d="M 86.0,75.0 V 82.0" id="LeaderA" class="Leader A"/>
  </g>
  <g>
    <rect id="ButtonB" class="B Button" x="113" y="49" width="42" height="18"/>
    <text id="LabelB" class="B Label" x="132" y="90.0" style="text-anchor:start;">B</text>
    <path style="fill:none" d="M 134.0,75.0 V 82.0" id="LeaderB" class="Leader B"/>
  </g>
  <g>
    <rect id="ButtonC" class="C Button" x="160" y="49" width="42" height="18"/>
    <text id="LabelC" class="C Label" x="179" y="90.0" style="text-anchor:start;">C</text>
    <path style="fill:none" d="M 181.0,75.0 V 82.0" id="LeaderC" class="Leader C"/>
  </g>
  <g>
    <rect id="ButtonD" class="D Button" x="276" y="49" width="42" height="18"/>
    <text id="LabelD" class="D Label" x="295" y="90.0" style="text-anchor:start;">D</text>
    <path style="fill:none" d="M 297.0,75.0 V 82.0" id="LeaderD" class="Leader D"/>
  </g>
  <g>
    <rect id="ButtonE" class="E Button" x="322" y="49" width="42" height="18"/>
    <text id="LabelE" class="E Label" x="341" y="90.0" style="text-anchor:start;">E</text>
    <path style="fill:none" d="M 343.0,75.0 V 82.0" id="LeaderE" class="Leader E"/>
  </g>
  <g>
    <rect id="ButtonF" class="F Button" x="370" y="49" width="42" height="18"/>
    <text id="LabelF" class="F Label" x="389" y="90.0" style="text-anchor:start;">F</text>
    <path style="fill:none" d="M 391.0,75.0 V 82.0" id="LeaderF" class="Leader F"/>
  </g>
</svg>
