<?xml version="1.0" standalone="no"?>
<!DOCTYPE svg PUBLIC "-//W3C//DTD SVG 1.1//EN" "http://www.w3.org/Graphics/SVG/1.1/DTD/svg11.dtd">
<svg xmlns="http://www.w3.org/2000/svg" version="1.1" style="color:#000000;stroke:#7f7f7f;fill:none;stroke-width:.25;font-size:8" id="huion-hs610" width="716" height="430">
  <title id="title">Huion HS610</title>
  <rect x="141" y="52" width="517" height="324"/>
  <g>
    <rect id="ButtonA" class="A Button" x="33" y="62" width="29" height="22"/>
    <text id="LabelA" class="A Label" x="5.5" y="75" style="text-anchor:start;">A</text>
    <path style="fill:none" d="M 23.5,73.0 H 15.5" id="LeaderA" class="Leader A"/>
  </g>
  <g>
    <rect id="ButtonB" class="B Button" x="66" y="62" width="29" height="22"/>
    <text id="LabelB" class="B Label" x="118.5" y="75" style="text-anchor:start;">B</text>
    <path style="fill:none" d="M 103.5,73.0 H 110.5" id="LeaderB" class="Leader B"/>
  </g>
  <g>
    <rect id="ButtonC" class="C Button" x="33" y="95" width="29" height="22"/>
    <text id="LabelC" class="C Label" x="5.5" y="108" style="text-anchor:start;">C</text>
    <path style="fill:none" d="M 23.5,106.0 H 15.5" id="LeaderC" class="Leader C"/>
  </g>
  <g>
    <rect id="ButtonD" class="D Button" x="66" y="95" width="29" height="22"/>
    <text id="LabelD" class="D Label" x="118.5" y="108" style="text-anchor:start;">D</text>
    <path style="fill:none" d="M 103.5,106.0 H 110.5" id="LeaderD" class="Leader D"/>
  </g>
  <g>
    <rect id="ButtonE" class="E Button" x="33" y="126" width="29" height="22"/>
    <text id="LabelE" class="E Label" x="5.5" y="139" style="text-anchor:start;">E</text>
    <path style="fill:none" d="M 23.5,137.0 H 15.5" id="LeaderE" class="Leader E"/>
  </g>
  <g>
    <rect id="ButtonF" class="F Button" x="66" y="126" width="29" height="22"/>
    <text id="LabelF" class="F Label" x="118.5" y="139" style="text-anchor:start;">F</text>
    <path style="fill:none" d="M 103.5,137.0 H 110.5" id="LeaderF" class="Leader F"/>
  </g>
  <g>
    <rect id="ButtonG" class="G Button" x="34" y="283" width="29" height="22"/>
    <text id="LabelG" class="G Label" x="6.5" y="296" style="text-anchor:start;">G</text>
    <path style="fill:none" d="M 24.5,294.0 H 16.5" id="LeaderG" class="Leader G"/>
  </g>
  <g>
    <rect id="ButtonH" class="H Button" x="67" y="283" width="29" height="22"/>
    <text id="LabelH" class="H Label" x="119.5" y="296" style="text-anchor:start;">H</text>
    <path style="fill:none" d="M 104.5,294.0 H 111.5" id="LeaderH" class="Leader H"/>
  </g>
  <g>
    <rect id="ButtonI" class="I Button" x="34" y="315" width="29" height="22"/>
    <text id="LabelI" class="I Label" x="6.5" y="328" style="text-anchor:start;">I</text>
    <path style="fill:none" d="M 24.5,326.0 H 16.5" id="LeaderI" class="Leader I"/>
  </g>
  <g>
    <rect id="ButtonJ" class="J Button" x="67" y="315" width="29" height="22"/>
    <text id="LabelJ" class="J Label" x="119.5" y="328" style="text-anchor:start;">J</text>
    <path style="fill:none" d="M 104.5,326.0 H 111.5" id="LeaderJ" class="Leader J"/>
  </g>
  <g>
    <rect id="ButtonK" class="K Button" x="34" y="347" width="29" height="22"/>
    <text id="LabelK" class="K Label" x="6.5" y="360" style="text-anchor:start;">K</text>
    <path style="fill:none" d="M 24.5,358.0 H 16.5" id="LeaderK" class="Leader K"/>
  </g>
  <g>
    <rect id="ButtonL" class="L Button" x="67" y="347" width="29" height="22"/>
    <text id="LabelL" class="L Label" x="119.5" y="360" style="text-anchor:start;">L</text>
    <path style="fill:none" d="M 104.5,358.0 H 111.5" id="LeaderL" class="Leader L"/>
  </g>
  <g>
    <rect id="ButtonM" class="M Button" x="49" y="200" width="30" height="30"/>
    <text id="LabelM" class="M Label" x="102.0" y="217" style="text-anchor:start;">M</text>
    <path style="fill:none" d="M 87.0,215.0 H 94.0" id="LeaderM" class="Leader M"/>
  </g>
</svg>
