<?xml version='1.0' encoding='ASCII'?>
<!DOCTYPE svg PUBLIC "-//W3C//DTD SVG 1.1//EN" "http://www.w3.org/Graphics/SVG/1.1/DTD/svg11.dtd">
<svg xmlns="http://www.w3.org/2000/svg" version="1.1" style="color:#000000;stroke:#7f7f7f;fill:none;stroke-width:.25;font-size:8" id="huion-inspiroy-keydial-kd200" width="750" height="357">
  <title id="title">INSPIROY KeyDial KD200</title>
  <rect x="287" y="31" width="432" height="273"/>
  <g>
    <rect id="ButtonA" class="A Button" x="63" y="71" width="30" height="30"/>
    <text id="LabelA" class="A Label" x="76" y="118.0" style="text-anchor:start;">A</text>
    <path style="fill:none" d="M 78.0,103.0 V 110.0" id="LeaderA" class="Leader A"/>
  </g>
  <g>
    <rect id="ButtonB" class="B Button" x="95" y="71" width="30" height="30"/>
    <text id="LabelB" class="B Label" x="108" y="118.0" style="text-anchor:start;">B</text>
    <path style="fill:none" d="M 110.0,103.0 V 110.0" id="LeaderB" class="Leader B"/>
  </g>
  <g>
    <rect id="ButtonC" class="C Button" x="127" y="71" width="30" height="30"/>
    <text id="LabelC" class="C Label" x="140" y="118.0" style="text-anchor:start;">C</text>
    <path style="fill:none" d="M 142.0,103.0 V 110.0" id="LeaderC" class="Leader C"/>
  </g>
  <g>
    <rect id="ButtonD" class="D Button" x="159" y="71" width="30" height="30"/>
    <text id="LabelD" class="D Label" x="172" y="118.0" style="text-anchor:start;">D</text>
    <path style="fill:none" d="M 174.0,103.0 V 110.0" id="LeaderD" class="Leader D"/>
  </g>
  <g>
    <rect id="ButtonE" class="E Button" x="191" y="71" width="30" height="30"/>
    <text id="LabelE" class="E Label" x="204" y="118.0" style="text-anchor:start;">E</text>
    <path style="fill:none" d="M 206.0,103.0 V 110.0" id="LeaderE" class="Leader E"/>
  </g>
  <g>
    <rect id="ButtonF" class="F Button" x="150" y="19" width="40" height="31"/>
    <text id="LabelF" class="F Label" x="168" y="66.5" style="text-anchor:start;">F</text>
    <path style="fill:none" d="M 170.0,51.5 V 58.5" id="LeaderF" class="Leader F"/>
  </g>
</svg>
