<?xml version="1.0" standalone="no"?>
<!DOCTYPE svg PUBLIC "-//W3C//DTD SVG 1.1//EN" "http://www.w3.org/Graphics/SVG/1.1/DTD/svg11.dtd">
<svg xmlns="http://www.w3.org/2000/svg" version="1.1" style="color:#000000;stroke:#7f7f7f;fill:none;stroke-width:.25;font-size:8" id="huion-inspiroy-wh1409-v2" width="750" height="437">
  <title id="title">INSPIROY WH1409 V2</title>
  <rect x="132" y="37" width="581" height="362"/>
  <g>
    <rect id="ButtonA" class="A Button" x="22" y="218" width="31" height="21"/>
    <text id="LabelA" class="A Label" x="-4.5" y="230.5" style="text-anchor:start;">A</text>
    <path style="fill:none" d="M 13.5,228.5 H 5.5" id="LeaderA" class="Leader A"/>
  </g>
  <g>
    <rect id="ButtonB" class="B Button" x="60" y="218" width="31" height="21"/>
    <text id="LabelB" class="B Label" x="113.5" y="230.5" style="text-anchor:start;">B</text>
    <path style="fill:none" d="M 98.5,228.5 H 105.5" id="LeaderB" class="Leader B"/>
  </g>
  <g>
    <rect id="ButtonC" class="C Button" x="22" y="245" width="31" height="21"/>
    <text id="LabelC" class="C Label" x="-4.5" y="257.5" style="text-anchor:start;">C</text>
    <path style="fill:none" d="M 13.5,255.5 H 5.5" id="LeaderC" class="Leader C"/>
  </g>
  <g>
    <rect id="ButtonD" class="D Button" x="60" y="245" width="31" height="21"/>
    <text id="LabelD" class="D Label" x="113.5" y="257.5" style="text-anchor:start;">D</text>
    <path style="fill:none" d="M 98.5,255.5 H 105.5" id="LeaderD" class="Leader D"/>
  </g>
  <g>
    <rect id="ButtonE" class="E Button" x="22" y="284" width="31" height="21"/>
    <text id="LabelE" class="E Label" x="-4.5" y="296.5" style="text-anchor:start;">E</text>
    <path style="fill:none" d="M 13.5,294.5 H 5.5" id="LeaderE" class="Leader E"/>
  </g>
  <g>
    <rect id="ButtonF" class="F Button" x="60" y="284" width="31" height="21"/>
    <text id="LabelF" class="F Label" x="113.5" y="296.5" style="text-anchor:start;">F</text>
    <path style="fill:none" d="M 98.5,294.5 H 105.5" id="LeaderF" class="Leader F"/>
  </g>
  <g>
    <rect id="ButtonG" class="G Button" x="22" y="311" width="31" height="21"/>
    <text id="LabelG" class="G Label" x="-4.5" y="323.5" style="text-anchor:start;">G</text>
    <path style="fill:none" d="M 13.5,321.5 H 5.5" id="LeaderG" class="Leader G"/>
  </g>
  <g>
    <rect id="ButtonH" class="H Button" x="60" y="311" width="31" height="21"/>
    <text id="LabelH" class="H Label" x="113.5" y="323.5" style="text-anchor:start;">H</text>
    <path style="fill:none" d="M 98.5,321.5 H 105.5" id="LeaderH" class="Leader H"/>
  </g>
  <g>
    <rect id="ButtonI" class="I Button" x="22" y="348" width="31" height="21"/>
    <text id="LabelI" class="I Label" x="-4.5" y="360.5" style="text-anchor:start;">I</text>
    <path style="fill:none" d="M 13.5,358.5 H 5.5" id="LeaderI" class="Leader I"/>
  </g>
  <g>
    <rect id="ButtonJ" class="J Button" x="60" y="348" width="31" height="21"/>
    <text id="LabelJ" class="J Label" x="113.5" y="360.5" style="text-anchor:start;">J</text>
    <path style="fill:none" d="M 98.5,358.5 H 105.5" id="LeaderJ" class="Leader J"/>
  </g>
  <g>
    <rect id="ButtonK" class="K Button" x="22" y="375" width="31" height="21"/>
    <text id="LabelK" class="K Label" x="-4.5" y="387.5" style="text-anchor:start;">K</text>
    <path style="fill:none" d="M 13.5,385.5 H 5.5" id="LeaderK" class="Leader K"/>
  </g>
  <g>
    <rect id="ButtonL" class="L Button" x="60" y="375" width="31" height="21"/>
    <text id="LabelL" class="L Label" x="113.5" y="387.5" style="text-anchor:start;">L</text>
    <path style="fill:none" d="M 98.5,385.5 H 105.5" id="LeaderL" class="Leader L"/>
  </g>
</svg>
