<?xml version='1.0' encoding='ASCII'?>
<!DOCTYPE svg PUBLIC "-//W3C//DTD SVG 1.1//EN" "http://www.w3.org/Graphics/SVG/1.1/DTD/svg11.dtd">
<svg xmlns="http://www.w3.org/2000/svg" version="1.1" style="color:#000000;stroke:#7f7f7f;fill:none;stroke-width:.25;font-size:8" id="huion-kamvas-16-gs1562" width="720" height="430">
  <title id="title">KAMVAS 16 GS1562</title>
  <rect x="82" y="48" width="589" height="333"/>
  <g>
    <rect id="ButtonA" class="A Button" x="10" y="73" width="25" height="25"/>
    <text id="LabelA" class="A Label" x="60.5" y="87.5" style="text-anchor:start;">A</text>
    <path style="fill:none" d="M 45.5,85.5 H 52.5" id="LeaderA" class="Leader A"/>
  </g>
  <g>
    <rect id="ButtonB" class="B Button" x="10" y="101" width="25" height="25"/>
    <text id="LabelB" class="B Label" x="60.5" y="115.5" style="text-anchor:start;">B</text>
    <path style="fill:none" d="M 45.5,113.5 H 52.5" id="LeaderB" class="Leader B"/>
  </g>
  <g>
    <rect id="ButtonC" class="C Button" x="10" y="129" width="25" height="25"/>
    <text id="LabelC" class="C Label" x="60.5" y="143.5" style="text-anchor:start;">C</text>
    <path style="fill:none" d="M 45.5,141.5 H 52.5" id="LeaderC" class="Leader C"/>
  </g>
  <g>
    <rect id="ButtonD" class="D Button" x="10" y="157" width="25" height="25"/>
    <text id="LabelD" class="D Label" x="60.5" y="171.5" style="text-anchor:start;">D</text>
    <path style="fill:none" d="M 45.5,169.5 H 52.5" id="LeaderD" class="Leader D"/>
  </g>
  <g>
    <rect id="ButtonE" class="E Button" x="7" y="185" width="30" height="30"/>
    <text id="LabelE" class="E Label" x="60.0" y="202" style="text-anchor:start;">E</text>
    <path style="fill:none" d="M 45.0,200.0 H 52.0" id="LeaderE" class="Leader E"/>
  </g>
  <g>
    <rect id="ButtonF" class="F Button" x="6" y="216" width="32" height="32"/>
    <text id="LabelF" class="F Label" x="60.0" y="234" style="text-anchor:start;">F</text>
    <path style="fill:none" d="M 45.0,232.0 H 52.0" id="LeaderF" class="Leader F"/>
  </g>
  <g>
    <rect id="ButtonG" class="G Button" x="10" y="252" width="25" height="25"/>
    <text id="LabelG" class="G Label" x="60.5" y="266.5" style="text-anchor:start;">G</text>
    <path style="fill:none" d="M 45.5,264.5 H 52.5" id="LeaderG" class="Leader G"/>
  </g>
  <g>
    <rect id="ButtonH" class="H Button" x="10" y="280" width="25" height="25"/>
    <text id="LabelH" class="H Label" x="60.5" y="294.5" style="text-anchor:start;">H</text>
    <path style="fill:none" d="M 45.5,292.5 H 52.5" id="LeaderH" class="Leader H"/>
  </g>
  <g>
    <rect id="ButtonI" class="I Button" x="10" y="308" width="25" height="25"/>
    <text id="LabelI" class="I Label" x="60.5" y="322.5" style="text-anchor:start;">I</text>
    <path style="fill:none" d="M 45.5,320.5 H 52.5" id="LeaderI" class="Leader I"/>
  </g>
  <g>
    <rect id="ButtonJ" class="J Button" x="10" y="336" width="25" height="25"/>
    <text id="LabelJ" class="J Label" x="60.5" y="350.5" style="text-anchor:start;">J</text>
    <path style="fill:none" d="M 45.5,348.5 H 52.5" id="LeaderJ" class="Leader J"/>
  </g>
</svg>
