<?xml version='1.0' encoding='ASCII'?>
<!DOCTYPE svg PUBLIC "-//W3C//DTD SVG 1.1//EN" "http://www.w3.org/Graphics/SVG/1.1/DTD/svg11.dtd">
<svg xmlns="http://www.w3.org/2000/svg" version="1.1" style="color:#000000;stroke:#7f7f7f;fill:none;stroke-width:.25;font-size:8" id="huion-inspiroy-g10t" width="750" height="355">
  <title id="title">INSPIROY  G10T</title>
  <rect x="216" y="21" width="510" height="314"/>
  <g>
    <rect id="ButtonA" class="A Button" x="28" y="94" width="47" height="20"/>
    <text id="LabelA" class="A Label" x="49.5" y="136.0" style="text-anchor:start;">A</text>
    <path style="fill:none" d="M 51.5,121.0 V 128.0" id="LeaderA" class="Leader A"/>
  </g>
  <g>
    <rect id="ButtonB" class="B Button" x="92" y="94" width="32" height="20"/>
    <text id="LabelB" class="B Label" x="106" y="136.0" style="text-anchor:start;">B</text>
    <path style="fill:none" d="M 108.0,121.0 V 128.0" id="LeaderB" class="Leader B"/>
  </g>
  <g>
    <rect id="ButtonC" class="C Button" x="140" y="94" width="47" height="20"/>
    <text id="LabelC" class="C Label" x="161.5" y="136.0" style="text-anchor:start;">C</text>
    <path style="fill:none" d="M 163.5,121.0 V 128.0" id="LeaderC" class="Leader C"/>
  </g>
  <g>
    <rect id="ButtonD" class="D Button" x="28" y="238" width="47" height="20"/>
    <text id="LabelD" class="D Label" x="49.5" y="280.0" style="text-anchor:start;">D</text>
    <path style="fill:none" d="M 51.5,265.0 V 272.0" id="LeaderD" class="Leader D"/>
  </g>
  <g>
    <rect id="ButtonE" class="E Button" x="92" y="238" width="32" height="20"/>
    <text id="LabelE" class="E Label" x="106" y="280.0" style="text-anchor:start;">E</text>
    <path style="fill:none" d="M 108.0,265.0 V 272.0" id="LeaderE" class="Leader E"/>
  </g>
  <g>
    <rect id="ButtonF" class="F Button" x="141" y="239" width="47" height="20"/>
    <text id="LabelF" class="F Label" x="162.5" y="281.0" style="text-anchor:start;">F</text>
    <path style="fill:none" d="M 164.5,266.0 V 273.0" id="LeaderF" class="Leader F"/>
  </g>
</svg>
