<?xml version="1.0" standalone="no"?>
<!DOCTYPE svg PUBLIC "-//W3C//DTD SVG 1.1//EN" "http://www.w3.org/Graphics/SVG/1.1/DTD/svg11.dtd">
<svg xmlns:inkscape="http://www.inkscape.org/namespaces/inkscape" xmlns:sodipodi="http://sodipodi.sourceforge.net/DTD/sodipodi-0.dtd" xmlns="http://www.w3.org/2000/svg" xmlns:svg="http://www.w3.org/2000/svg" version="1.1" style="color:#000000;stroke:#7f7f7f;fill:none;stroke-width:.25;font-size:8" id="huion-mini-keydial-kd100" width="275" height="430" sodipodi:docname="huion-mini-keydial-kd100.svg" inkscape:version="1.5-dev (afb39433d1, 2024-05-12)">
  <defs id="defs19"/>
  <sodipodi:namedview id="namedview19" pagecolor="#ffffff" bordercolor="#000000" borderopacity="0.25" inkscape:showpageshadow="2" inkscape:pageopacity="0.0" inkscape:pagecheckerboard="0" inkscape:deskcolor="#d1d1d1" inkscape:zoom="3.355814" inkscape:cx="137.52252" inkscape:cy="215" inkscape:window-width="3072" inkscape:window-height="1696" inkscape:window-x="0" inkscape:window-y="0" inkscape:window-maximized="1" inkscape:current-layer="huion-mini-keydial-kd100"/>
  <title id="title">Mini KeyDial KD100</title>
  <g id="g1">
    <rect id="ButtonA" class="A Button" x="32" y="135" width="47" height="47"/>
    <text id="LabelA" class="A Label" x="63.5" y="160.5" style="text-anchor:start;">A</text>
    <path style="fill:none" d="M 48.5,158.5 H 55.5" id="LeaderA" class="Leader A"/>
  </g>
  <g id="g2">
    <rect id="ButtonB" class="B Button" x="86" y="135" width="47" height="47"/>
    <text id="LabelB" class="B Label" x="117.5" y="160.5" style="text-anchor:start;">B</text>
    <path style="fill:none" d="M 102.5,158.5 H 109.5" id="LeaderB" class="Leader B"/>
  </g>
  <g id="g3">
    <rect id="ButtonC" class="C Button" x="140" y="135" width="47" height="47"/>
    <text id="LabelC" class="C Label" x="171.5" y="160.5" style="text-anchor:start;">C</text>
    <path style="fill:none" d="M 156.5,158.5 H 163.5" id="LeaderC" class="Leader C"/>
  </g>
  <g id="g4">
    <rect id="ButtonD" class="D Button" x="194" y="135" width="47" height="47"/>
    <text id="LabelD" class="D Label" x="225.5" y="160.5" style="text-anchor:start;">D</text>
    <path style="fill:none" d="M 210.5,158.5 H 217.5" id="LeaderD" class="Leader D"/>
  </g>
  <g id="g5">
    <rect id="ButtonE" class="E Button" x="32" y="190" width="47" height="47"/>
    <text id="LabelE" class="E Label" x="63.5" y="215.5" style="text-anchor:start;">E</text>
    <path style="fill:none" d="M 48.5,213.5 H 55.5" id="LeaderE" class="Leader E"/>
  </g>
  <g id="g6">
    <rect id="ButtonF" class="F Button" x="88" y="190" width="47" height="47"/>
    <text id="LabelF" class="F Label" x="119.5" y="215.5" style="text-anchor:start;">F</text>
    <path style="fill:none" d="M 104.5,213.5 H 111.5" id="LeaderF" class="Leader F"/>
  </g>
  <g id="g7">
    <rect id="ButtonG" class="G Button" x="141" y="190" width="47" height="47"/>
    <text id="LabelG" class="G Label" x="172.5" y="215.5" style="text-anchor:start;">G</text>
    <path style="fill:none" d="M 157.5,213.5 H 164.5" id="LeaderG" class="Leader G"/>
  </g>
  <g id="g8">
    <rect id="ButtonH" class="H Button" x="195" y="190" width="47" height="47"/>
    <text id="LabelH" class="H Label" x="226.5" y="215.5" style="text-anchor:start;">H</text>
    <path style="fill:none" d="M 211.5,213.5 H 218.5" id="LeaderH" class="Leader H"/>
  </g>
  <g id="g9">
    <rect id="ButtonI" class="I Button" x="32" y="242" width="47" height="47"/>
    <text id="LabelI" class="I Label" x="63.5" y="267.5" style="text-anchor:start;">I</text>
    <path style="fill:none" d="M 48.5,265.5 H 55.5" id="LeaderI" class="Leader I"/>
  </g>
  <g id="g10">
    <rect id="ButtonJ" class="J Button" x="87" y="243" width="47" height="47"/>
    <text id="LabelJ" class="J Label" x="118.5" y="268.5" style="text-anchor:start;">J</text>
    <path style="fill:none" d="M 103.5,266.5 H 110.5" id="LeaderJ" class="Leader J"/>
  </g>
  <g id="g11">
    <rect id="ButtonK" class="K Button" x="140" y="243" width="47" height="47"/>
    <text id="LabelK" class="K Label" x="171.5" y="268.5" style="text-anchor:start;">K</text>
    <path style="fill:none" d="M 156.5,266.5 H 163.5" id="LeaderK" class="Leader K"/>
  </g>
  <g id="g12">
    <rect id="ButtonL" class="L Button" x="195" y="243" width="47" height="47"/>
    <text id="LabelL" class="L Label" x="226.5" y="268.5" style="text-anchor:start;">L</text>
    <path style="fill:none" d="M 211.5,266.5 H 218.5" id="LeaderL" class="Leader L"/>
  </g>
  <g id="g13">
    <rect id="ButtonM" class="M Button" x="32" y="296" width="47" height="47"/>
    <text id="LabelM" class="M Label" x="63.5" y="321.5" style="text-anchor:start;">M</text>
    <path style="fill:none" d="M 48.5,319.5 H 55.5" id="LeaderM" class="Leader M"/>
  </g>
  <g id="g14">
    <rect id="ButtonN" class="N Button" x="86" y="296" width="47" height="47"/>
    <text id="LabelN" class="N Label" x="117.5" y="321.5" style="text-anchor:start;">N</text>
    <path style="fill:none" d="M 102.5,319.5 H 109.5" id="LeaderN" class="Leader N"/>
  </g>
  <g id="g15">
    <rect id="ButtonO" class="O Button" x="140" y="296" width="47" height="47"/>
    <text id="LabelO" class="O Label" x="171.5" y="321.5" style="text-anchor:start;">O</text>
    <path style="fill:none" d="M 156.5,319.5 H 163.5" id="LeaderO" class="Leader O"/>
  </g>
  <g id="g16">
    <rect id="ButtonP" class="P Button" x="195" y="296" width="45" height="99"/>
    <text id="LabelP" class="P Label" x="225.5" y="347.5" style="text-anchor:start;">P</text>
    <path style="fill:none" d="M 210.5,345.5 H 217.5" id="LeaderP" class="Leader P"/>
  </g>
  <g id="g17">
    <rect id="ButtonQ" class="Q Button" x="32" y="350" width="99" height="45"/>
    <text id="LabelQ" class="Q Label" x="89.5" y="374.5" style="text-anchor:start;">Q</text>
    <path style="fill:none" d="M 74.5,372.5 H 81.5" id="LeaderQ" class="Leader Q"/>
  </g>
  <g id="g18">
    <rect id="ButtonR" class="R Button" x="140" y="349" width="47" height="47"/>
    <text id="LabelR" class="R Label" x="171.5" y="374.5" style="text-anchor:start;">R</text>
    <path style="fill:none" d="M 156.5,372.5 H 163.5" id="LeaderR" class="Leader R"/>
  </g>
  <g id="g19">
    <rect id="ButtonS" class="S Button" x="42" y="43" width="39" height="39"/>
    <text id="LabelS" class="S Label" x="69.5" y="64.5" style="text-anchor:start;">S</text>
    <path style="fill:none" d="M 54.5,62.5 H 61.5" id="LeaderS" class="Leader S"/>
  </g>
</svg>
