<?xml version="1.0" standalone="no"?>
<!DOCTYPE svg PUBLIC "-//W3C//DTD SVG 1.1//EN" "http://www.w3.org/Graphics/SVG/1.1/DTD/svg11.dtd">
<svg xmlns="http://www.w3.org/2000/svg" version="1.1" style="color:#000000;stroke:#7f7f7f;fill:none;stroke-width:.25;font-size:8" id="huion-inspiroy-2-m---h951p" width="720" height="424">
  <title id="title">Inspiroy 2 M - H951P</title>
  <rect x="151" y="50" width="519" height="323"/>
  <g>
    <rect id="ButtonA" class="A Button" x="8" y="32" width="17" height="17"/>
    <text id="LabelA" class="A Label" x="14.5" y="62.5" style="text-anchor:start;">A</text>
    <path style="fill:none" d="M 16.5,47.5 V 54.5" id="LeaderA" class="Leader A"/>
  </g>
  <g>
    <rect id="ButtonB" class="B Button" x="8" y="72" width="17" height="17"/>
    <text id="LabelB" class="B Label" x="14.5" y="102.5" style="text-anchor:start;">B</text>
    <path style="fill:none" d="M 16.5,87.5 V 94.5" id="LeaderB" class="Leader B"/>
  </g>
  <g>
    <rect id="ButtonC" class="C Button" x="8" y="112" width="17" height="17"/>
    <text id="LabelC" class="C Label" x="14.5" y="142.5" style="text-anchor:start;">C</text>
    <path style="fill:none" d="M 16.5,127.5 V 134.5" id="LeaderC" class="Leader C"/>
  </g>
  <g>
    <rect id="ButtonD" class="D Button" x="41" y="28" width="38" height="26"/>
    <text id="LabelD" class="D Label" x="98.0" y="43" style="text-anchor:start;">D</text>
    <path style="fill:none" d="M 83.0,41.0 H 90.0" id="LeaderD" class="Leader D"/>
  </g>
  <g>
    <rect id="ButtonE" class="E Button" x="41" y="68" width="38" height="26"/>
    <text id="LabelE" class="E Label" x="98.0" y="83" style="text-anchor:start;">E</text>
    <path style="fill:none" d="M 83.0,81.0 H 90.0" id="LeaderE" class="Leader E"/>
  </g>
  <g>
    <rect id="ButtonF" class="F Button" x="41" y="108" width="38" height="26"/>
    <text id="LabelF" class="F Label" x="98.0" y="123" style="text-anchor:start;">F</text>
    <path style="fill:none" d="M 83.0,121.0 H 90.0" id="LeaderF" class="Leader F"/>
  </g>
  <g>
    <rect id="ButtonG" class="G Button" x="40" y="148" width="38" height="26"/>
    <text id="LabelG" class="G Label" x="97.0" y="163" style="text-anchor:start;">G</text>
    <path style="fill:none" d="M 82.0,161.0 H 89.0" id="LeaderG" class="Leader G"/>
  </g>
  <g>
    <rect id="ButtonH" class="H Button" x="41" y="250" width="38" height="26"/>
    <text id="LabelH" class="H Label" x="98.0" y="265" style="text-anchor:start;">H</text>
    <path style="fill:none" d="M 83.0,263.0 H 90.0" id="LeaderH" class="Leader H"/>
  </g>
  <g>
    <rect id="ButtonI" class="I Button" x="41" y="289" width="38" height="26"/>
    <text id="LabelI" class="I Label" x="98.0" y="304" style="text-anchor:start;">I</text>
    <path style="fill:none" d="M 83.0,302.0 H 90.0" id="LeaderI" class="Leader I"/>
  </g>
  <g>
    <rect id="ButtonJ" class="J Button" x="41" y="329" width="38" height="26"/>
    <text id="LabelJ" class="J Label" x="98.0" y="344" style="text-anchor:start;">J</text>
    <path style="fill:none" d="M 83.0,342.0 H 90.0" id="LeaderJ" class="Leader J"/>
  </g>
  <g>
    <rect id="ButtonK" class="K Button" x="41" y="369" width="38" height="26"/>
    <text id="LabelK" class="K Label" x="98.0" y="384" style="text-anchor:start;">K</text>
    <path style="fill:none" d="M 83.0,382.0 H 90.0" id="LeaderK" class="Leader K"/>
  </g>
</svg>
