<?xml version='1.0' encoding='ASCII'?>
<!DOCTYPE svg PUBLIC "-//W3C//DTD SVG 1.1//EN" "http://www.w3.org/Graphics/SVG/1.1/DTD/svg11.dtd">
<svg xmlns="http://www.w3.org/2000/svg" version="1.1" style="color:#000000;stroke:#7f7f7f;fill:none;stroke-width:.25;font-size:8" id="huion-kamvas-gt-156-2021" width="719" height="430">
  <title id="title">KAMVAS GT-156 (2021)</title>
  <rect x="81" y="50" width="590" height="328"/>
  <g>
    <rect id="ButtonA" class="A Button" x="8" y="72" width="26" height="26"/>
    <text id="LabelA" class="A Label" x="59.0" y="87" style="text-anchor:start;">A</text>
    <path style="fill:none" d="M 44.0,85.0 H 51.0" id="LeaderA" class="Leader A"/>
  </g>
  <g>
    <rect id="ButtonB" class="B Button" x="8" y="99" width="26" height="26"/>
    <text id="LabelB" class="B Label" x="59.0" y="114" style="text-anchor:start;">B</text>
    <path style="fill:none" d="M 44.0,112.0 H 51.0" id="LeaderB" class="Leader B"/>
  </g>
  <g>
    <rect id="ButtonC" class="C Button" x="8" y="126" width="26" height="26"/>
    <text id="LabelC" class="C Label" x="59.0" y="141" style="text-anchor:start;">C</text>
    <path style="fill:none" d="M 44.0,139.0 H 51.0" id="LeaderC" class="Leader C"/>
  </g>
  <g>
    <rect id="ButtonD" class="D Button" x="8" y="153" width="26" height="26"/>
    <text id="LabelD" class="D Label" x="59.0" y="168" style="text-anchor:start;">D</text>
    <path style="fill:none" d="M 44.0,166.0 H 51.0" id="LeaderD" class="Leader D"/>
  </g>
  <g>
    <rect id="ButtonE" class="E Button" x="8" y="189" width="26" height="26"/>
    <text id="LabelE" class="E Label" x="59.0" y="204" style="text-anchor:start;">E</text>
    <path style="fill:none" d="M 44.0,202.0 H 51.0" id="LeaderE" class="Leader E"/>
  </g>
  <g>
    <rect id="ButtonF" class="F Button" x="8" y="218" width="26" height="26"/>
    <text id="LabelF" class="F Label" x="59.0" y="233" style="text-anchor:start;">F</text>
    <path style="fill:none" d="M 44.0,231.0 H 51.0" id="LeaderF" class="Leader F"/>
  </g>
  <g>
    <rect id="ButtonG" class="G Button" x="8" y="252" width="26" height="26"/>
    <text id="LabelG" class="G Label" x="59.0" y="267" style="text-anchor:start;">G</text>
    <path style="fill:none" d="M 44.0,265.0 H 51.0" id="LeaderG" class="Leader G"/>
  </g>
  <g>
    <rect id="ButtonH" class="H Button" x="8" y="279" width="26" height="26"/>
    <text id="LabelH" class="H Label" x="59.0" y="294" style="text-anchor:start;">H</text>
    <path style="fill:none" d="M 44.0,292.0 H 51.0" id="LeaderH" class="Leader H"/>
  </g>
  <g>
    <rect id="ButtonI" class="I Button" x="8" y="306" width="26" height="26"/>
    <text id="LabelI" class="I Label" x="59.0" y="321" style="text-anchor:start;">I</text>
    <path style="fill:none" d="M 44.0,319.0 H 51.0" id="LeaderI" class="Leader I"/>
  </g>
  <g>
    <rect id="ButtonJ" class="J Button" x="8" y="333" width="26" height="26"/>
    <text id="LabelJ" class="J Label" x="59.0" y="348" style="text-anchor:start;">J</text>
    <path style="fill:none" d="M 44.0,346.0 H 51.0" id="LeaderJ" class="Leader J"/>
  </g>
</svg>
