<?xml version='1.0' encoding='ASCII'?>
<!DOCTYPE svg PUBLIC "-//W3C//DTD SVG 1.1//EN" "http://www.w3.org/Graphics/SVG/1.1/DTD/svg11.dtd">
<svg xmlns="http://www.w3.org/2000/svg" version="1.1" style="color:#000000;stroke:#7f7f7f;fill:none;stroke-width:.25;font-size:8" id="huion-inspiroy-h610x" width="683" height="430">
  <title id="title">INSPIROY H610X</title>
  <rect x="100" y="46" width="539" height="338"/>
  <g>
    <rect id="ButtonA" class="A Button" x="38" y="78" width="35" height="30"/>
    <text id="LabelA" class="A Label" x="93.5" y="95" style="text-anchor:start;">A</text>
    <path style="fill:none" d="M 78.5,93.0 H 85.5" id="LeaderA" class="Leader A"/>
  </g>
  <g>
    <rect id="ButtonB" class="B Button" x="38" y="111" width="35" height="30"/>
    <text id="LabelB" class="B Label" x="93.5" y="128" style="text-anchor:start;">B</text>
    <path style="fill:none" d="M 78.5,126.0 H 85.5" id="LeaderB" class="Leader B"/>
  </g>
  <g>
    <rect id="ButtonC" class="C Button" x="38" y="144" width="35" height="30"/>
    <text id="LabelC" class="C Label" x="93.5" y="161" style="text-anchor:start;">C</text>
    <path style="fill:none" d="M 78.5,159.0 H 85.5" id="LeaderC" class="Leader C"/>
  </g>
  <g>
    <rect id="ButtonD" class="D Button" x="29" y="188" width="53" height="25"/>
    <text id="LabelD" class="D Label" x="93.5" y="202.5" style="text-anchor:start;">D</text>
    <path style="fill:none" d="M 78.5,200.5 H 85.5" id="LeaderD" class="Leader D"/>
  </g>
  <g>
    <rect id="ButtonE" class="E Button" x="29" y="216" width="53" height="27"/>
    <text id="LabelE" class="E Label" x="93.5" y="231.5" style="text-anchor:start;">E</text>
    <path style="fill:none" d="M 78.5,229.5 H 85.5" id="LeaderE" class="Leader E"/>
  </g>
  <g>
    <rect id="ButtonF" class="F Button" x="38" y="254" width="35" height="30"/>
    <text id="LabelF" class="F Label" x="93.5" y="271" style="text-anchor:start;">F</text>
    <path style="fill:none" d="M 78.5,269.0 H 85.5" id="LeaderF" class="Leader F"/>
  </g>
  <g>
    <rect id="ButtonG" class="G Button" x="38" y="289" width="35" height="29"/>
    <text id="LabelG" class="G Label" x="93.5" y="305.5" style="text-anchor:start;">G</text>
    <path style="fill:none" d="M 78.5,303.5 H 85.5" id="LeaderG" class="Leader G"/>
  </g>
  <g>
    <rect id="ButtonH" class="H Button" x="38" y="321" width="35" height="30"/>
    <text id="LabelH" class="H Label" x="93.5" y="338" style="text-anchor:start;">H</text>
    <path style="fill:none" d="M 78.5,336.0 H 85.5" id="LeaderH" class="Leader H"/>
  </g>
</svg>
