<?xml version='1.0' encoding='ASCII'?>
<!DOCTYPE svg PUBLIC "-//W3C//DTD SVG 1.1//EN" "http://www.w3.org/Graphics/SVG/1.1/DTD/svg11.dtd">
<svg xmlns="http://www.w3.org/2000/svg" version="1.1" style="color:#000000;stroke:#7f7f7f;fill:none;stroke-width:.25;font-size:8" id="huion-kamvas-gt-221-pro" width="736" height="430">
  <title id="title">KAMVAS  GT-221 Pro</title>
  <rect x="69" y="43" width="598" height="338"/>
  <g>
    <rect id="ButtonA" class="A Button" x="12" y="68" width="28" height="14"/>
    <text id="LabelA" class="A Label" x="64.0" y="77" style="text-anchor:start;">A</text>
    <path style="fill:none" d="M 49.0,75.0 H 56.0" id="LeaderA" class="Leader A"/>
  </g>
  <g>
    <rect id="ButtonB" class="B Button" x="12" y="86" width="28" height="14"/>
    <text id="LabelB" class="B Label" x="64.0" y="95" style="text-anchor:start;">B</text>
    <path style="fill:none" d="M 49.0,93.0 H 56.0" id="LeaderB" class="Leader B"/>
  </g>
  <g>
    <rect id="ButtonC" class="C Button" x="12" y="105" width="28" height="14"/>
    <text id="LabelC" class="C Label" x="64.0" y="114" style="text-anchor:start;">C</text>
    <path style="fill:none" d="M 49.0,112.0 H 56.0" id="LeaderC" class="Leader C"/>
  </g>
  <g>
    <rect id="ButtonD" class="D Button" x="12" y="123" width="28" height="14"/>
    <text id="LabelD" class="D Label" x="64.0" y="132" style="text-anchor:start;">D</text>
    <path style="fill:none" d="M 49.0,130.0 H 56.0" id="LeaderD" class="Leader D"/>
  </g>
  <g>
    <rect id="ButtonE" class="E Button" x="12" y="143" width="28" height="14"/>
    <text id="LabelE" class="E Label" x="64.0" y="152" style="text-anchor:start;">E</text>
    <path style="fill:none" d="M 49.0,150.0 H 56.0" id="LeaderE" class="Leader E"/>
  </g>
  <g>
    <rect id="ButtonF" class="F Button" x="11" y="268" width="28" height="14"/>
    <text id="LabelF" class="F Label" x="63.0" y="277" style="text-anchor:start;">F</text>
    <path style="fill:none" d="M 48.0,275.0 H 55.0" id="LeaderF" class="Leader F"/>
  </g>
  <g>
    <rect id="ButtonG" class="G Button" x="11" y="288" width="28" height="14"/>
    <text id="LabelG" class="G Label" x="63.0" y="297" style="text-anchor:start;">G</text>
    <path style="fill:none" d="M 48.0,295.0 H 55.0" id="LeaderG" class="Leader G"/>
  </g>
  <g>
    <rect id="ButtonH" class="H Button" x="11" y="307" width="28" height="14"/>
    <text id="LabelH" class="H Label" x="63.0" y="316" style="text-anchor:start;">H</text>
    <path style="fill:none" d="M 48.0,314.0 H 55.0" id="LeaderH" class="Leader H"/>
  </g>
  <g>
    <rect id="ButtonI" class="I Button" x="11" y="325" width="28" height="14"/>
    <text id="LabelI" class="I Label" x="63.0" y="334" style="text-anchor:start;">I</text>
    <path style="fill:none" d="M 48.0,332.0 H 55.0" id="LeaderI" class="Leader I"/>
  </g>
  <g>
    <rect id="ButtonJ" class="J Button" x="11" y="344" width="28" height="14"/>
    <text id="LabelJ" class="J Label" x="63.0" y="353" style="text-anchor:start;">J</text>
    <path style="fill:none" d="M 48.0,351.0 H 55.0" id="LeaderJ" class="Leader J"/>
  </g>
  <g>
    <rect id="ButtonK" class="K Button" x="696" y="68" width="28" height="14"/>
    <text id="LabelK" class="K Label" x="748.0" y="77" style="text-anchor:start;">K</text>
    <path style="fill:none" d="M 733.0,75.0 H 740.0" id="LeaderK" class="Leader K"/>
  </g>
  <g>
    <rect id="ButtonL" class="L Button" x="696" y="87" width="28" height="14"/>
    <text id="LabelL" class="L Label" x="748.0" y="96" style="text-anchor:start;">L</text>
    <path style="fill:none" d="M 733.0,94.0 H 740.0" id="LeaderL" class="Leader L"/>
  </g>
  <g>
    <rect id="ButtonM" class="M Button" x="696" y="106" width="28" height="14"/>
    <text id="LabelM" class="M Label" x="748.0" y="115" style="text-anchor:start;">M</text>
    <path style="fill:none" d="M 733.0,113.0 H 740.0" id="LeaderM" class="Leader M"/>
  </g>
  <g>
    <rect id="ButtonN" class="N Button" x="696" y="126" width="28" height="14"/>
    <text id="LabelN" class="N Label" x="748.0" y="135" style="text-anchor:start;">N</text>
    <path style="fill:none" d="M 733.0,133.0 H 740.0" id="LeaderN" class="Leader N"/>
  </g>
  <g>
    <rect id="ButtonO" class="O Button" x="696" y="146" width="28" height="14"/>
    <text id="LabelO" class="O Label" x="748.0" y="155" style="text-anchor:start;">O</text>
    <path style="fill:none" d="M 733.0,153.0 H 740.0" id="LeaderO" class="Leader O"/>
  </g>
  <g>
    <rect id="ButtonP" class="P Button" x="695" y="267" width="28" height="14"/>
    <text id="LabelP" class="P Label" x="747.0" y="276" style="text-anchor:start;">P</text>
    <path style="fill:none" d="M 732.0,274.0 H 739.0" id="LeaderP" class="Leader P"/>
  </g>
  <g>
    <rect id="ButtonQ" class="Q Button" x="695" y="286" width="28" height="14"/>
    <text id="LabelQ" class="Q Label" x="747.0" y="295" style="text-anchor:start;">Q</text>
    <path style="fill:none" d="M 732.0,293.0 H 739.0" id="LeaderQ" class="Leader Q"/>
  </g>
  <g>
    <rect id="ButtonR" class="R Button" x="695" y="306" width="28" height="14"/>
    <text id="LabelR" class="R Label" x="747.0" y="315" style="text-anchor:start;">R</text>
    <path style="fill:none" d="M 732.0,313.0 H 739.0" id="LeaderR" class="Leader R"/>
  </g>
  <g>
    <rect id="ButtonS" class="S Button" x="695" y="325" width="28" height="14"/>
    <text id="LabelS" class="S Label" x="747.0" y="334" style="text-anchor:start;">S</text>
    <path style="fill:none" d="M 732.0,332.0 H 739.0" id="LeaderS" class="Leader S"/>
  </g>
  <g>
    <rect id="ButtonT" class="T Button" x="695" y="345" width="28" height="14"/>
    <text id="LabelT" class="T Label" x="747.0" y="354" style="text-anchor:start;">T</text>
    <path style="fill:none" d="M 732.0,352.0 H 739.0" id="LeaderT" class="Leader T"/>
  </g>
</svg>
