<?xml version='1.0' encoding='ASCII'?>
<!DOCTYPE svg PUBLIC "-//W3C//DTD SVG 1.1//EN" "http://www.w3.org/Graphics/SVG/1.1/DTD/svg11.dtd">
<svg xmlns="http://www.w3.org/2000/svg" version="1.1" style="color:#000000;stroke:#7f7f7f;fill:none;stroke-width:.25;font-size:8" id="huion-kamvas-pro-16-gt-156" width="750" height="430">
  <title id="title">KAMVAS Pro 16 GT-156</title>
  <rect x="99" y="47" width="593" height="334"/>
  <g>
    <rect id="ButtonA" class="A Button" x="28" y="87" width="19" height="19"/>
    <text id="LabelA" class="A Label" x="75.5" y="98.5" style="text-anchor:start;">A</text>
    <path style="fill:none" d="M 60.5,96.5 H 67.5" id="LeaderA" class="Leader A"/>
  </g>
  <g>
    <rect id="ButtonB" class="B Button" x="28" y="112" width="19" height="19"/>
    <text id="LabelB" class="B Label" x="75.5" y="123.5" style="text-anchor:start;">B</text>
    <path style="fill:none" d="M 60.5,121.5 H 67.5" id="LeaderB" class="Leader B"/>
  </g>
  <g>
    <rect id="ButtonC" class="C Button" x="28" y="136" width="19" height="19"/>
    <text id="LabelC" class="C Label" x="75.5" y="147.5" style="text-anchor:start;">C</text>
    <path style="fill:none" d="M 60.5,145.5 H 67.5" id="LeaderC" class="Leader C"/>
  </g>
  <g>
    <rect id="ButtonD" class="D Button" x="28" y="276" width="19" height="19"/>
    <text id="LabelD" class="D Label" x="75.5" y="287.5" style="text-anchor:start;">D</text>
    <path style="fill:none" d="M 60.5,285.5 H 67.5" id="LeaderD" class="Leader D"/>
  </g>
  <g>
    <rect id="ButtonE" class="E Button" x="28" y="300" width="19" height="19"/>
    <text id="LabelE" class="E Label" x="75.5" y="311.5" style="text-anchor:start;">E</text>
    <path style="fill:none" d="M 60.5,309.5 H 67.5" id="LeaderE" class="Leader E"/>
  </g>
  <g>
    <rect id="ButtonF" class="F Button" x="28" y="324" width="19" height="19"/>
    <text id="LabelF" class="F Label" x="75.5" y="335.5" style="text-anchor:start;">F</text>
    <path style="fill:none" d="M 60.5,333.5 H 67.5" id="LeaderF" class="Leader F"/>
  </g>
  <g>
    <rect id="ButtonG" class="G Button" x="26" y="347" width="24" height="24"/>
    <text id="LabelG" class="G Label" x="76.0" y="361" style="text-anchor:start;">G</text>
    <path style="fill:none" d="M 61.0,359.0 H 68.0" id="LeaderG" class="Leader G"/>
  </g>
</svg>
