<?xml version='1.0' encoding='ASCII'?>
<!DOCTYPE svg PUBLIC "-//W3C//DTD SVG 1.1//EN" "http://www.w3.org/Graphics/SVG/1.1/DTD/svg11.dtd">
<svg xmlns="http://www.w3.org/2000/svg" version="1.1" style="color:#000000;stroke:#7f7f7f;fill:none;stroke-width:.25;font-size:8" id="huion-inspiroy-q11k-v2" width="750" height="427">
  <title id="title">INSPIROY Q11K V2</title>
  <rect x="150" y="41" width="539" height="339"/>
  <g>
    <rect id="ButtonA" class="A Button" x="48" y="45" width="36" height="24"/>
    <text id="LabelA" class="A Label" x="104.0" y="59" style="text-anchor:start;">A</text>
    <path style="fill:none" d="M 89.0,57.0 H 96.0" id="LeaderA" class="Leader A"/>
  </g>
  <g>
    <rect id="ButtonB" class="B Button" x="48" y="78" width="36" height="24"/>
    <text id="LabelB" class="B Label" x="104.0" y="92" style="text-anchor:start;">B</text>
    <path style="fill:none" d="M 89.0,90.0 H 96.0" id="LeaderB" class="Leader B"/>
  </g>
  <g>
    <rect id="ButtonC" class="C Button" x="48" y="112" width="36" height="24"/>
    <text id="LabelC" class="C Label" x="104.0" y="126" style="text-anchor:start;">C</text>
    <path style="fill:none" d="M 89.0,124.0 H 96.0" id="LeaderC" class="Leader C"/>
  </g>
  <g>
    <rect id="ButtonD" class="D Button" x="48" y="146" width="36" height="24"/>
    <text id="LabelD" class="D Label" x="104.0" y="160" style="text-anchor:start;">D</text>
    <path style="fill:none" d="M 89.0,158.0 H 96.0" id="LeaderD" class="Leader D"/>
  </g>
  <g>
    <rect id="ButtonE" class="E Button" x="48" y="250" width="36" height="24"/>
    <text id="LabelE" class="E Label" x="104.0" y="264" style="text-anchor:start;">E</text>
    <path style="fill:none" d="M 89.0,262.0 H 96.0" id="LeaderE" class="Leader E"/>
  </g>
  <g>
    <rect id="ButtonF" class="F Button" x="48" y="284" width="36" height="24"/>
    <text id="LabelF" class="F Label" x="104.0" y="298" style="text-anchor:start;">F</text>
    <path style="fill:none" d="M 89.0,296.0 H 96.0" id="LeaderF" class="Leader F"/>
  </g>
  <g>
    <rect id="ButtonG" class="G Button" x="49" y="317" width="36" height="24"/>
    <text id="LabelG" class="G Label" x="105.0" y="331" style="text-anchor:start;">G</text>
    <path style="fill:none" d="M 90.0,329.0 H 97.0" id="LeaderG" class="Leader G"/>
  </g>
  <g>
    <rect id="ButtonH" class="H Button" x="48" y="351" width="36" height="24"/>
    <text id="LabelH" class="H Label" x="104.0" y="365" style="text-anchor:start;">H</text>
    <path style="fill:none" d="M 89.0,363.0 H 96.0" id="LeaderH" class="Leader H"/>
  </g>
</svg>
