<?xml version='1.0' encoding='ASCII'?>
<!DOCTYPE svg PUBLIC "-//W3C//DTD SVG 1.1//EN" "http://www.w3.org/Graphics/SVG/1.1/DTD/svg11.dtd">
<svg xmlns="http://www.w3.org/2000/svg" version="1.1" style="color:#000000;stroke:#7f7f7f;fill:none;stroke-width:.25;font-size:8" id="huion-inspiroy-h1161" width="725" height="430">
  <title id="title">INSPIROY H1161</title>
  <rect x="140" y="43" width="547" height="342"/>
  <g>
    <rect id="ButtonA" class="A Button" x="34" y="52" width="36" height="26"/>
    <text id="LabelA" class="A Label" x="90.0" y="67" style="text-anchor:start;">A</text>
    <path style="fill:none" d="M 75.0,65.0 H 82.0" id="LeaderA" class="Leader A"/>
  </g>
  <g>
    <rect id="ButtonB" class="B Button" x="35" y="84" width="36" height="26"/>
    <text id="LabelB" class="B Label" x="91.0" y="99" style="text-anchor:start;">B</text>
    <path style="fill:none" d="M 76.0,97.0 H 83.0" id="LeaderB" class="Leader B"/>
  </g>
  <g>
    <rect id="ButtonC" class="C Button" x="35" y="116" width="36" height="26"/>
    <text id="LabelC" class="C Label" x="91.0" y="131" style="text-anchor:start;">C</text>
    <path style="fill:none" d="M 76.0,129.0 H 83.0" id="LeaderC" class="Leader C"/>
  </g>
  <g>
    <rect id="ButtonD" class="D Button" x="35" y="149" width="36" height="26"/>
    <text id="LabelD" class="D Label" x="91.0" y="164" style="text-anchor:start;">D</text>
    <path style="fill:none" d="M 76.0,162.0 H 83.0" id="LeaderD" class="Leader D"/>
  </g>
  <g>
    <rect id="ButtonE" class="E Button ModeSwitch" x="33" y="180" width="38" height="34"/>
    <text id="LabelE" class="E Label ModeSwitch" x="90.0" y="199" style="text-anchor:start;">E</text>
    <path style="fill:none" d="M 75.0,197.0 H 82.0" id="LeaderE" class="Leader E ModeSwitch"/>
  </g>
  <g>
    <rect id="ButtonF" class="F Button" x="33" y="217" width="38" height="30"/>
    <text id="LabelF" class="F Label" x="90.0" y="234" style="text-anchor:start;">F</text>
    <path style="fill:none" d="M 75.0,232.0 H 82.0" id="LeaderF" class="Leader F"/>
  </g>
  <g>
    <rect id="ButtonG" class="G Button" x="35" y="255" width="36" height="26"/>
    <text id="LabelG" class="G Label" x="91.0" y="270" style="text-anchor:start;">G</text>
    <path style="fill:none" d="M 76.0,268.0 H 83.0" id="LeaderG" class="Leader G"/>
  </g>
  <g>
    <rect id="ButtonH" class="H Button" x="35" y="287" width="36" height="26"/>
    <text id="LabelH" class="H Label" x="91.0" y="302" style="text-anchor:start;">H</text>
    <path style="fill:none" d="M 76.0,300.0 H 83.0" id="LeaderH" class="Leader H"/>
  </g>
  <g>
    <rect id="ButtonI" class="I Button" x="35" y="320" width="36" height="26"/>
    <text id="LabelI" class="I Label" x="91.0" y="335" style="text-anchor:start;">I</text>
    <path style="fill:none" d="M 76.0,333.0 H 83.0" id="LeaderI" class="Leader I"/>
  </g>
  <g>
    <rect id="ButtonJ" class="J Button" x="35" y="352" width="36" height="26"/>
    <text id="LabelJ" class="J Label" x="91.0" y="367" style="text-anchor:start;">J</text>
    <path style="fill:none" d="M 76.0,365.0 H 83.0" id="LeaderJ" class="Leader J"/>
  </g>

  <g>
    <rect id="Strip" class="Strip TouchStrip" x="120" y="116" width="6" height="200"/>
    <text id="LabelStripUp" class="StripUp Strip Label" x="118" y="100">UP</text>
    <path style="fill:none" d="M 123.0,112.0 V 104.0" id="LeaderStripUp" class="StripUp Strip Leader"/>
    <text id="LabelStripDown" class="StripDown Strip Label" x="111" y="337">DOWN</text>
    <path style="fill:none" d="M 123.0,320.0 V 328.0" id="LeaderStripDown" class="StripDown Strip Leader"/>
  </g>
</svg>
