<?xml version="1.0" standalone="no"?>
<!DOCTYPE svg PUBLIC "-//W3C//DTD SVG 1.1//EN"
   "http://www.w3.org/Graphics/SVG/1.1/DTD/svg11.dtd">
<svg
   xmlns="http://www.w3.org/2000/svg"
   version="1.1"
   style="color:#000000;stroke:#7f7f7f;fill:none;stroke-width:.25;font-size:8"
   id="intuos4-s"
   width="309"
   height="208">
  <title
     id="title">Wacom Intuos4 S</title>
  <g>
    <rect
       id="ButtonB"
       class="B Button"
       rx=".5"
       ry=".5"
       x="24"
       y="36"
       width="22"
       height="12" />
    <path
       id="LeaderB"
       class="B Leader"
       d="M 48 42 L 60 42" />
    <text
       id="LabelB"
       class="B Label"
       x="62"
       y="42"
       style="text-anchor:start;">
      B
    </text>
  </g>
  <g>
    <rect
       id="ButtonC"
       class="C Button"
       rx=".5"
       ry=".5"
       x="24"
       y="49"
       width="22"
       height="12" />
    <path
       id="LeaderC"
       class="C Leader"
       d="M 48 55 L 60 55" />
    <text
       id="LabelC"
       class="C Label"
       x="62"
       y="55"
       style="text-anchor:start;">C</text>
  </g>
  <g>
    <rect
       id="ButtonD"
       class="D Button"
       rx=".5"
       ry=".5"
       x="24"
       y="62"
       width="22"
       height="12" />
    <path
       id="LeaderD"
       class="D Leader"
       d="M 48 68 L 60 68" />
    <text
       id="LabelD"
       class="D Label"
       x="62"
       y="68"
       style="text-anchor:start;">D</text>
  </g>
   <g>
    <rect
       id="ButtonE"
       class="E Button"
       rx=".5"
       ry=".5"
       x="24"
       y="134"
       width="22"
       height="12" />
    <path
       id="LeaderE"
       class="E Leader"
       d="M 48 140 L 60 140" />
    <text
       id="LabelE"
       class="E Label"
       x="62"
       y="140"
       style="text-anchor:start;">E</text>
  </g>
  <g>
    <rect
       id="ButtonF"
       class="F Button"
       rx=".5"
       ry=".5"
       x="24"
       y="147"
       width="22"
       height="12" />
     <path
       id="LeaderF"
       class="F Leader"
       d="M 48 153 L 60 153" />
    <text
       id="LabelF"
       class="F Label"
       x="62"
       y="153"
       style="text-anchor:start;">F</text>
  </g>
  <g>
    <rect
       id="ButtonG"
       class="G Button"
       rx=".5"
       ry=".5"
       x="24"
       y="160"
       width="22"
       height="12" />
    <path
       id="LeaderG"
       class="G Leader"
       d="M 48 166 L 60 166" />
    <text
       id="LabelG"
       class="G Label"
       x="62"
       y="166"
       style="text-anchor:start;">G</text>
  </g>
  <g>
    <circle
       id="Ring"
       class="Ring TouchRing"
       cx="34"
       cy="104"
       r="19.5" />
    <path
       id="LeaderRingCCW"
       class="RingCCW Ring Leader"
       d="M 34 84 L 34 82 L 60 82" />
    <text
       id="LabelRingCCW"
       class="RingCCW Ring Label"
       x="62"
       y="82"
       style="text-anchor:start;">CCW</text>
    <path
       id="RingCCW"
       class="RingCCW Button"
       d="M 31 90 l 3 -1.5 l 0 1 a 7.5 7.5 0 0 1 5 1.5 a 6.5 6.5 0 0 0 -5 -0.5 l 0 1 z" />
    <path
       id="LeaderRingCW"
       class="RingCW Ring Leader"
       d="M 34 124 L 34 126 L 60 126" />
    <text
       id="LabelRingCW"
       class="RingCW Ring Label"
       x="62"
       y="126"
       style="text-anchor:start;">CW</text>
    <path
       id="RingCW"
       class="RingCW Button"
       d="M 31 118 l 3 -1.5 l 0 1 a 7.5 7.5 0 0 0 5 -1 a 6.5 6.5 0 0 1 -5 2 l 0 1 z" />
  </g>
  <g>
    <circle
       id="ButtonA"
       class="A ModeSwitch Button"
       cx="34"
       cy="104"
       r="9.5" />
    <path
       id="LeaderA"
       class="A ModeSwitch Leader"
       d="M 56 104 L 60 104" />
    <text
       id="LabelA"
       class="A ModeSwitch Label"
       x="62"
       y="104"
       style="text-anchor:start;">A</text>
  </g>
</svg>
