<?xml version="1.0" encoding="UTF-8" standalone="no"?>
<!DOCTYPE svg PUBLIC "-//W3C//DTD SVG 1.1//EN" "http://www.w3.org/Graphics/SVG/1.1/DTD/svg11.dtd">
<!--
 -->
<svg xmlns="http://www.w3.org/2000/svg" version="1.1" style="color:#000000;stroke:#7f7f7f;fill:none;stroke-width:.25;font-size:8" id="intuos-s-p" width="275" height="222">
  <title id="title">Wacom Intuos Pen Small (CTL-480)</title>
  <g>
    <path id="ButtonA" class="A Button" d="M 35 35   a 8  8           0            0           1      9 -9   l 14 0   l 0 20   l -23 0   z"/>
    <circle id="DotA" cx="47" cy="36" r=".5"/>
    <path id="LeaderA" class="A Leader" d="M 65 35 l 20 0"/>
    <text id="LabelA" class="A Label" x="87" y="40" style="text-anchor:start;">A</text>
  </g>

  <g>
    <path id="ButtonB" class="B Button" d="M 35 47.5   l 23 0   l 0 20   l -23 0   z"/>
    <circle id="DotB" cx="47" cy="57.5" r=".5"/>
    <path id="LeaderB" class="B Leader" d="M 65 59 l 20 0"/>
    <text id="LabelB" class="B Label" x="87" y="64" style="text-anchor:start;">B</text>
  </g>

  <g>
    <path id="ButtonC" class="C Button" d="M 185 26   l 14 0   a 8  -8           0            0           1      9 9    l 0 11   l -23 0   z"/>
    <circle id="DotC" cx="197" cy="36" r=".5"/>
    <path id="LeaderC" class="C Leader" d="M 160 35 l 20 0"/>
    <text id="LabelC" class="C Label" x="145" y="40" style="text-anchor:start;">C</text>
  </g>


  <g>
    <path id="ButtonD" class="D Button" d="M 185 47.5   l 23 0   l 0 20   l -23 0   z"/>
    <circle id="DotD" cx="197" cy="57.5" r=".5"/>
    <path id="LeaderD" class="D Leader" d="M 160 59 l 20 0"/>
    <text id="LabelD" class="D Label" x="145" y="64" style="text-anchor:start;">D</text>
  </g>

</svg>
