<?xml version="1.0" standalone="no"?>
<!DOCTYPE svg PUBLIC "-//W3C//DTD SVG 1.1//EN"
   "http://www.w3.org/Graphics/SVG/1.1/DTD/svg11.dtd">
<svg
   xmlns="http://www.w3.org/2000/svg"
   version="1.1"
   style="color:#000000;stroke:#7f7f7f;fill:none;stroke-width:.25;font-size:8"
   id="intuos-pro-m"
   width="320"
   height="208">
  <title
     id="title">Wacom Intuos5 Pro S</title>
  <g>
    <rect
       id="ButtonB"
       class="B Button"
       rx="2"
       ry="2"
       x="24"
       y="33"
       width="20"
       height="12" />
    <path
       id="LeaderB"
       class="B Leader"
       d="M 46 39 L 50 39" />
    <text
       id="LabelB"
       class="B Label"
       x="52"
       y="39"
       style="text-anchor:start;">
      B
    </text>
  </g>
  <g>
    <rect
       id="ButtonC"
       class="C Button"
       rx="2"
       ry="2"
       x="24"
       y="47"
       width="20"
       height="12" />
    <rect
       id="DotC1"
       rx="1"
       ry="1"
       x="30"
       y="52.5"
       width="8"
       height="1" />
    <path
       id="LeaderC"
       class="C Leader"
       d="M 46 53 L 50 53" />
    <text
       id="LabelC"
       class="C Label"
       x="52"
       y="53"
       style="text-anchor:start;">C</text>
  </g>
  <g>
    <rect
       id="ButtonD"
       class="D Button"
       rx="2"
       ry="2"
       x="24"
       y="61"
       width="20"
       height="12" />
    <path
       id="LeaderD"
       class="D Leader"
       d="M 46 67 L 50 67" />
    <text
       id="LabelD"
       class="D Label"
       x="52"
       y="67"
       style="text-anchor:start;">D</text>
  </g>
   <g>
    <rect
       id="ButtonE"
       class="E Button"
       rx="2"
       ry="2"
       x="24"
       y="135"
       width="20"
       height="12" />
    <path
       id="LeaderE"
       class="E Leader"
       d="M 46 141 L 50 141" />
    <text
       id="LabelE"
       class="E Label"
       x="52"
       y="141"
       style="text-anchor:start;">E</text>
  </g>
  <g>
    <rect
       id="ButtonF"
       class="F Button"
       rx="2"
       ry="2"
       x="24"
       y="149"
       width="20"
       height="12" />
     <rect
       id="DotF1"
       rx="1"
       ry="1"
       x="30"
       y="154.5"
       width="8"
       height="1" />
    <path
       id="LeaderF"
       class="F Leader"
       d="M 46 155 L 50 155" />
    <text
       id="LabelF"
       class="F Label"
       x="52"
       y="155"
       style="text-anchor:start;">F</text>
  </g>
  <g>
    <rect
       id="ButtonG"
       class="G Button"
       rx="2"
       ry="2"
       x="24"
       y="163"
       width="20"
       height="12" />
    <path
       id="LeaderG"
       class="G Leader"
       d="M 46 169 L 50 169" />
    <text
       id="LabelG"
       class="G Label"
       x="52"
       y="169"
       style="text-anchor:start;">G</text>
  </g>
    <g>
    <circle
       id="Ring"
       class="Ring TouchRing"
       cx="34"
       cy="104"
       r="19.5" />
    <path
       id="LeaderRingCCW"
       class="RingCCW Ring Leader"
       d="M 34 84 L 34 82 L 60 82" />
    <text
       id="LabelRingCCW"
       class="RingCCW Ring Label"
       x="62"
       y="82"
       style="text-anchor:start;">CCW</text>
    <path
       id="RingCCW"
       class="RingCCW Button"
       d="M 31 90 l 3 -1.5 l 0 1 a 7.5 7.5 0 0 1 5 1.5 a 6.5 6.5 0 0 0 -5 -0.5 l 0 1 z" />
    <path
       id="LeaderRingCW"
       class="RingCW Ring Leader"
       d="M 34 124 L 34 126 L 60 126" />
    <text
       id="LabelRingCW"
       class="RingCW Ring Label"
       x="62"
       y="126"
       style="text-anchor:start;">CW</text>
    <path
       id="RingCW"
       class="RingCW Button"
       d="M 31 118 l 3 -1.5 l 0 1 a 7.5 7.5 0 0 0 5 -1 a 6.5 6.5 0 0 1 -5 2 l 0 1 z" />
  </g>
  <g>
    <circle
       id="ButtonA"
       class="A ModeSwitch Button"
       cx="34"
       cy="104"
       r="9.5" />
    <path
       id="LeaderA"
       class="A ModeSwitch Leader"
       d="M 56 104 L 60 104" />
    <text
       id="LabelA"
       class="A ModeSwitch Label"
       x="62"
       y="104"
       style="text-anchor:start;">A</text>
  </g>
</svg>
