<?xml version="1.0" standalone="no"?>
<!DOCTYPE svg PUBLIC "-//W3C//DTD SVG 1.1//EN"
   "http://www.w3.org/Graphics/SVG/1.1/DTD/svg11.dtd">
<svg
   xmlns="http://www.w3.org/2000/svg"
   version="1.1"
   style="color:#000000;stroke:#7f7f7f;fill:none;stroke-width:.25;font-size:8"
   id="intuos4-xl"
   width="623"
   height="462">
  <title
     id="title">Wacom Intuos4 XL</title>
  <g>
    <rect
       id="ButtonB"
       class="B Button"
       rx=".5"
       ry=".5"
       x="14"
       y="149"
       width="22"
       height="12" />
    <path
       id="LeaderB"
       class="B Leader"
       d="M 38 155 L 60 155" />
    <text
       id="LabelB"
       class="B Label"
       x="62"
       y="155"
       style="text-anchor:start;">
      B
    </text>
  </g>
  <g>
    <rect
       id="ButtonC"
       class="C Button"
       rx=".5"
       ry=".5"
       x="14"
       y="162"
       width="22"
       height="12" />
    <path
       id="LeaderC"
       class="C Leader"
       d="M 38 168 L 60 168" />
    <text
       id="LabelC"
       class="C Label"
       x="62"
       y="168"
       style="text-anchor:start;">C</text>
  </g>
  <g>
    <rect
       id="ButtonD"
       class="D Button"
       rx=".5"
       ry=".5"
       x="14"
       y="175"
       width="22"
       height="12" />
    <path
       id="LeaderD"
       class="D Leader"
       d="M 38 181 L 60 181" />
    <text
       id="LabelD"
       class="D Label"
       x="62"
       y="181"
       style="text-anchor:start;">D</text>
  </g>
  <g>
    <rect
       id="ButtonE"
       class="E Button"
       rx=".5"
       ry=".5"
       x="14"
       y="188"
       width="22"
       height="12" />
    <path
       id="LeaderE"
       class="E Leader"
       d="M 38 194 L 60 194" />
    <text
       id="LabelE"
       class="E Label"
       x="62"
       y="194"
       style="text-anchor:start;">E</text>
  </g>
  <g>
    <rect
       id="ButtonF"
       class="F Button"
       rx=".5"
       ry=".5"
       x="14"
       y="260"
       width="22"
       height="12" />
    <path
       id="LeaderF"
       class="F Leader"
       d="M 38 266 L 60 266" />
    <text
       id="LabelF"
       class="F Label"
       x="62"
       y="266"
       style="text-anchor:start;">F</text>
  </g>
  <g>
    <rect
       id="ButtonG"
       class="G Button"
       rx=".5"
       ry=".5"
       x="14"
       y="273"
       width="22"
       height="12" />
     <path
       id="LeaderG"
       class="G Leader"
       d="M 38 279 L 60 279" />
    <text
       id="LabelG"
       class="G Label"
       x="62"
       y="279"
       style="text-anchor:start;">G</text>
  </g>
  <g>
    <rect
       id="ButtonH"
       class="H Button"
       rx=".5"
       ry=".5"
       x="14"
       y="286"
       width="22"
       height="12" />
    <path
       id="LeaderH"
       class="H Leader"
       d="M 38 292 L 60 292" />
    <text
       id="LabelH"
       class="H Label"
       x="62"
       y="292"
       style="text-anchor:start;">H</text>
  </g>
  <g>
    <rect
       id="ButtonI"
       class="I Button"
       rx=".5"
       ry=".5"
       x="14"
       y="299"
       width="22"
       height="12" />
    <path
       id="LeaderI"
       class="I Leader"
       d="M 38 305 L 60 305" />
    <text
       id="LabelI"
       class="I Label"
       x="62"
       y="305"
       style="text-anchor:start;">I</text>
  </g>
  <g>
    <circle
       id="Ring"
       class="Ring TouchRing"
       cx="34"
       cy="230"
       r="19.5" />
    <path
       id="LeaderRingCCW"
       class="RingCCW Ring Leader"
       d="M 34 210 L 34 208 L 60 208" />
    <text
       id="LabelRingCCW"
       class="RingCCW Ring Label"
       x="62"
       y="208"
       style="text-anchor:start;">CCW</text>
    <path
       id="RingCCW"
       class="RingCCW Button"
       d="M 31 216 l 3 -1.5 l 0 1 a 7.5 7.5 0 0 1 5 1.5 a 6.5 6.5 0 0 0 -5 -0.5 l 0 1 z" />
    <path
       id="LeaderRingCW"
       class="RingCW Ring Leader"
       d="M 34 250 L 34 252 L 60 252" />
    <text
       id="LabelRingCW"
       class="RingCW Ring Label"
       x="62"
       y="252"
       style="text-anchor:start;">CW</text>
    <path
       id="RingCW"
       class="RingCW Button"
       d="M 31 244 l 3 -1.5 l 0 1 a 7.5 7.5 0 0 0 5 -1 a 6.5 6.5 0 0 1 -5 2 l 0 1 z" />
  </g>
  <g>
    <circle
       id="ButtonA"
       class="A ModeSwitch Button"
       cx="34"
       cy="230"
       r="9.5" />
    <path
       id="LeaderA"
       class="A ModeSwitch Leader"
       d="M 56 230 L 60 230" />
    <text
       id="LabelA"
       class="A ModeSwitch Label"
       x="62"
       y="230"
       style="text-anchor:start;">A</text>
  </g>
</svg>
