<?xml version="1.0" encoding="UTF-8" standalone="no"?>
<!DOCTYPE svg PUBLIC "-//W3C//DTD SVG 1.1//EN" "http://www.w3.org/Graphics/SVG/1.1/DTD/svg11.dtd">
<!--
 -->
<svg xmlns="http://www.w3.org/2000/svg" version="1.1" style="color:#000000;stroke:#7f7f7f;fill:none;stroke-width:.25;font-size:8" id="intuos-s-pt" width="209" height="175">
  <title id="title">Wacom Intuos PT Small (CTH-480)</title>
  <g>
    <path id="ButtonA" class="A Button" d="M 2,10.5 a 12.75,8.5 0 0 1 12.75,-8.5 l 23.75,0 l 0,19 l -36.5,0 z"/>
    <circle id="DotA" cx="20.25" cy="11.5" r=".5"/>
    <path id="LeaderA" class="A Leader" d="M 40,11.5 l 20,0"/>
    <text id="LabelA" class="A Label" x="62" y="11.5" style="text-anchor:start;">A</text>
  </g>

  <g>
    <path id="ButtonB" class="B Button" d="M 2,22 l 36.5,0 l 0,19 l -36.5,0 z"/>
    <circle id="DotB" cx="20.25" cy="31.5" r=".5"/>
    <path id="LeaderB" class="B Leader" d="M 40,31.5 l 20,0"/>
    <text id="LabelB" class="B Label" x="62" y="31.5" style="text-anchor:start;">B</text>
  </g>

  <g>
    <path id="ButtonC" class="C Button" d="M 170.5,2 l 23.75,0 a 12.75,8.5 0 0 1 12.75,8.5 l 0,10.5 l -36.5,0 z"/>
    <circle id="DotC" cx="188.75" cy="11.5" r=".5"/>
    <path id="LeaderC" class="C Leader" d="M 168,11.5 l -20,0"/>
    <text id="LabelC" class="C Label" x="146" y="11.5" style="text-anchor:end;">C</text>
  </g>

  <g>
    <path id="ButtonD" class="D Button" d="M 170.5,22 l 36.5,0 l 0,19 l -36.5,0 z"/>
    <circle id="DotD" cx="188.75" cy="31.5" r=".5"/>
    <path id="LeaderD" class="D Leader" d="M 168,31.5 l -20,0"/>
    <text id="LabelD" class="D Label" x="146" y="31.5" style="text-anchor:end;">D</text>
  </g>
</svg>
