<?xml version="1.0" encoding="UTF-8" standalone="no"?>
<!--
  Loosely designed from bamboo-0fg-s-p.svg and online images
  Size and positions of controls may not be accurate
 -->

<svg
   xmlns="http://www.w3.org/2000/svg"
   version="1.1"
   width="193mm"
   height="180mm"
   style="color:#000000;stroke:#7f7f7f;fill:none;stroke-width:0.25;font-size:8">
  <title
     id="title">Wacom Bamboo CTE-450</title>
  <g>
    <circle
       id="ButtonA"
       class="A Button"
       cx="230.5"
       cy="35.5"
       r="25.0" />
    <path
       id="LeaderA"
       class="A Leader"
       d="m 200.0,38.0 l -47.0 0.0" />
    <text
       id="LabelA"
       class="A Label"
       x="151.0"
       y="38.0"
       style="text-anchor:end;">
      A
    </text>
    <path
       id="ButtonAArrow"
       d="m 234.0,28.5 -7.0,7.0 7.0,7.0" />
  </g>
  <g>
    <circle
       id="ButtonB"
       class="B Button"
       cx="450.0"
       cy="35.5"
       r="25.0" />
    <path
       id="LeaderB"
       class="B Leader"
       d="m 532.0,38.0 l -47.0 0.0" />
    <text
       id="LabelB"
       class="B Label"
       x="534.0"
       y="38.0"
       style="text-anchor:start;">
      B
    </text>
    <path
       id="ButtonBArrow"
       d="m 446.5,28.5 7.0,7.0 -7.0,7.0" />
  </g>
  <g>
    <circle
       id="ButtonC"
       class="C Button"
       cx="245.5"
       cy="112.75"
       r="25.0" />
    <path
       id="LeaderC"
       class="C Leader"
       d="m 215.0,115.0 l -62.0 0.0" />
    <text
       id="LabelC"
       class="C Label"
       x="151.0"
       y="115.0"
       style="text-anchor:end;">
      C
    </text>
    <text
       x="233.0"
       y="118.0"
       style="text-anchor:start;">
      FN1
    </text>
  </g>
  <g>
    <circle
       id="ButtonD"
       class="D Button"
       cx="435.0"
       cy="112.75"
       r="25.0" />
    <path
       id="LeaderD"
       class="D Leader"
       d="m 532.0,115.0 l -62.0 0.0" />
    <text
       id="LabelD"
       class="D Label"
       x="534.0"
       y="115.0"
       style="text-anchor:start;">
      D
    </text>
    <text
       x="423.0"
       y="118.0"
       style="text-anchor:start;">
      FN2
    </text>
  </g>
  <g>
    <circle
       id="Ring"
       class="Ring TouchRing"
       cx="342.0"
       cy="74.5"
       r="50.5" />
    <path
       id="RingCCW"
       class="RingCW Button"
       d="m 372.5,103.0 -3.5,-3.5 c 17.5,-17.5 7.0,-42.5 3.5,-53.1 7.0,7.0 21.5,39.0 0,56.5 z" />
    <path
       id="RingDown"
       class="RingCCW Button"
       d="m 340.0,35.5 -3.5,7.0 7.0,0 z" />
    <path
       id="LeaderRingCCW"
       class="RingCCW Ring Leader"
       d="m 372.5,110.0 l 0.0,55.0 l 30.0,0.0" />
    <text
       id="LabelRingCCW"
       class="RingCCW Ring Label"
       x="404.0"
       y="165.0"
       style="text-anchor:start;">
      CCW
    </text>
    <path
       id="RingCW"
       class="RingCW Button"
       d="m 312.0,46.0 3.5,3.5 c -17.5,17.5 -7.0,42.5 -3.5,53.0 -7.0,-7.0 -21.5,-39.0 0,-56.5 z" />
    <path
       id="RingUp"
       class="RingCW Button"
       d="m 340.0,117.0 -3.5,-7.0 7.0,0 z" />
    <path
       id="LeaderRingCW"
       class="RingCW Ring Leader"
       d="m 312.0,110.0 l 0.0,55.0 l -30.0,0.0" />
    <text
       id="LabelRingCW"
       class="RingCW Ring Label"
       x="280.0"
       y="165.0"
       style="text-anchor:end;">
      CW
    </text>
  </g>
</svg>
