<?xml version="1.0" standalone="no"?>
<!DOCTYPE svg PUBLIC "-//W3C//DTD SVG 1.1//EN"
   "http://www.w3.org/Graphics/SVG/1.1/DTD/svg11.dtd">
<svg
   xmlns="http://www.w3.org/2000/svg"
   version="1.1"
   style="color:#000000;stroke:#7f7f7f;fill:none;stroke-width:.25;font-size:8"
   id="intuos-pro-m"
   width="380"
   height="250">
  <title
     id="title">Wacom MobileStudio Pro 16</title>
  <g>
    <circle
       id="Ring"
       class="Ring TouchRing"
       cx="34"
       cy="125"
       r="19.5" />
    <path
       id="LeaderRingCW"
       class="RingCW Ring Leader"
       d="M 12 111 L 12 96 L 65 96 L 65 83 L 73 83" />
    <text
       id="LabelRingCW"
       class="RingCW Ring Label"
       x="75"
       y="83"
       style="text-anchor:start;">CW</text>
    <g transform="rotate(-90,31,111) translate(-10,-20)">
      <path
         id="RingCW"
         class="RingCW Button"
         d="M 31 111 l 3 -1.5 l 0 1 a 7.5 7.5 0 0 1 5 1.5 a 6.5 6.5 0 0 0 -5 -0.5 l 0 1 z" />
    </g>
    <path
       id="LeaderRingCCW"
       class="RingCCW Ring Leader"
       d="M 12 139 L 12 154 L 65 154 L 65 167 L 73 167" />
    <text
       id="LabelRingCCW"
       class="RingCCW Ring Label"
       x="75"
       y="167"
       style="text-anchor:start;">CCW</text>
    <g transform="rotate(90,31,139) translate(-10,20)">
      <path
         id="RingCCW"
         class="RingCCW Button"
         d="M 31 139 l 3 -1.5 l 0 1 a 7.5 7.5 0 0 0 5 -1 a 6.5 6.5 0 0 1 -5 2 l 0 1 z" />
    </g>
  </g>
  <g>
    <rect
       id="ButtonA"
       class="A Button"
       rx="2"
       ry="2"
       x="24"
       y="40"
       width="20"
       height="12" />
    <circle
       id="DotA1"
       cx="34"
       cy="46"
       r=".75" />
    <path
       id="LeaderA"
       class="A Leader"
       d="M 47 46 L 49 46 L 49 27 L 63 27" />
    <text
       id="LabelA"
       class="A Label"
       x="65"
       y="27"
       style="text-anchor:start;">A</text>
  </g>
  <g>
    <rect
       id="ButtonB"
       class="B Button"
       rx="2"
       ry="2"
       x="24"
       y="54"
       width="20"
       height="12" />
    <path
       id="LeaderB"
       class="B Leader"
       d="M 46 60 L 53 60 L 53 41 L 63 41" />
    <text
       id="LabelB"
       class="B Label"
       x="65"
       y="41"
       style="text-anchor:start;">B</text>
  </g>
  <g>
    <rect
       id="ButtonC"
       class="C Button"
       rx="2"
       ry="2"
       x="24"
       y="68"
       width="20"
       height="12" />
    <circle
       id="DotC1"
       cx="34"
       cy="74"
       r=".75" />
    <path
       id="LeaderC"
       class="C Leader"
       d="M 46 74 L 57 74 L 57 55 L 63 55" />
    <text
       id="LabelC"
       class="C Label"
       x="65"
       y="55"
       style="text-anchor:start;">C</text>
  </g>
  <g>
    <rect
       id="ButtonD"
       class="D Button"
       rx="2"
       ry="2"
       x="24"
       y="82"
       width="20"
       height="12" />
    <path
       id="LeaderD"
       class="D Leader"
       d="M 46 88 L 61 88 L 61 69 L 63 69" />
    <text
       id="LabelD"
       class="D Label"
       x="65"
       y="69"
       style="text-anchor:start;">D</text>
  </g>
  <g>
    <rect
       id="ButtonE"
       class="E Button"
       rx="2"
       ry="2"
       x="24"
       y="156"
       width="20"
       height="12" />
    <path
       id="LeaderE"
       class="E Leader"
       d="M 46 162 L 61 162 L 61 181 L 63 181" />
    <text
       id="LabelE"
       class="E Label"
       x="65"
       y="181"
       style="text-anchor:start;">E</text>
  </g>
  <g>
    <rect
       id="ButtonF"
       class="F Button"
       rx="2"
       ry="2"
       x="24"
       y="170"
       width="20"
       height="12" />
    <circle
       id="DotF1"
       cx="34"
       cy="176"
       r=".75" />
    <path
       id="LeaderF"
       class="F Leader"
       d="M 46 176 L 57 176 L 57 195 L 63 195" />
    <text
       id="LabelF"
       class="F Label"
       x="65"
       y="195"
       style="text-anchor:start;">F</text>
  </g>
  <g>
    <rect
       id="ButtonG"
       class="G Button"
       rx="2"
       ry="2"
       x="24"
       y="184"
       width="20"
       height="12" />
    <path
       id="LeaderG"
       class="G Leader"
       d="M 46 190 L 53 190 L 53 209 L 63 209" />
    <text
       id="LabelG"
       class="G Label"
       x="65"
       y="209"
       style="text-anchor:start;">G</text>
  </g>
  <g>
    <rect
       id="ButtonH"
       class="H Button"
       rx="2"
       ry="2"
       x="24"
       y="198"
       width="20"
       height="12" />
    <circle
       id="DotF1"
       cx="34"
       cy="204"
       r=".75" />
    <path
       id="LeaderH"
       class="H Leader"
       d="M 46 204 L 49 204 L 49 223 L 63 223" />
    <text
       id="LabelH"
       class="H Label"
       x="65"
       y="223"
       style="text-anchor:start;">H</text>
  </g>
  <g>
    <circle
       id="ButtonI"
       class="I Button"
       cx="34"
       cy="125"
       r="9.5" />
    <path
       id="LeaderI"
       class="I Leader"
       d="M 25 116 L 20 106 L 20 101 L 69 101 L 69 97 L 73 97" />
    <text
       id="LabelI"
       class="I Label"
       x="75"
       y="97"
       style="text-anchor:start;">I</text>
  </g>
  <g>
    <circle
       id="ButtonJ"
       class="J ModeSwitch Button"
       cx="48.5"
       cy="125"
       r=".75" />
    <path
       id="LeaderJ"
       class="J ModeSwitch Leader"
       d="M 56 125 L 73 125" />
    <text
       id="LabelJ"
       class="J ModeSwitch Label"
       x="75"
       y="125"
       style="text-anchor:start;">J</text>
  </g>
  <g>
    <circle
       id="ButtonK"
       class="K ModeSwitch Button"
       cx="34"
       cy="110.5"
       r=".75" />
    <path
       id="LeaderK"
       class="K ModeSwitch Leader"
       d="M 38 111 L 73 111" />
    <text
       id="LabelK"
       class="K ModeSwitch Label"
       x="75"
       y="111"
       style="text-anchor:start;">K</text>
  </g>
  <g>
    <circle
       id="ButtonL"
       class="L ModeSwitch Button"
       cx="19.5"
       cy="125"
       r=".75" />
    <path
       id="LeaderL"
       class="L ModeSwitch Leader"
       d="M 19 129 L 19 148 L 69 148 L 69 153 L 73 153" />
    <text
       id="LabelL"
       class="L ModeSwitch Label"
       x="75"
       y="153"
       style="text-anchor:start;">L</text>
  </g>
  <g>
    <circle
       id="ButtonM"
       class="M ModeSwitch Button"
       cx="34"
       cy="139.5"
       r=".75" />
    <path
       id="LeaderM"
       class="M ModeSwitch Leader"
       d="M 38 139 L 73 139" />
    <text
       id="LabelM"
       class="M ModeSwitch Label"
       x="75"
       y="139"
       style="text-anchor:start;">M</text>
  </g>
</svg>
