<?xml version="1.0" encoding="UTF-8" standalone="no"?>
<!-- Created with Inkscape (http://www.inkscape.org/) -->

<svg
   width="291mm"
   height="205mm"
   viewBox="0 0 291 205"
   version="1.1"
   id="intuos-pro-m-ptk670"
   style="fill:none;stroke:#7f7f7f;stroke-width:0.25;font-size:6;font-family:monospace"
   xmlns="http://www.w3.org/2000/svg"
   xmlns:svg="http://www.w3.org/2000/svg">
  <title
     id="title">Wacom Intuos Pro M (PTK670)</title>
  <g
     id="g1">
    <path
       id="ButtonA"
       class="Button A"
       d="M 81.0475 6.4004 C 76.0377 1.76944 68.3093 1.76813 63.2977 6.3974 L 67.6702 10.7699 C 70.2604 8.54602 74.0865 8.5473 76.6753 10.7729 Z" />
    <path
       id="LeaderA"
       class="Leader A"
       d="M 50.8345 6.89279 L 67.0815 6.89279" />
    <text
       id="LabelA"
       class="Label A"
       x="45.8345"
       y="7.11235"
       style="text-anchor:end;">A</text>
  </g>
  <g
     id="g2">
    <path
       id="ButtonB"
       class="Button B"
       d="M 77.372 20.4721 L 81.7585 24.8587 C 86.4055 19.8443 86.4065 12.0967 81.7595 7.08171 L 77.3717 11.4696 C 79.5949 14.0587 79.5949 17.8831 77.3717 20.4721 Z" />
    <path
       id="LeaderB"
       class="Leader B"
       d="M 50.8345 43.56015 L 83.0385 43.56015 L 82.9645 19.5" />
    <text
       id="LabelB"
       class="Label B"
       x="45.8345"
       y="43.77971"
       style="text-anchor:end;">B</text>
  </g>
  <g
     id="g3">
    <path
       id="ButtonC"
       class="Button C"
       d="M 67.6483 21.1934 L 63.2836 25.5581 C 68.2992 30.2049 76.0478 30.2035 81.0615 25.5551 L 76.6971 21.1904 C 74.1009 23.4409 70.2455 23.4417 67.6483 21.1924 Z" />
    <path
       id="LeaderC"
       class="Leader C"
       d="M 50.8345 25.22647 L 67.0815 25.22647" />
    <text
       id="LabelC"
       class="Label C"
       x="45.8345"
       y="25.44603"
       style="text-anchor:end;">C</text>
  </g>
  <g
     id="g4">
    <path
       id="ButtonD"
       class="Button D"
       d="M 66.9734 11.4671 L 62.6009 7.09461 C 57.9703 12.1059 57.9707 19.8351 62.6019 24.8459 L 66.9731 20.4747 C 64.7469 17.8848 64.7469 14.057 66.9732 11.4671 Z" />
    <path
       id="LeaderD"
       class="Leader D"
       d="M 50.8345 16.05963 L 61.4645 16.05963" />
    <text
       id="LabelD"
       class="Label D"
       x="45.8345"
       y="16.27919"
       style="text-anchor:end;">D</text>
  </g>
  <g
     id="g5">
    <path
       id="ButtonI"
       class="Button I ModeSwitch"
       d="M 72.1687 10.6101 C 69.9978 10.6101 68.0406 11.9178 67.2098 13.9235 C 66.379 15.9292 66.8382 18.2378 68.3733 19.7729 C 69.9084 21.308 72.2171 21.7672 74.2227 20.9364 C 76.2284 20.1057 77.5362 18.1485 77.5362 15.9776 C 77.5362 14.554 76.9707 13.1888 75.9641 12.1822 C 74.9575 11.1756 73.5922 10.6101 72.1687 10.6101 Z" />
    <path
       id="LeaderI"
       class="Leader I ModeSwitch"
       d="M 50.8345 34.39331 L 72.2426 34.39331 L 72.1686 19.5003" />
    <text
       id="LabelI"
       class="Label I ModeSwitch"
       x="45.8345"
       y="34.61287"
       style="text-anchor:end;">I</text>
  </g>
  <g
     id="g7">
    <path
       id="DialCCW"
       class="DialCCW Button"
       d="M 101.014 5.88344 L 103.261 4.78296 L 103.261 5.51662 C 104.604 5.43235 105.933 5.82284 107.006 6.61708 C 105.859 6.00801 104.509 5.87584 103.261 6.25026 L 103.261 6.9839 Z" />
    <path
       id="LeaderDialCCW"
       class="DialCCW Dial Leader"
       d="M 108.982 6.89279 L 123.228 6.89279" />
    <text
       id="LabelDialCCW"
       class="DialCCW Dial Label"
       x="128.228"
       y="7.2452002"
       style="text-anchor:start;">CCW</text>
    <path
       id="DialCW"
       class="DialCW Button"
       d="M 101.012 26.4255 L 103.259 25.3251 L 103.259 26.0587 C 104.557 26.2501 105.882 25.9905 107.004 25.3251 C 106.031 26.3215 104.666 26.8566 103.259 26.7923 L 103.259 27.526 Z" />
    <path
       id="LeaderDialCW"
       class="DialCW Dial Leader"
       d="M 108.982 25.0477 L 123.228 25.0477" />
    <text
       id="LabelDialCW"
       class="DialCW Dial Label"
       x="128.228"
       y="25.45682"
       style="text-anchor:start;">CW</text>
    <path
       id="Dial"
       class="Dial TouchDial"
       d="M 103.983 3.00752 C 98.7365 3.00752 94.0075 6.16756 91.9995 11.0141 C 89.9925 15.8607 91.1015 21.4393 94.8115 25.1487 C 98.5205 28.8581 104.099 29.9677 108.946 27.9602 C 113.793 25.9527 116.953 21.2234 116.953 15.9775 C 116.953 8.81439 111.146 3.00752 103.983 3.00752 Z" />
  </g>
  <g
     id="g11">
    <path
       id="ButtonE"
       class="Button E"
       d="M 227.873 6.44612 C 222.863 1.81516 215.135 1.81385 210.123 6.44312 L 214.496 10.8156 C 217.086 8.59174 220.912 8.59302 223.501 10.8186 Z" />
    <path
       id="LeaderE"
       class="Leader E"
       d="M 240.327 6.93851 L 224.081 6.93851" />
    <text
       id="LabelE"
       class="Label E"
       x="245.327"
       y="7.11235"
       style="text-anchor:start;">E</text>
  </g>
  <g
     id="g12">
    <path
       id="ButtonF"
       class="Button F"
       d="M 224.197 20.5178 L 228.584 24.9044 C 233.231 19.89 233.232 12.1424 228.585 7.12743 L 224.197 11.5153 C 226.42 14.1044 226.42 17.9288 224.197 20.5178 Z" />
    <path
       id="LeaderF"
       class="Leader F"
       d="M 240.327 16.05963 L 229.698 16.05963" />
    <text
       id="LabelF"
       class="Label F"
       x="245.327"
       y="16.27919"
       style="text-anchor:start;">F</text>
  </g>
  <g
     id="g13">
    <path
       id="ButtonG"
       class="Button G"
       d="M 214.474 21.2391 L 210.109 25.6038 C 215.125 30.2506 222.873 30.2492 227.887 25.6008 L 223.523 21.2361 C 220.926 23.4866 217.071 23.4874 214.474 21.2381 Z" />
    <path
       id="LeaderG"
       class="Leader G"
       d="M 240.327 25.22647 L 224.081 25.22647" />
    <text
       id="LabelG"
       class="Label G"
       x="245.327"
       y="25.44603"
       style="text-anchor:start;">G</text>
  </g>
  <g
     id="g14">
    <path
       id="ButtonH"
       class="Button H"
       d="M 213.799 11.5128 L 209.426 7.14033 C 204.796 12.1516 204.796 19.8808 209.427 24.8916 L 213.799 20.5204 C 211.572 17.9305 211.572 14.1027 213.799 11.5128 Z" />
    <path
       id="LeaderH"
       class="Leader H"
       d="M 240.327 43.56015 L 208.272 43.56015 L 208.198 19.5457" />
    <text
       id="LabelH"
       class="Label H"
       x="245.327"
       y="43.77971"
       style="text-anchor:start;">H</text>
  </g>
  <g
     id="g15">
    <path
       id="ButtonJ"
       class="Button J ModeSwitch"
       d="M 218.994 10.6558 C 216.823 10.6558 214.866 11.9635 214.035 13.9692 C 213.204 15.9749 213.664 18.2835 215.199 19.8186 C 216.734 21.3537 219.043 21.8129 221.048 20.9821 C 223.054 20.1514 224.362 18.1942 224.362 16.0233 C 224.362 14.5997 223.796 13.2345 222.79 12.2279 C 221.783 11.2213 220.418 10.6558 218.994 10.6558 Z" />
    <path
       id="LeaderJ"
       class="Leader J ModeSwitch"
       d="M 240.327 34.39331 L 219.068 34.39331 L 218.994 19.546" />
    <text
       id="LabelJ"
       class="Label J ModeSwitch"
       x="245.327"
       y="34.61287"
       style="text-anchor:start;">J</text>
  </g>
  <g
     id="g17">
    <path
       id="Dial2CCW"
       class="Dial2CCW Button"
       d="M 184.439 5.92916 L 186.686 4.82868 L 186.686 5.56234 C 188.029 5.47807 189.358 5.86856 190.431 6.6628 C 189.284 6.05373 187.934 5.92156 186.686 6.29598 L 186.686 7.02962 Z" />
    <path
       id="LeaderDial2CCW"
       class="Dial2CCW Dial2 Leader"
       d="M 182.409 6.93851 L 168.163 6.93851" />
    <text
       id="LabelDial2CCW"
       class="Dial2CCW Dial2 Label"
       x="163.163"
       y="7.2452002"
       style="text-anchor:end;">CCW</text>
    <path
       id="Dial2CW"
       class="Dial2CW Button"
       d="M 184.437 26.4712 L 186.684 25.3708 L 186.684 26.1044 C 187.982 26.2958 189.307 26.0362 190.429 25.3708 C 189.456 26.3672 188.091 26.9023 186.684 26.838 L 186.684 27.5717 Z" />
    <path
       id="LeaderDial2CW"
       class="Dial2CW Dial2 Leader"
       d="M 182.409 25.0934 L 168.163 25.0934" />
    <text
       id="LabelDial2CW"
       class="Dial2CW Dial2 Label"
       x="163.163"
       y="25.457001"
       style="text-anchor:end;">CW</text>
    <path
       id="Dial2"
       class="Dial2 TouchDial"
       d="M 187.408 3.05324 C 182.162 3.05324 177.433 6.21328 175.425 11.0598 C 173.418 15.9064 174.527 21.485 178.237 25.1944 C 181.946 28.9038 187.525 30.0134 192.371 28.0059 C 197.218 25.9984 200.378 21.2691 200.378 16.0232 C 200.378 8.86011 194.571 3.05324 187.408 3.05324 Z" />
  </g>
</svg>
