<?xml version="1.0" standalone="no"?>
<!DOCTYPE svg PUBLIC "-//W3C//DTD SVG 1.1//EN"
   "http://www.w3.org/Graphics/SVG/1.1/DTD/svg11.dtd">
<!--
   Designed after data from http://www.wacom-asia.com/download/manuals/UM_DTZ2100.pdf
   Size and positions of controls may not be accurate
 -->
<svg
   xmlns="http://www.w3.org/2000/svg"
   version="1.1"
   style="color:#000000;stroke:#7f7f7f;fill:none;stroke-width:.25;font-size:8"
   id="cintiq-21ux"
   width="561"
   height="421">
  <title
     id="title">Wacom Cintiq 21UX</title>
  <g>
    <rect
       id="ButtonA"
       class="A Button"
       rx=".5"
       ry=".5"
       x="20"
       y="224"
       width="11"
       height="17" />
    <path
       id="LeaderA"
       class="A Leader"
       d="M 33 233 l 20 0 l 0 10 l 5 0" />
    <text
       id="LabelA"
       class="A Label"
       x="60"
       y="243"
       style="text-anchor:start;">A</text>
  </g>
  <g>
    <rect
       id="ButtonB"
       class="B Button"
       rx=".5"
       ry=".5"
       x="20"
       y="242"
       width="11"
       height="17" />
    <path
       id="LeaderB"
       class="B Leader"
       d="M 33 251 l 16 0 l 0 13 l 9 0" />
    <text
       id="LabelB"
       class="B Label"
       x="60"
       y="264"
       style="text-anchor:start;">B</text>
  </g>
  <g>
    <rect
       id="ButtonC"
       class="C Button"
       x="8"
       y="224"
       rx=".5"
       ry=".5"
       width="11"
       height="35" />
    <path
       id="LeaderC"
       class="C Leader"
       d="M 6 242 l -1 0 l 0 -22 l 53 0" />
    <text
       id="LabelC"
       class="C Label"
       x="60"
       y="220"
       style="text-anchor:start;">C</text>
  </g>
  <g>
    <rect
       id="ButtonD"
       class="D Button"
       x="8"
       y="260"
       rx=".5"
       ry=".5"
       width="23"
       height="11" />
    <path
       id="LeaderD"
       class="D Leader"
       d="M 33 266 l 8 0 l 0 19 l 17 0" />
    <text
       id="LabelD"
       class="D Label"
       x="60"
       y="285"
       style="text-anchor:start;">D</text>
  </g>
  <g>
    <rect
       id="ButtonE"
       class="E Button"
       x="530"
       y="224"
       rx=".5"
       ry=".5"
       width="11"
       height="17" />
    <path
       id="LeaderE"
       class="E Leader"
       d="M 528 233 l -20 0 l 0 10 l -5 0" />
    <text
       id="LabelE"
       class="E Label"
       x="500"
       y="243"
       style="text-anchor:end;">E</text>
  </g>
  <g>
    <rect
       id="ButtonF"
       class="F Button"
       x="530"
       y="242"
       rx=".5"
       ry=".5"
       width="11"
       height="17" />
    <path
       id="LeaderF"
       class="F Leader"
       d="M 528 251 l -16 0 l 0 13 l -9 0" />
    <text
       id="LabelF"
       class="F Label"
       x="500"
       y="264"
       style="text-anchor:end;">F</text>
  </g>
  <g>
    <rect
       id="ButtonG"
       class="G Button"
       x="542"
       y="224"
       rx=".5"
       ry=".5"
       width="11"
       height="35" />
    <path
       id="LeaderG"
       class="G Leader"
       d="M 555 242 l 1 0 l 0 -22 l -53 0" />
    <text
       id="LabelG"
       class="G Label"
       x="500"
       y="220"
       style="text-anchor:end;">G</text>
  </g>
  <g>
    <rect
       id="ButtonH"
       class="H Button"
       x="530"
       y="260"
       rx=".5"
       ry=".5"
       width="23"
       height="11" />
    <path
       id="LeaderH"
       class="H Leader"
       d="M 528 266 l -8 0 l 0 19 l -17 0" />
    <text
       id="LabelH"
       class="H Label"
       x="500"
       y="285"
       style="text-anchor:end;">H</text>
  </g>
  <g>
    <rect
       id="Strip"
       class="Strip TouchStrip"
       x="20"
       y="140"
       rx="2"
       ry="2"
       width="12"
       height="60" />
    <path
       id="LeaderStripUp"
       class="StripUp Strip Leader"
       d="M 26 138 l 0 -2 l 16 0 l 0 7 l 16 0" />
    <text
       id="LabelStripUp"
       class="StripUp Strip Label"
       x="60"
       y="143"
       style="text-anchor:start;">Up</text>
    <path
       id="LeaderStripDown"
       class="StripDown Strip Leader"
       d="M 26 202 l 0 2 l 16 0 l 0 -7 l 16 0" />
    <text
       id="LabelStripDown"
       class="StripDown Strip Label"
       x="60"
       y="197"
       style="text-anchor:start;">Down</text>
  </g>
  <g>
    <rect
       id="Strip2"
       class="Strip2 TouchStrip"
       x="530"
       y="140"
       rx="2"
       ry="2"
       width="12"
       height="60" />
    <path
       id="LeaderStrip2Up"
       class="Strip2Up Strip2 Leader"
       d="M 536 138 l 0 -2 l -16 0 l 0 7 l -16 0" />
    <text
       id="LabelStrip2Up"
       class="Strip2Up Strip2 Label"
       x="500"
       y="143"
       style="text-anchor:end;">Up</text>
    <path
       id="LeaderStrip2Down"
       class="Strip2Down Strip2 Leader"
       d="M 536 202 l 0 2 l -16 0 l 0 -7 l -16 0" />
    <text
       id="LabelStrip2Down"
       class="Strip2Down Strip2 Label"
       x="500"
       y="197"
       style="text-anchor:end;">Down</text>
  </g>
</svg>
