<?xml version="1.0" encoding="UTF-8" standalone="no"?>
<svg
   version="1.1"
   style="color:#000000;font-size:8px;fill:none;stroke:#7f7f7f;stroke-width:0.25"
   id="intuos-pro-2-l"
   width="435.05508"
   height="268.56357"
   inkscape:version="1.4.4 (dcaf3e7d9e, 2026-05-05)"
   sodipodi:docname="wacom-intuos-pro-2-l.svg"
   xmlns:inkscape="http://www.inkscape.org/namespaces/inkscape"
   xmlns:sodipodi="http://sodipodi.sourceforge.net/DTD/sodipodi-0.dtd"
   xmlns="http://www.w3.org/2000/svg"
   xmlns:svg="http://www.w3.org/2000/svg"
   xmlns:rdf="http://www.w3.org/1999/02/22-rdf-syntax-ns#"
   xmlns:cc="http://creativecommons.org/ns#"
   xmlns:dc="http://purl.org/dc/elements/1.1/">
  <metadata
     id="metadata66">
    <rdf:RDF>
      <cc:Work
         rdf:about="">
        <dc:format>image/svg+xml</dc:format>
        <dc:type
           rdf:resource="http://purl.org/dc/dcmitype/StillImage" />
        <dc:title>Wacom Intuos Pro 2 L</dc:title>
      </cc:Work>
    </rdf:RDF>
  </metadata>
  <defs
     id="defs64">
    <inkscape:perspective
       sodipodi:type="inkscape:persp3d"
       inkscape:vp_x="0 : 135.56357 : 1"
       inkscape:vp_y="0 : 1000 : 0"
       inkscape:vp_z="380 : 135.56357 : 1"
       inkscape:persp3d-origin="190 : 93.896898 : 1"
       id="perspective68" />
  </defs>
  <sodipodi:namedview
     pagecolor="#ffffff"
     bordercolor="#666666"
     borderopacity="1"
     objecttolerance="10"
     gridtolerance="10"
     guidetolerance="10"
     inkscape:pageopacity="0"
     inkscape:pageshadow="2"
     inkscape:window-width="3072"
     inkscape:window-height="1629"
     id="namedview62"
     showgrid="false"
     inkscape:zoom="1.888"
     inkscape:cx="99.576271"
     inkscape:cy="109.11017"
     inkscape:window-x="0"
     inkscape:window-y="0"
     inkscape:window-maximized="1"
     inkscape:current-layer="intuos-pro-2-l"
     inkscape:showpageshadow="2"
     inkscape:pagecheckerboard="0"
     inkscape:deskcolor="#d1d1d1" />
  <title
     id="title">Wacom Intuos Pro 2 L</title>
  <g
     id="GroupA"
     transform="translate(0.25,4.25)">
    <path
       d="m 24,42 c 0,-2 2,-2 2,-2 h 16 c 2,0 2,2 2,2 V 52 H 24 V 42"
       class="A Button"
       id="ButtonA" />
    <path
       id="LeaderA"
       class="A Leader"
       d="m 46,46 h 4" />
    <text
       id="LabelA"
       class="A Label"
       x="52"
       y="46"
       style="line-height:0%;text-anchor:start">A</text>
  </g>
  <g
     id="g9"
     transform="translate(0.25,2.6610169)">
    <rect
       id="ButtonB"
       class="B Button"
       x="24"
       y="54"
       width="20"
       height="12" />
    <rect
       id="DotB1"
       rx="1"
       ry="1"
       x="30"
       y="59.5"
       width="8"
       height="1" />
    <path
       id="LeaderB"
       class="B Leader"
       d="m 46,60 h 4" />
    <text
       id="LabelB"
       class="B Label"
       x="52"
       y="60"
       style="line-height:0%;text-anchor:start">B</text>
  </g>
  <g
     id="g15"
     transform="translate(0.25,1.0720339)">
    <rect
       id="ButtonC"
       class="C Button"
       x="24"
       y="68"
       width="20"
       height="12" />
     <circle
        id="DotC1"
        cx="34"
        cy="74"
        r="0.75" />
    <path
       id="LeaderC"
       class="C Leader"
       d="m 46,74 h 4" />
    <text
       id="LabelC"
       class="C Label"
       x="52"
       y="74"
       style="line-height:0%;text-anchor:start">C</text>
  </g>
  <g
     id="g21"
     transform="translate(0.25,-0.5169492)">
    <path
       d="m 24,82 h 20 v 10 c 0,2 -2,2 -2,2 H 26 c -2,0 -2,-2 -2,-2 V 82"
       class="D Button"
       id="ButtonD" />
    <path
       id="LeaderD"
       class="D Leader"
       d="m 46,88 h 4" />
    <text
       id="LabelD"
       class="D Label"
       x="52"
       y="88"
       style="line-height:0%;text-anchor:start">D</text>
  </g>
  <g
     id="g26"
     transform="translate(-0.01483051,-3.1652542)">
    <path
       d="m 24,156 c 0,-2 2,-2 2,-2 h 16 c 2,0 2,2 2,2 v 10 H 24 v -10"
       class="E Button"
       id="ButtonE" />
    <path
       id="LeaderE"
       class="E Leader"
       d="m 46,162 h 4" />
    <text
       id="LabelE"
       class="E Label"
       x="52"
       y="162"
       style="line-height:0%;text-anchor:start">E</text>
  </g>
  <g
     id="g31"
     transform="translate(-0.01483051,-6.872881)">
    <rect
       id="ButtonF"
       class="F Button"
       x="24"
       y="170"
       width="20"
       height="12" />
     <circle
        id="DotF1"
        cx="34"
        cy="176"
        r="0.75" />
    <path
       id="LeaderF"
       class="F Leader"
       d="m 46,176 h 4" />
    <text
       id="LabelF"
       class="F Label"
       x="52"
       y="176"
       style="line-height:0%;text-anchor:start">F</text>
  </g>
  <g
     id="g37"
     transform="translate(-0.01483051,-8.461865)">
    <rect
       id="ButtonG"
       class="G Button"
       x="24"
       y="184"
       width="20"
       height="12" />
    <rect
       id="DotG1"
       rx="1"
       ry="1"
       x="30"
       y="189.5"
       width="8"
       height="1" />
    <path
       id="LeaderG"
       class="G Leader"
       d="m 46,190 h 4" />
    <text
       id="LabelG"
       class="G Label"
       x="52"
       y="190"
       style="line-height:0%;text-anchor:start">G</text>
  </g>
  <g
     id="g43"
     transform="translate(-0.01483051,-10.580508)">
    <path
       d="m 24,198 h 20 v 10 c 0,2 -2,2 -2,2 H 26 c -2,0 -2,-2 -2,-2 v -10"
       class="H Button"
       id="ButtonH" />
    <path
       id="LeaderH"
       class="H Leader"
       d="m 46,204 h 4" />
    <text
       id="LabelH"
       class="H Label"
       x="52"
       y="204"
       style="line-height:0%;text-anchor:start">H</text>
  </g>
  <g
     id="g48"
     transform="translate(-0.27966102,-1.8411017)">
     <circle
        id="Ring"
        class="Ring TouchRing"
        cx="34"
        cy="125"
        r="19.5" />
    <path
       id="LeaderRingCCW"
       class="RingCCW Ring Leader"
       d="m 34,105 v -2 h 26" />
    <text
       id="LabelRingCCW"
       class="RingCCW Ring Label"
       x="62"
       y="103"
       style="line-height:0%;text-anchor:start">CCW</text>
    <path
       id="RingCCW"
       class="RingCCW Button"
       d="m 31,111 3,-1.5 v 1 a 7.5,7.5 0 0 1 5,1.5 6.5,6.5 0 0 0 -5,-0.5 v 1 z" />
    <path
       id="LeaderRingCW"
       class="RingCW Ring Leader"
       d="m 34,145 v 2 h 26" />
    <text
       id="LabelRingCW"
       class="RingCW Ring Label"
       x="62"
       y="147"
       style="line-height:0%;text-anchor:start">CW</text>
    <path
       id="RingCW"
       class="RingCW Button"
       d="m 31,139 3,-1.5 v 1 a 7.5,7.5 0 0 0 5,-1 6.5,6.5 0 0 1 -5,2 v 1 z" />
  </g>
  <g
     id="g57"
     transform="translate(-0.27966107,-1.8411017)">
     <circle
        id="ButtonI"
        class="I ModeSwitch Button"
        cx="34"
        cy="125"
        r="9.5" />
    <path
       id="LeaderI"
       class="I ModeSwitch Leader"
       d="m 56,125 h 4" />
    <text
       id="LabelI"
       class="I ModeSwitch Label"
       x="62"
       y="125"
       style="line-height:0%;text-anchor:start">I</text>
  </g>
  <rect
     style="fill:none;stroke-width:0.5;stroke-linecap:round;stroke-dasharray:none"
     class="Outline"
     id="Outline"
     width="434.55508"
     height="268.06357"
     x="0.25"
     y="0.25"
     ry="2.9007006"
     inkscape:label="#Outline" />
  <rect
     style="fill:none;stroke-width:0.5;stroke-linecap:round;stroke-dasharray:none"
     class="DrawingArea"
     id="DrawingArea"
     width="327.91104"
     height="214.54662"
     x="63.779659"
     y="24.88983"
     inkscape:label="#DrawingArea" />
</svg>
