<?xml version="1.0" encoding="UTF-8" standalone="no"?>
<!DOCTYPE svg PUBLIC "-//W3C//DTD SVG 1.1//EN" "http://www.w3.org/Graphics/SVG/1.1/DTD/svg11.dtd">
<!--
 -->
<svg xmlns="http://www.w3.org/2000/svg" version="1.1" style="color:#000000;stroke:#7f7f7f;fill:none;stroke-width:.25;font-size:8" id="intuos-m-p3" width="275" height="222">
  <title id="title">Wacom Intuos Pen Medium (CTL-6100)</title>
  <g>
    <path id="ButtonA" class="A Button" d="M 42,10.5 a 12.75,8.5 0 0 1 12.75,-8.5 l 23.75,0 l 0,19 l -23.75,0 a 12.75,8.5 0 0 1 -12.75,-8.5 l 0,-2"/>
    <path id="LeaderA" class="A Leader" d="M 44,21.5 l 0,25 l 2,0"/>
    <text id="LabelA" class="A Label" x="48" y="53.5" style="text-anchor:start;">A</text>
  </g>

  <g>
    <path id="ButtonB" class="B Button" d="M 80,2 l 42,0 l 0,19 l -42,0 z"/>
    <path id="LeaderB" class="B Leader" d="M 82,22.5 l 0,10 l 2,0"/>
    <text id="LabelB" class="B Label" x="86" y="38" style="text-anchor:start;">B</text>
  </g>

  <g>
    <path id="ButtonC" class="C Button" d="M 153,2 l 42,0 l 0,19 l -42,0 z"/>
    <path id="LeaderC" class="C Leader" d="M 155,22.5 l 0,25 l 2,0"/>
    <text id="LabelC" class="C Label" x="170" y="53.5" style="text-anchor:end;">C</text>
  </g>

  <g>
    <path id="ButtonD" class="D Button" d="M 196.5,2 l 23.75,0 a 12.75,8.5 0 0 1 12.75,8.5 l 0,2 a 12.75,8.5 0 0 1 -12.75,8.5 l -23.75,0 l 0,-19"/>
    <path id="LeaderD" class="D Leader" d="M 197.5,22.5 l 0,10 l 2,0"/>
    <text id="LabelD" class="D Label" x="212.5" y="38" style="text-anchor:end;">D</text>
  </g>

</svg>
