<?xml version="1.0" encoding="UTF-8" standalone="no"?>
<!-- Created with Inkscape (http://www.inkscape.org/) -->

<svg
   width="291mm"
   height="205mm"
   viewBox="0 0 291 205"
   version="1.1"
   id="intuos-pro-m-ptk670"
   style="fill:none;stroke:#7f7f7f;stroke-width:0.25;font-size:6;font-family:monospace"
   sodipodi:docname="wacom-intuos-pro-3-m.svg"
   inkscape:version="1.4.2 (ebf0e940d0, 2025-05-08)"
   xmlns:inkscape="http://www.inkscape.org/namespaces/inkscape"
   xmlns:sodipodi="http://sodipodi.sourceforge.net/DTD/sodipodi-0.dtd"
   xmlns="http://www.w3.org/2000/svg"
   xmlns:svg="http://www.w3.org/2000/svg">
  <defs
     id="defs1" />
  <sodipodi:namedview
     id="namedview1"
     pagecolor="#ffffff"
     bordercolor="#000000"
     borderopacity="0.25"
     inkscape:showpageshadow="2"
     inkscape:pageopacity="0.0"
     inkscape:pagecheckerboard="0"
     inkscape:deskcolor="#d1d1d1"
     inkscape:document-units="mm"
     inkscape:zoom="1.8688618"
     inkscape:cx="550.06743"
     inkscape:cy="216.17436"
     inkscape:window-width="3072"
     inkscape:window-height="1659"
     inkscape:window-x="0"
     inkscape:window-y="0"
     inkscape:window-maximized="1"
     inkscape:current-layer="intuos-pro-m-ptk670" />
  <title
     id="title">Wacom Intuos Pro M (PTK670)</title>
  <path
     id="ButtonA"
     class="Button A"
     d="m 80.503889,6.4003248 c -5.01,-4.63096 -12.738,-4.63227 -17.75,-0.003 l 4.373,4.3725002 c 2.59,-2.2238802 6.416,-2.2226002 9.005,0.003 z"
     style="font-size:6px;font-family:monospace;fill:none;stroke:#7f7f7f;stroke-width:0.25" />
  <path
     id="LeaderA"
     class="Leader A"
     d="M 85.681619,74.037321 H 55.865482 l -0.12232,-67.0936332 10.794727,-0.05097"
     sodipodi:nodetypes="cccc"
     style="font-size:6px;font-family:monospace;fill:none;stroke:#7f7f7f;stroke-width:0.25" />
  <text
     id="LabelA"
     class="Label A"
     x="92.191391"
     y="73.687744"
     style="font-size:6px;font-family:monospace;text-anchor:end;fill:none;stroke:#7f7f7f;stroke-width:0.25">A</text>
  <path
     id="ButtonB"
     class="Button B"
     d="m 76.828889,20.472025 4.386,4.3866 c 4.647,-5.0144 4.648,-12.762 0.001,-17.7769902 l -4.388,4.3878902 c 2.224,2.5891 2.224,6.4135 0,9.0025 z"
     style="font-size:6px;font-family:monospace;fill:none;stroke:#7f7f7f;stroke-width:0.25" />
  <path
     id="LeaderB"
     class="Leader B"
     d="m 85.609219,43.560075 h -3.11433 l -0.074,-24.06015"
     sodipodi:nodetypes="ccc"
     style="font-size:6px;font-family:monospace;fill:none;stroke:#7f7f7f;stroke-width:0.25" />
  <text
     id="LabelB"
     class="Label B"
     x="92.088852"
     y="43.410454"
     style="font-size:6px;font-family:monospace;text-anchor:end;fill:none;stroke:#7f7f7f;stroke-width:0.25">B</text>
  <path
     id="ButtonC"
     class="Button C"
     d="m 67.104889,21.193325 -4.365,4.3647 c 5.016,4.6468 12.764,4.6454 17.778,-0.003 l -4.364,-4.3647 c -2.596,2.2505 -6.452,2.2513 -9.049,0.002 z"
     style="font-size:6px;font-family:monospace;fill:none;stroke:#7f7f7f;stroke-width:0.25" />
  <path
     id="LeaderC"
     class="Leader C"
     d="m 85.681619,58.756131 h -19.04749 l -0.0962,-33.529736"
     sodipodi:nodetypes="ccc"
     style="font-size:6px;font-family:monospace;fill:none;stroke:#7f7f7f;stroke-width:0.25" />
  <text
     id="LabelC"
     class="Label C"
     x="92.222153"
     y="58.546173"
     style="font-size:6px;font-family:monospace;text-anchor:end;fill:none;stroke:#7f7f7f;stroke-width:0.25">C</text>
  <path
     id="ButtonD"
     class="Button D"
     d="m 66.429889,11.467025 -4.372,-4.3724902 c -4.631,5.0112902 -4.631,12.7404902 0,17.7512902 l 4.372,-4.3712 c -2.226,-2.5899 -2.226,-6.4177 0,-9.0076 z"
     style="font-size:6px;font-family:monospace;fill:none;stroke:#7f7f7f;stroke-width:0.25" />
  <path
     id="LeaderD"
     class="Leader D"
     d="m 85.681619,66.243421 h -24.80943 l 0.0487,-50.183866"
     sodipodi:nodetypes="ccc"
     style="font-size:6px;font-family:monospace;fill:none;stroke:#7f7f7f;stroke-width:0.25" />
  <text
     id="LabelD"
     class="Label D"
     x="92.176743"
     y="66.118423"
     style="font-size:6px;font-family:monospace;text-anchor:end;fill:none;stroke:#7f7f7f;stroke-width:0.25">D</text>
  <path
     id="ButtonI"
     class="Button I ModeSwitch"
     d="m 71.624889,10.610025 c -2.171,0 -4.128,1.3077 -4.959,3.3134 -0.83,2.0057 -0.371,4.3143 1.164,5.8494 1.535,1.5351 3.844,1.9943 5.849,1.1635 2.006,-0.8307 3.314,-2.7879 3.314,-4.9588 0,-1.4236 -0.566,-2.7888 -1.572,-3.7954 -1.007,-1.0066 -2.372,-1.5721 -3.796,-1.5721 z"
     style="font-size:6px;font-family:monospace;fill:none;stroke:#7f7f7f;stroke-width:0.25" />
  <path
     id="LeaderI"
     class="Leader I ModeSwitch"
     d="m 85.681619,51.104772 h -13.98273 l -0.074,-31.604547"
     sodipodi:nodetypes="ccc"
     style="font-size:6px;font-family:monospace;fill:none;stroke:#7f7f7f;stroke-width:0.25" />
  <text
     id="LabelI"
     class="Label I ModeSwitch"
     x="92.194321"
     y="50.979774"
     style="font-size:6px;font-family:monospace;text-anchor:end;fill:none;stroke:#7f7f7f;stroke-width:0.25">I</text>
  <g
     id="g7"
     style="font-size:6px;font-family:monospace;fill:none;stroke:#7f7f7f;stroke-width:0.25"
     transform="translate(-43.414111,-7.5157166e-5)">
    <path
       id="Dial"
       class="Dial TouchDial"
       d="m 146.854,3.00752 c -5.247,0 -9.976,3.16004 -11.984,8.00658 -2.007,4.8466 -0.898,10.4252 2.812,14.1346 3.709,3.7094 9.288,4.819 14.135,2.8115 4.847,-2.0075 8.007,-6.7368 8.007,-11.9827 0,-7.16311 -5.807,-12.96998 -12.97,-12.96998 z" />
    <path
       id="DialCCW"
       class="DialCCW Button"
       d="m 143.885,5.88344 2.247,-1.10048 v 0.73366 c 1.343,-0.08427 2.672,0.30622 3.745,1.10046 C 148.73,6.00801 147.38,5.87584 146.132,6.25026 V 6.9839 Z" />
    <path
       id="LeaderDialCCW"
       class="DialCCW Dial Leader"
       d="m 151.853,6.89279 h 14.246" />
    <text
       id="LabelDialCCW"
       class="DialCCW Dial Label"
       x="171.099"
       y="7.2452002"
       style="text-anchor:start">CCW</text>
    <path
       id="DialCW"
       class="DialCW Button"
       d="m 143.883,26.4255 2.247,-1.1004 v 0.7336 c 1.298,0.1914 2.623,-0.0682 3.745,-0.7336 -0.973,0.9964 -2.338,1.5315 -3.745,1.4672 v 0.7337 z" />
    <path
       id="LeaderDialCW"
       class="DialCW Dial Leader"
       d="m 151.853,25.0477 h 14.246" />
    <text
       id="LabelDialCW"
       class="DialCW Dial Label"
       x="171.099"
       y="25.45682"
       style="text-anchor:start">CW</text>
  </g>
  <path
     id="ButtonE"
     class="Button E"
     d="m 227.32989,6.4460448 c -5.01,-4.63096 -12.738,-4.63227 -17.75,-0.003 l 4.373,4.3724802 c 2.59,-2.2238602 6.416,-2.2225802 9.005,0.003 z"
     style="font-size:6px;font-family:monospace;fill:none;stroke:#7f7f7f;stroke-width:0.25" />
  <g
     id="g10"
     style="font-size:6px;font-family:monospace;fill:none;stroke:#7f7f7f;stroke-width:0.25"
     transform="translate(-43.414111,-7.5157166e-5)">
    <path
       id="LeaderE"
       class="Leader E"
       d="m 247.87623,74.037396 h 30.67943 L 278.67096,6.8514934 266.952,6.93851"
       sodipodi:nodetypes="cccc" />
  </g>
  <path
     id="ButtonF"
     class="Button F"
     d="m 223.65389,20.517725 4.387,4.3866 c 4.647,-5.0144 4.648,-12.762 0.001,-17.7769702 l -4.388,4.3878702 c 2.223,2.5891 2.223,6.4135 0,9.0025 z"
     style="font-size:6px;font-family:monospace;fill:none;stroke:#7f7f7f;stroke-width:0.25" />
  <path
     id="LeaderF"
     class="Leader F"
     d="m 204.46212,66.243421 h 24.69926 l -0.006,-50.183866"
     sodipodi:nodetypes="ccc"
     style="font-size:6px;font-family:monospace;fill:none;stroke:#7f7f7f;stroke-width:0.25" />
  <path
     id="ButtonG"
     class="Button G"
     d="m 213.93089,21.239025 -4.365,4.3647 c 5.016,4.6468 12.764,4.6454 17.778,-0.003 l -4.364,-4.3647 c -2.597,2.2505 -6.452,2.2513 -9.049,0.002 z"
     style="font-size:6px;font-family:monospace;fill:none;stroke:#7f7f7f;stroke-width:0.25" />
  <path
     id="LeaderG"
     class="Leader G"
     d="m 204.46212,58.756131 h 19.02269 l 0.0531,-33.529736"
     sodipodi:nodetypes="ccc"
     style="font-size:6px;font-family:monospace;fill:none;stroke:#7f7f7f;stroke-width:0.25" />
  <path
     id="ButtonH"
     class="Button H"
     d="m 213.25589,11.512725 -4.373,-4.3724702 c -4.63,5.0112702 -4.63,12.7404702 0.001,17.7512702 l 4.372,-4.3712 c -2.227,-2.5899 -2.227,-6.4177 0,-9.0076 z"
     style="font-size:6px;font-family:monospace;fill:none;stroke:#7f7f7f;stroke-width:0.25" />
  <path
     id="LeaderH"
     class="Leader H"
     d="m 204.46212,43.535452 3.26677,0.02462 -0.074,-24.01445"
     sodipodi:nodetypes="ccc"
     style="font-size:6px;font-family:monospace;fill:none;stroke:#7f7f7f;stroke-width:0.25" />
  <path
     id="ButtonJ"
     class="Button J ModeSwitch"
     d="m 218.45089,10.655725 c -2.171,0 -4.128,1.3077 -4.959,3.3134 -0.831,2.0057 -0.371,4.3143 1.164,5.8494 1.535,1.5351 3.844,1.9943 5.849,1.1635 2.006,-0.8307 3.314,-2.7879 3.314,-4.9588 0,-1.4236 -0.566,-2.7888 -1.572,-3.7954 -1.007,-1.0066 -2.372,-1.5721 -3.796,-1.5721 z"
     style="font-size:6px;font-family:monospace;fill:none;stroke:#7f7f7f;stroke-width:0.25" />
  <path
     id="LeaderJ"
     class="Leader J ModeSwitch"
     d="m 204.46212,51.104772 h 14.06277 l -0.074,-31.558847"
     sodipodi:nodetypes="ccc"
     style="font-size:6px;font-family:monospace;fill:none;stroke:#7f7f7f;stroke-width:0.25" />
  <text
     id="LabelE"
     class="Label E"
     x="197.95493"
     y="73.912323"
     style="font-size:6px;font-family:monospace;text-anchor:start;fill:none;stroke:#7f7f7f;stroke-width:0.25">E</text>
  <text
     id="LabelF"
     class="Label F"
     x="197.88754"
     y="66.118423"
     style="font-size:6px;font-family:monospace;text-anchor:start;fill:none;stroke:#7f7f7f;stroke-width:0.25">F</text>
  <text
     id="LabelG"
     class="Label G"
     x="198.09116"
     y="58.546173"
     style="font-size:6px;font-family:monospace;text-anchor:start;fill:none;stroke:#7f7f7f;stroke-width:0.25">G</text>
  <text
     id="LabelH"
     class="Label H"
     x="198.05161"
     y="43.41045"
     style="font-size:6px;font-family:monospace;text-anchor:start;fill:none;stroke:#7f7f7f;stroke-width:0.25">H</text>
  <text
     id="LabelJ"
     class="Label J ModeSwitch"
     x="198.2977"
     y="50.89481"
     style="font-size:6px;font-family:monospace;text-anchor:start;fill:none;stroke:#7f7f7f;stroke-width:0.25">J</text>
  <g
     id="g17"
     style="font-size:6px;font-family:monospace;fill:none;stroke:#7f7f7f;stroke-width:0.25"
     transform="translate(-43.414111,-7.5157166e-5)">
    <path
       id="Dial2"
       class="Dial2 TouchDial"
       d="m 230.279,3.05324 c -5.246,0 -9.975,3.16004 -11.983,8.00656 -2.007,4.8466 -0.898,10.4252 2.812,14.1346 3.709,3.7094 9.288,4.819 14.134,2.8115 4.847,-2.0075 8.007,-6.7368 8.007,-11.9827 0,-7.16309 -5.807,-12.96996 -12.97,-12.96996 z" />
    <path
       id="Dial2CCW"
       class="Dial2CCW Dial2 Button"
       d="m 227.31,5.92916 2.247,-1.10048 v 0.73366 c 1.343,-0.08427 2.672,0.30622 3.745,1.10046 -1.147,-0.60907 -2.497,-0.74124 -3.745,-0.36682 v 0.73364 z" />
    <path
       id="LeaderDial2CCW"
       class="Dial2CCW Dial2 Leader"
       d="M 225.28,6.93851 H 211.034" />
    <text
       id="LabelDial2CCW"
       class="Dial2CCW Dial2 Label"
       x="206.034"
       y="7.2452002"
       style="text-anchor:end">CCW</text>
    <path
       id="Dial2CW"
       class="Dial2CW Button"
       d="m 227.308,26.4712 2.247,-1.1004 v 0.7336 c 1.298,0.1914 2.623,-0.0682 3.745,-0.7336 -0.973,0.9964 -2.338,1.5315 -3.745,1.4672 v 0.7337 z" />
    <path
       id="LeaderDial2CW"
       class="Dial2CW Dial2 Leader"
       d="M 225.28,25.0934 H 211.034" />
    <text
       id="LabelDial2CW"
       class="Dial2CW Dial2 Label"
       x="206.034"
       y="25.457001"
       style="text-anchor:end">CW</text>
  </g>
</svg>
