<?xml version="1.0" standalone="no"?>
<!DOCTYPE svg PUBLIC "-//W3C//DTD SVG 1.1//EN"
   "http://www.w3.org/Graphics/SVG/1.1/DTD/svg11.dtd">
<svg
   xmlns="http://www.w3.org/2000/svg"
   version="1.1"
   style="color:#000000;stroke:#7f7f7f;fill:none;stroke-width:.25;font-size:8"
   id="intuos-pro-l"
   width="487"
   height="318">
  <title
     id="title">Wacom Intuos Pro L</title>
  <g>
    <rect
       id="ButtonB"
       class="B Button"
       rx="2"
       ry="2"
       x="24"
       y="74"
       width="20"
       height="12" />
    <path
       id="LeaderB"
       class="B Leader"
       d="M 46 80 L 50 80" />
    <text
       id="LabelB"
       class="B Label"
       x="52"
       y="80"
       style="text-anchor:start;">
      B
    </text>
  </g>
  <g>
    <rect
       id="ButtonC"
       class="C Button"
       rx="2"
       ry="2"
       x="24"
       y="88"
       width="20"
       height="12" />
    <rect
       id="DotC1"
       rx="1"
       ry="1"
       x="30"
       y="93.5"
       width="8"
       height="1" />
    <path
       id="LeaderC"
       class="C Leader"
       d="M 46 94 L 50 94" />
    <text
       id="LabelC"
       class="C Label"
       x="52"
       y="94"
       style="text-anchor:start;">C</text>
  </g>
  <g>
    <rect
       id="ButtonD"
       class="D Button"
       rx="2"
       ry="2"
       x="24"
       y="102"
       width="20"
       height="12" />
    <circle
       id="DotD1"
       cx="34"
       cy="108"
       r=".75" />
    <path
       id="LeaderD"
       class="D Leader"
       d="M 46 108 L 50 108" />
    <text
       id="LabelD"
       class="D Label"
       x="52"
       y="108"
       style="text-anchor:start;">D</text>
  </g>
  <g>
    <rect
       id="ButtonE"
       class="E Button"
       rx="2"
       ry="2"
       x="24"
       y="116"
       width="20"
       height="12" />
    <path
       id="LeaderE"
       class="E Leader"
       d="M 46 122 L 50 122" />
    <text
       id="LabelE"
       class="E Label"
       x="52"
       y="122"
       style="text-anchor:start;">E</text>
  </g>
  <g>
    <rect
       id="ButtonF"
       class="F Button"
       rx="2"
       ry="2"
       x="24"
       y="190"
       width="20"
       height="12" />
    <path
       id="LeaderF"
       class="F Leader"
       d="M 46 196 L 50 196" />
    <text
       id="LabelF"
       class="F Label"
       x="52"
       y="196"
       style="text-anchor:start;">F</text>
  </g>
  <g>
    <rect
       id="ButtonG"
       class="G Button"
       rx="2"
       ry="2"
       x="24"
       y="204"
       width="20"
       height="12" />
    <circle
       id="DotG1"
       cx="34"
       cy="210"
       r=".75" />
    <path
       id="LeaderG"
       class="G Leader"
       d="M 46 210 L 50 210" />
    <text
       id="LabelG"
       class="G Label"
       x="52"
       y="210"
       style="text-anchor:start;">G</text>
  </g>
  <g>
    <rect
       id="ButtonH"
       class="H Button"
       rx="2"
       ry="2"
       x="24"
       y="218"
       width="20"
       height="12" />
    <rect
       id="DotH1"
       rx="1"
       ry="1"
       x="30"
       y="223.5"
       width="8"
       height="1" />
    <path
       id="LeaderH"
       class="H Leader"
       d="M 46 224 L 50 224" />
    <text
       id="LabelH"
       class="H Label"
       x="52"
       y="224"
       style="text-anchor:start;">H</text>
  </g>
  <g>
    <rect
       id="ButtonI"
       class="I Button"
       rx="2"
       ry="2"
       x="24"
       y="232"
       width="20"
       height="12" />
    <path
       id="LeaderI"
       class="I Leader"
       d="M 46 238 L 50 238" />
    <text
       id="LabelI"
       class="I Label"
       x="52"
       y="238"
       style="text-anchor:start;">I</text>
  </g>
  <g>
    <circle
       id="Ring"
       class="Ring TouchRing"
       cx="34"
       cy="159"
       r="19.5" />
    <path
       id="LeaderRingCCW"
       class="RingCCW Ring Leader"
       d="M 34 139 L 34 137 L 60 137" />
    <text
       id="LabelRingCCW"
       class="RingCCW Ring Label"
       x="62"
       y="137"
       style="text-anchor:start;">CCW</text>
    <path
       id="RingCCW"
       class="RingCCW Button"
       d="M 31 145 l 3 -1.5 l 0 1 a 7.5 7.5 0 0 1 5 1.5 a 6.5 6.5 0 0 0 -5 -0.5 l 0 1 z" />
    <path
       id="LeaderRingCW"
       class="RingCW Ring Leader"
       d="M 34 179 L 34 181 L 60 181" />
    <text
       id="LabelRingCW"
       class="RingCW Ring Label"
       x="62"
       y="181"
       style="text-anchor:start;">CW</text>
    <path
       id="RingCW"
       class="RingCW Button"
       d="M 31 173 l 3 -1.5 l 0 1 a 7.5 7.5 0 0 0 5 -1 a 6.5 6.5 0 0 1 -5 2 l 0 1 z" />
  </g>
  <g>
    <circle
       id="ButtonA"
       class="A ModeSwitch Button"
       cx="34"
       cy="159"
       r="9.5" />
    <path
       id="LeaderA"
       class="A ModeSwitch Leader"
       d="M 56 159 L 60 159" />
    <text
       id="LabelA"
       class="A ModeSwitch Label"
       x="62"
       y="159"
       style="text-anchor:start;">A</text>
  </g>
</svg>
